<svg width="50" height="49" viewBox="0 0 50 49" fill="none" xmlns="http://www.w3.org/2000/svg">
<g clip-path="url(#clip0_99_490)">
<path d="M8.85417 3.92932e-06H41.1458C42.3089 -0.00109226 43.4607 0.227179 44.5355 0.671755C45.6102 1.11633 46.5867 1.76848 47.4091 2.59088C48.2315 3.41329 48.8837 4.3898 49.3283 5.46453C49.7728 6.53926 50.0011 7.69112 50 8.85417V39.8958C50.0011 41.0589 49.7728 42.2107 49.3283 43.2855C48.8837 44.3602 48.2315 45.3367 47.4091 46.1591C46.5867 46.9815 45.6102 47.6337 44.5355 48.0783C43.4607 48.5228 42.3089 48.7511 41.1458 48.75H8.85417C7.69112 48.7511 6.53926 48.5228 5.46453 48.0783C4.3898 47.6337 3.41329 46.9815 2.59088 46.1591C1.76848 45.3367 1.11633 44.3602 0.671755 43.2855C0.227179 42.2107 -0.00109226 41.0589 3.92932e-06 39.8958V8.85417C-0.00109226 7.69112 0.227179 6.53926 0.671755 5.46453C1.11633 4.3898 1.76848 3.41329 2.59088 2.59088C3.41329 1.76848 4.3898 1.11633 5.46453 0.671755C6.53926 0.227179 7.69112 -0.00109226 8.85417 3.92932e-06Z" fill="#002B22"/>
<path d="M20.0834 29.167H12.3334L10.75 34.0837C10.7323 34.1729 10.6819 34.2523 10.6087 34.3063C10.5354 34.3602 10.4447 34.3849 10.3542 34.3753H6.43754C6.20837 34.3753 6.14587 34.2503 6.20837 34.0003L12.9167 14.7712C12.9792 14.5628 13.0417 14.3753 13.125 14.1253C13.2089 13.6788 13.2507 13.2255 13.25 12.7712C13.2438 12.719 13.2575 12.6664 13.2884 12.6239C13.3193 12.5814 13.3651 12.5521 13.4167 12.542H18.8125C18.9584 12.542 19.0625 12.6045 19.0834 12.7087L26.6875 34.0628C26.75 34.292 26.6875 34.3962 26.4792 34.3962H22.125C22.0514 34.4033 21.9776 34.3842 21.9167 34.3423C21.8557 34.3003 21.8115 34.2383 21.7917 34.167L20.0834 29.167ZM13.5417 25.0212H18.8334C18.7084 24.5837 18.5417 24.0628 18.3542 23.5212C18.1667 22.9795 17.9792 22.3545 17.7917 21.7295C17.6042 21.1045 17.3959 20.4587 17.1875 19.8128C16.9792 19.167 16.7917 18.5628 16.625 17.9587C16.4584 17.3545 16.3125 16.8337 16.1667 16.3337H16.125C15.9378 17.2417 15.7013 18.1388 15.4167 19.0212C15.1042 20.0212 14.7917 21.0628 14.4584 22.1045C14.1875 23.167 13.8542 24.1462 13.5417 25.0212Z" fill="#EFFF3D"/>
<path d="M39.0415 27.2507H32.4373C32.5161 27.9082 32.7365 28.5407 33.0831 29.1049C33.4513 29.6664 33.9818 30.1024 34.604 30.3549C35.4461 30.715 36.3549 30.8925 37.2706 30.8757C37.9981 30.8624 38.7231 30.7857 39.4373 30.6466C40.0727 30.5634 40.6954 30.4024 41.2915 30.1674C41.3956 30.0841 41.4581 30.1257 41.4581 30.3341V33.5216C41.4545 33.6063 41.4405 33.6902 41.4165 33.7716C41.3788 33.83 41.3291 33.8797 41.2706 33.9174C40.6043 34.21 39.9047 34.4199 39.1873 34.5424C38.2128 34.7298 37.2211 34.8136 36.229 34.7924C34.6456 34.7924 33.3123 34.5424 32.229 34.0632C31.2096 33.6208 30.3098 32.9424 29.604 32.0841C28.9444 31.2814 28.4553 30.3528 28.1665 29.3549C27.556 27.2765 27.585 25.0624 28.2498 23.0007C28.582 21.9576 29.1126 20.9885 29.8123 20.1466C30.5013 19.314 31.3609 18.6391 32.3331 18.1674C33.3123 17.6882 34.479 17.5216 35.8123 17.5216C36.9232 17.4958 38.026 17.7163 39.0415 18.1674C39.895 18.5374 40.6457 19.1094 41.229 19.8341C41.7828 20.5456 42.206 21.3497 42.479 22.2091C42.7439 23.0302 42.8775 23.8879 42.8748 24.7507C42.8748 25.2507 42.854 25.6882 42.8331 26.0841C42.8123 26.4799 42.7706 26.7716 42.7498 26.9591C42.7406 27.0312 42.7064 27.0979 42.6531 27.1474C42.5998 27.1969 42.5308 27.2261 42.4581 27.2299C42.3331 27.2299 42.104 27.2507 41.7706 27.2716C41.3695 27.3171 40.966 27.338 40.5623 27.3341C40.0831 27.3341 39.5831 27.2507 39.0415 27.2507ZM32.4373 24.2091H36.8331C37.3748 24.2091 37.7706 24.2091 38.0206 24.1882C38.1919 24.174 38.3567 24.1166 38.4998 24.0216V23.8132C38.5007 23.5512 38.4584 23.2908 38.3748 23.0424C38.1924 22.4723 37.8296 21.9771 37.341 21.6313C36.8525 21.2856 36.2647 21.1081 35.6665 21.1257C35.1011 21.094 34.5386 21.2266 34.0469 21.5076C33.5552 21.7886 33.1554 22.2058 32.8956 22.7091C32.6526 23.1769 32.4973 23.6853 32.4373 24.2091Z" fill="#EFFF3D"/>
</g>
<defs>
<clipPath id="clip0_99_490">
<rect width="50" height="48.75" fill="white"/>
</clipPath>
</defs>
</svg>
