<svg width="50" height="49" viewBox="0 0 50 49" fill="none" xmlns="http://www.w3.org/2000/svg">
<g clip-path="url(#clip0_99_478)">
<path d="M8.85417 3.92932e-06H41.1458C42.3089 -0.00109226 43.4607 0.227179 44.5355 0.671755C45.6102 1.11633 46.5867 1.76848 47.4091 2.59088C48.2315 3.41329 48.8837 4.3898 49.3283 5.46453C49.7728 6.53926 50.0011 7.69112 50 8.85417V39.8958C50.0011 41.0589 49.7728 42.2107 49.3283 43.2855C48.8837 44.3602 48.2315 45.3367 47.4091 46.1591C46.5867 46.9815 45.6102 47.6337 44.5355 48.0783C43.4607 48.5228 42.3089 48.7511 41.1458 48.75H8.85417C7.69112 48.7511 6.53926 48.5228 5.46453 48.0783C4.3898 47.6337 3.41329 46.9815 2.59088 46.1591C1.76848 45.3367 1.11633 44.3602 0.671755 43.2855C0.227179 42.2107 -0.00109226 41.0589 3.92932e-06 39.8958V8.85417C-0.00109226 7.69112 0.227179 6.53926 0.671755 5.46453C1.11633 4.3898 1.76848 3.41329 2.59088 2.59088C3.41329 1.76848 4.3898 1.11633 5.46453 0.671755C6.53926 0.227179 7.69112 -0.00109226 8.85417 3.92932e-06Z" fill="#002B22"/>
<path d="M20.2082 29.1663H12.479L10.8957 34.0622C10.878 34.1514 10.8276 34.2308 10.7544 34.2848C10.6811 34.3387 10.5903 34.3634 10.4999 34.3538H6.54154C6.31237 34.3538 6.24987 34.2288 6.31237 33.9788L13.0415 14.7497C13.104 14.5413 13.1665 14.3747 13.2499 14.1038C13.3337 13.6573 13.3756 13.204 13.3749 12.7497C13.3686 12.6975 13.3823 12.6449 13.4132 12.6024C13.4442 12.5599 13.49 12.5306 13.5415 12.5205H18.9582C19.1249 12.5205 19.2082 12.583 19.229 12.6872L26.8124 33.9997C26.8749 34.2288 26.8124 34.333 26.604 34.333H22.2499C22.1762 34.3401 22.1025 34.321 22.0415 34.2791C21.9805 34.2372 21.9363 34.1751 21.9165 34.1038L20.2082 29.1663ZM13.6874 25.0205H18.979C18.854 24.583 18.6874 24.0622 18.4999 23.5205C18.3124 22.9788 18.1249 22.3538 17.9374 21.7288C17.7499 21.1038 17.5415 20.458 17.3332 19.8122C17.1249 19.1663 16.9374 18.5622 16.7707 17.958C16.604 17.3538 16.4582 16.833 16.3124 16.333H16.2707C16.0835 17.241 15.847 18.1382 15.5624 19.0205C15.2499 20.0205 14.9374 21.0622 14.604 22.1038C14.3124 23.1663 13.9999 24.1455 13.6874 25.0205Z" fill="#EFFF3D"/>
<path d="M29.1666 34.0414V21.6664C29.1666 21.2914 29.1665 20.8539 29.1457 20.3955C29.1249 19.9372 29.1249 19.4789 29.1041 19.0622C29.0832 18.6455 29.0624 18.2497 29.0415 17.9997C29.0292 17.9644 29.0265 17.9265 29.0338 17.8898C29.0412 17.8532 29.0582 17.8191 29.0832 17.7914C29.1443 17.7491 29.2173 17.7272 29.2916 17.7289H32.6457C32.7599 17.7275 32.8732 17.7487 32.9791 17.7914C33.0224 17.8144 33.06 17.847 33.0889 17.8867C33.1177 17.9264 33.1372 17.9722 33.1457 18.0205C33.1874 18.1455 33.2499 18.3122 33.2916 18.4789C33.3533 18.7039 33.3951 18.934 33.4165 19.1664C34.066 18.6023 34.8149 18.1643 35.6249 17.8747C36.4374 17.6015 37.2885 17.4609 38.1457 17.458C38.811 17.4567 39.4722 17.5622 40.1041 17.7705C40.8329 18.0074 41.4975 18.4087 42.0466 18.9433C42.5956 19.4779 43.0145 20.1316 43.2707 20.8539C43.6041 21.708 43.7291 22.833 43.7291 24.1872V34.0414C43.7291 34.2497 43.6457 34.333 43.4582 34.333L39.5416 34.3747C39.5031 34.3812 39.4638 34.3798 39.4259 34.3706C39.388 34.3614 39.3524 34.3446 39.3213 34.3212C39.2901 34.2978 39.264 34.2683 39.2446 34.2345C39.2251 34.2008 39.2128 34.1634 39.2082 34.1247V24.708C39.1934 24.0841 39.059 23.4688 38.8124 22.8955C38.6301 22.4512 38.3127 22.0754 37.9053 21.8212C37.4978 21.567 37.0208 21.4473 36.5415 21.4789C35.9997 21.4706 35.4616 21.5698 34.9582 21.7705C34.4996 21.9615 34.0769 22.2292 33.7082 22.5622V34.0622C33.7082 34.2705 33.6249 34.3539 33.4374 34.3539H29.4791C29.4448 34.3585 29.4099 34.3562 29.3765 34.3471C29.3431 34.3381 29.3119 34.3224 29.2847 34.301C29.2575 34.2796 29.2349 34.253 29.2182 34.2227C29.2014 34.1924 29.191 34.1591 29.1874 34.1247C29.1457 34.083 29.1457 34.0622 29.1666 34.0414Z" fill="#EFFF3D"/>
</g>
<defs>
<clipPath id="clip0_99_478">
<rect width="50" height="48.75" fill="white"/>
</clipPath>
</defs>
</svg>
