<svg width="450" height="450" viewBox="0 0 450 450" fill="none" xmlns="http://www.w3.org/2000/svg">
<path d="M92.1647 115.655L99.1037 113.216L109.544 133.808L102.042 137.439L98.2982 128.844L94.8242 130.428L98.2757 139.028L91.1702 142.137L82.4492 119.831L89.0237 117.513L92.5202 125.375L95.8727 123.89L92.1647 115.659V115.655Z" fill="black"/>
<path d="M119.142 129.389L111.384 132.921L102.942 111.038L109.157 107.739L119.142 129.384V129.389Z" fill="black"/>
<path d="M132.206 112.374L125.762 115.439L119.669 102.15L126.266 98.2129L132.206 112.374ZM132.966 123.345C133.902 122.918 134.559 122.067 134.942 120.794C135.284 119.565 135.23 118.445 134.771 117.441C134.343 116.505 133.641 115.952 132.656 115.776C131.774 115.641 130.806 115.812 129.753 116.294C128.817 116.721 128.232 117.509 127.994 118.665C127.782 119.75 127.917 120.821 128.394 121.874C129.29 123.84 130.815 124.331 132.966 123.35V123.345Z" fill="black"/>
<path d="M142.808 107.55L136.364 110.615L130.271 97.3262L136.868 93.3887L142.808 107.55ZM143.564 118.521C144.5 118.094 145.157 117.243 145.539 115.97C145.881 114.741 145.827 113.621 145.368 112.617C144.941 111.681 144.239 111.128 143.253 110.952C142.371 110.817 141.404 110.988 140.351 111.47C139.415 111.897 138.83 112.685 138.591 113.841C138.38 114.926 138.515 115.997 138.992 117.05C139.887 119.016 141.413 119.507 143.564 118.526V118.521Z" fill="black"/>
<path d="M215.419 377.856C188.356 377.856 174.631 372.893 168.038 370.508C167.458 370.296 166.945 370.112 166.495 369.959C152.527 365.252 140.737 357.417 131.467 346.676L131.377 346.568C130.54 345.555 130.04 345.15 129.82 345.002C129.631 345.042 129.239 345.159 128.596 345.47L128.501 345.515C126.071 346.649 123.682 346.869 121.153 347.099C120.149 347.193 119.11 347.288 117.998 347.445L104.057 349.434L110.537 338.495H86.8583C86.8583 338.495 100.489 326.376 100.673 326.214C98.4728 324.779 97.0778 322.736 96.5423 320.702L96.4658 320.4L96.4163 320.094C96.2858 319.316 96.2588 318.537 96.3263 317.745C86.6468 310.073 81.8228 299.799 81.6158 286.502V285.363C81.4853 277.718 83.6228 266.832 89.9993 259.142L90.0308 259.101C90.2018 258.899 90.3773 258.701 90.5528 258.512C86.7458 259.844 82.9883 261.162 79.0193 262.571L66.7793 266.918L70.2578 254.403C70.5188 253.458 70.9598 252.428 72.1973 249.584C75.3113 242.433 81.7913 227.552 84.8063 212.225C86.5073 203.571 90.2153 195.921 93.7973 188.523C95.2418 185.544 96.6413 182.655 97.8968 179.748C95.7818 179.244 93.6083 178.722 91.5563 178.223L84.4283 176.49L86.6513 169.826C86.7098 169.484 86.8133 168.935 87.0203 168.305L88.1993 164.768L91.8218 163.881C92.6588 163.679 93.4913 163.472 94.3283 163.265C95.3858 163.004 96.4433 162.743 97.5053 162.482C98.1758 162.311 98.8598 162.153 99.5438 161.996C100.912 161.667 102.217 161.37 103.423 161.118C103.558 161.087 103.693 161.055 103.828 161.033L105.065 160.794C105.686 160.668 106.348 160.551 107.014 160.434C107.797 160.295 108.539 160.173 109.264 160.07C109.714 160.002 110.173 159.971 110.636 159.971C113.912 159.971 116.711 161.64 118.75 162.855C118.979 162.995 119.209 163.13 119.429 163.256C125.176 166.109 130.009 167.436 134.621 167.436C135.193 167.436 135.76 167.414 136.327 167.373C134.32 165.119 132.367 162.869 130.486 160.601C129.131 159.044 125.284 154.535 126.652 149.099C128.051 143.546 133.753 141.363 135.67 140.639C149.323 135.333 164.573 127.868 174.176 112.73L174.275 112.577L174.383 112.428C174.554 112.181 174.793 111.852 175.13 111.488C175.382 111.209 175.652 110.943 175.945 110.687L176.021 110.619C176.854 109.908 177.844 109.296 178.96 108.792C179.378 108.603 179.743 108.464 180.017 108.365L180.166 108.315C180.431 108.225 180.778 108.113 181.174 108.005L182.029 107.78H182.105C182.614 107.676 183.122 107.604 183.613 107.568L183.734 107.559C191.074 107.15 198.661 106.731 206.099 106.731H206.23C210.923 106.821 215.468 107.132 220.283 107.46C221.435 107.537 222.601 107.618 223.78 107.694C223.703 107.258 223.618 106.83 223.546 106.457C223.109 104.189 222.619 101.619 222.619 98.7979V85.2979L233.419 93.3979C234.044 93.8659 234.863 94.3023 235.808 94.8063C239.44 96.7458 242.873 98.9734 246.104 103.586L248.327 91.8183L257.363 100.854C258.016 101.507 258.682 102.155 259.352 102.803C264.478 107.78 271.084 114.192 271.709 124.218C282.248 122.445 291.797 117.99 300.716 110.709L305.999 106.398L310.256 111.722C311.345 113.085 312.839 115.979 310.585 120.069C310.225 120.722 309.725 121.518 309.059 122.513C307.961 124.146 306.391 126.32 304.519 128.799C303.844 129.69 303.16 130.59 302.467 131.486C315.913 133.128 326.956 138.371 337.697 143.474C344.695 146.799 351.931 150.233 359.815 152.645L383.854 159.989L359.365 165.672C357.11 166.194 354.977 166.703 352.894 167.202C362.51 176.256 365.894 185.828 368.972 194.526C370.853 199.85 372.631 204.876 375.754 209.583L385.879 224.834L368.275 219.807C367.717 219.65 367.073 219.474 366.322 219.276C363.023 234.423 360.724 247.46 358.991 260.78C359.144 263.822 365.395 274.446 370.723 279.77L377.347 286.394L368.968 290.583C367.645 291.245 366.416 291.33 365.489 291.33C365.224 291.33 364.333 291.317 363.059 291.173C363.163 298.364 361.763 305.744 358.852 313.484C358.861 313.808 358.919 314.357 358.96 314.744C359.063 315.761 359.194 317.025 359.117 318.402C359.018 320.954 358.987 322.664 362.528 326.21L367.933 331.614L361.898 336.308C360.211 337.622 358.082 338.261 355.387 338.261C352.444 338.261 348.938 337.514 345.55 336.794C345.091 336.695 344.573 336.587 344.042 336.474C340.888 339.759 335.749 342.693 330.628 344.525C331.618 345.915 332.639 347.342 333.706 348.836L340.735 358.677L332.158 361.611C327.91 363.065 323.707 363.771 319.31 363.771C317.695 363.771 316.061 363.677 314.401 363.479L316.115 365.999L305.374 367.511C304.028 367.7 302.692 367.794 301.396 367.794C294.061 367.794 288.467 364.784 283.675 360.909C270.967 368.532 256.544 373.689 239.764 376.623L239.489 376.673L239.21 376.7C230.854 377.46 222.853 377.843 215.423 377.843L215.419 377.856Z" fill="#F2F8F8"/>
<path d="M135.315 178.727C126.355 178.727 118.174 175.41 110.299 168.588L110.187 168.494L110.079 168.39C109.885 168.206 109.791 168.129 109.759 168.102L109.665 168.026L109.57 167.945C109.368 167.774 109.228 167.661 109.138 167.598C109.138 167.598 108.895 167.423 108.846 167.387L108.405 167.121L108.306 167.067C108.306 167.067 108.27 167.049 108.211 167.018C108.175 167.004 108.144 166.991 108.108 166.973L107.685 166.851L107.653 166.838L107.325 166.779L107.113 166.766H107.005L106.794 166.752C106.767 166.752 106.623 166.752 106.573 166.752C106.524 166.752 106.443 166.752 106.321 166.766L106.015 166.793H105.921L105.808 166.802C105.7 166.811 105.453 166.847 105.237 166.878L105.142 166.892C99.2833 167.697 94.5628 168.075 90.2473 168.075C85.9543 168.075 82.1428 167.706 78.6013 166.946L78.5473 166.932C66.8833 164.331 58.7113 158.904 54.2563 150.795C49.7023 142.511 49.5673 131.841 53.8648 119.948C58.5313 107.069 68.9398 98.5773 78.5023 91.9668L78.5428 91.9398C80.0548 90.9093 81.4498 90.0093 82.7953 89.1813C83.2948 88.8708 83.8528 88.5243 84.4558 88.1868C84.7663 87.9978 85.0858 87.8088 85.3918 87.6333L85.4413 87.6063C85.8328 87.3813 86.2288 87.1563 86.6203 86.9448C87.2143 86.6073 87.8173 86.2788 88.4068 85.9638C89.0143 85.6263 89.5948 85.3338 90.0448 85.1088C90.5578 84.8478 91.0573 84.5958 91.5703 84.3483C92.0833 84.1008 92.6098 83.8488 93.1273 83.6148C95.4088 82.5393 97.7128 81.5583 99.9673 80.6898C100.395 80.5233 100.84 80.3523 101.299 80.1813L101.443 80.1273C101.556 80.0868 101.655 80.0463 101.754 80.0103C102.424 79.7628 103.077 79.5333 103.698 79.3218L104.715 78.8133H105.219C105.313 78.7818 105.988 78.5658 105.988 78.5658C107.28 78.1383 108.657 77.7243 110.074 77.3328L110.907 76.9188H111.582C111.793 76.8603 111.996 76.8108 112.189 76.7658L112.905 76.5723C113.116 76.5138 113.359 76.4553 113.598 76.3968C113.769 76.3563 113.935 76.3113 114.106 76.2663L114.255 76.2258L114.408 76.1943C114.606 76.1538 114.804 76.1043 115.002 76.0593C115.218 76.0098 115.429 75.9603 115.641 75.9153C116.55 75.6948 117.427 75.5103 118.318 75.3258C118.845 75.2133 119.376 75.1098 119.916 75.0108C120.393 74.9073 120.87 74.8173 121.365 74.7273C122.121 74.5878 122.899 74.4438 123.673 74.3133L123.732 74.3043C124.002 74.2593 124.263 74.2143 124.533 74.1828C125.019 74.1018 125.514 74.0298 126.004 73.9578L126.22 73.9263C127.048 73.8003 127.89 73.6743 128.754 73.5708C129.469 73.4673 130.194 73.3818 130.9 73.3098C133.74 72.9768 136.57 72.7248 139.311 72.5583L141.34 72.4368C142.083 72.3918 142.794 72.3648 143.523 72.3333H143.559C144.67 72.2793 145.75 72.2478 146.799 72.2253C147.087 72.2073 147.339 72.2073 147.541 72.2073C148.468 72.1803 149.409 72.1668 150.331 72.1668C151.024 72.1533 151.713 72.1533 152.406 72.1533C154.048 72.1533 155.673 72.1803 157.243 72.2073C157.405 72.2073 157.603 72.2118 157.824 72.2298C158.337 72.2478 158.85 72.2793 159.345 72.3198C159.907 72.3558 160.456 72.4143 160.987 72.4863C161.32 72.5313 161.712 72.5808 162.148 72.6573C162.405 72.6978 162.648 72.7428 162.891 72.7878C163.741 72.9453 164.524 73.1253 165.312 73.3413C165.694 73.4313 166.063 73.5438 166.419 73.6698C166.468 73.6878 166.518 73.7058 166.572 73.7238C166.815 73.8003 167.062 73.8813 167.305 73.9713C167.922 74.1738 168.529 74.4078 169.155 74.6958C169.519 74.8533 169.911 75.0243 170.338 75.2403C170.41 75.2763 170.478 75.3123 170.536 75.3438C170.793 75.4653 171.036 75.5958 171.265 75.7263C171.868 76.0503 172.413 76.3743 172.926 76.7118C172.957 76.7343 173.164 76.8648 173.164 76.8648C173.691 77.2113 174.231 77.5983 174.766 78.0123C174.978 78.1743 175.212 78.3543 175.428 78.5388C175.468 78.5748 175.698 78.7638 175.698 78.7638L175.765 78.8313C175.9 78.9483 176.058 79.0833 176.224 79.2408C176.454 79.4388 176.679 79.6503 176.895 79.8618C177.282 80.2308 177.628 80.5863 177.948 80.9418L177.979 80.9778C178.213 81.2433 178.443 81.5043 178.659 81.7653C178.929 82.0758 179.19 82.4043 179.451 82.7598C179.734 83.1198 179.973 83.4618 180.18 83.7678C180.441 84.1368 180.652 84.4743 180.832 84.7533C181.062 85.1133 181.273 85.4778 181.494 85.8783L181.912 86.6208L181.975 86.7423C182.353 87.4803 182.7 88.2408 183.01 89.0103C183.33 89.7528 183.613 90.5223 183.865 91.3638C184.104 92.1423 184.297 92.8398 184.455 93.4968L184.468 93.5463C184.522 93.7803 184.567 93.9783 184.612 94.1943C184.788 95.0088 184.914 95.7153 185.013 96.4083C185.332 98.5818 185.445 100.823 185.346 103.019V103.082C185.328 103.334 185.31 103.635 185.278 103.973C185.265 104.189 185.247 104.409 185.229 104.625V104.688L185.188 105.084C185.121 105.687 185.04 106.281 184.95 106.848C184.887 107.28 184.815 107.658 184.756 107.964L184.743 108.027C184.644 108.513 184.545 108.986 184.432 109.454C184.261 110.196 184.086 110.849 183.897 111.452C183.843 111.641 183.784 111.83 183.726 112.014V112.145L183.298 113.292C183.109 113.796 182.902 114.314 182.682 114.822C182.461 115.362 182.236 115.835 182.07 116.19L181.993 116.343C181.912 116.505 181.836 116.663 181.75 116.82C181.503 117.302 181.278 117.711 181.048 118.107C175.338 128.138 166.959 136.355 155.452 143.195C149.908 146.547 144.054 149.256 138.532 151.74C138.087 151.947 137.682 152.136 137.313 152.316C137.461 152.55 137.628 152.802 137.812 153.081L137.844 153.131C139.464 155.633 141.678 158.036 144.243 160.817C145.75 162.45 147.456 164.304 149.202 166.356L156.055 174.42L145.854 177.233C142.258 178.227 138.703 178.727 135.288 178.727H135.315Z" fill="#F2F8F8"/>
<path d="M76.4011 216.891C72.5626 216.891 69.2551 214.276 68.3506 210.537C67.4191 206.739 66.8161 206.136 62.9911 205.195C59.2786 204.3 56.6641 200.988 56.6641 197.154C56.6641 193.315 59.2741 190.008 63.0181 189.103C66.8161 188.167 67.4191 187.569 68.3596 183.744C69.2551 180.031 72.5671 177.417 76.4056 177.417C80.2441 177.417 83.5516 180.031 84.4561 183.771C85.3876 187.569 85.9906 188.172 89.8156 189.112C93.5326 190.008 96.1426 193.32 96.1426 197.158C96.1426 200.997 93.5281 204.304 89.7886 205.209C85.9906 206.14 85.3876 206.743 84.4471 210.568C83.5516 214.281 80.2396 216.895 76.4011 216.895V216.891Z" fill="#F2F8F8"/>
<path d="M373.742 283.725C369.332 283.725 365.665 280.553 365.026 276.188C364.117 270.095 362.839 268.56 357.003 266.535C353.146 265.199 350.721 261.437 351.103 257.382C351.486 253.332 354.568 250.092 358.6 249.503C364.693 248.594 366.232 247.316 368.253 241.479C369.504 237.87 372.766 235.539 376.569 235.539C380.979 235.539 384.646 238.707 385.285 243.077C386.194 249.17 387.472 250.704 393.309 252.729C397.165 254.066 399.591 257.828 399.208 261.882C398.826 265.932 395.743 269.172 391.711 269.762C385.618 270.671 384.079 271.949 382.059 277.785C380.808 281.394 377.545 283.725 373.742 283.725Z" fill="#F2F8F8"/>
<path d="M74.9116 208.953C73.3681 202.671 70.8841 200.182 64.6021 198.643C63.0181 198.261 63.0181 196.047 64.6021 195.664C70.8841 194.121 73.3726 191.637 74.9116 185.355C75.2941 183.771 77.5081 183.771 77.8906 185.355C79.4341 191.637 81.9181 194.121 88.2001 195.664C89.7841 196.047 89.7841 198.261 88.2001 198.643C81.9181 200.187 79.4341 202.671 77.8906 208.953C77.5081 210.537 75.2941 210.537 74.9116 208.953Z" fill="#F2F8F8"/>
<path d="M60.2285 122.242C64.1885 111.316 73.067 103.941 82.355 97.5239C83.678 96.6239 85.019 95.7464 86.3555 94.9274C86.8595 94.6124 87.368 94.2974 87.8855 94.0139C88.1735 93.8384 88.475 93.6584 88.7585 93.4964C89.141 93.2759 89.5235 93.0599 89.906 92.8529C90.4775 92.5244 91.0535 92.2094 91.625 91.9124C92.1155 91.6379 92.624 91.3814 93.1145 91.1339C93.5915 90.8864 94.055 90.6569 94.5365 90.4229C95.0135 90.1889 95.504 89.9594 95.9855 89.7389C98.1005 88.7399 100.233 87.8264 102.402 86.9939C102.825 86.8319 103.248 86.6654 103.685 86.5034C103.806 86.4629 103.932 86.4089 104.054 86.3684C104.792 86.0939 105.543 85.8374 106.308 85.5764C106.322 85.5764 106.335 85.5629 106.349 85.5629C106.92 85.3559 107.51 85.1804 108.095 84.9914C109.544 84.5144 111.02 84.0779 112.491 83.6819C112.505 83.6819 112.518 83.6684 112.532 83.6684C112.968 83.5334 113.418 83.4209 113.868 83.3129C114.129 83.2454 114.372 83.1779 114.633 83.1059C115.043 82.9979 115.452 82.8989 115.862 82.7909C116.298 82.6964 116.748 82.5839 117.185 82.4894C118.017 82.2824 118.863 82.1069 119.727 81.9314C120.231 81.8234 120.74 81.7244 121.257 81.6299C121.694 81.5354 122.13 81.4544 122.58 81.3689C123.318 81.2339 124.056 81.0944 124.794 80.9729C125.042 80.9324 125.271 80.8919 125.519 80.8649C126.077 80.7704 126.653 80.6894 127.211 80.6039C128.016 80.4824 128.835 80.3564 129.641 80.2619C130.311 80.1674 130.977 80.0864 131.648 80.0144C134.325 79.6994 137.03 79.4564 139.734 79.2899C140.418 79.2494 141.102 79.2089 141.768 79.1684C142.452 79.1279 143.118 79.1009 143.802 79.0739H143.816C144.909 79.0199 146.003 78.9929 147.105 78.9659C147.281 78.9524 147.461 78.9524 147.65 78.9524C148.563 78.9254 149.481 78.9119 150.395 78.9119H150.408C151.079 78.8984 151.745 78.8984 152.415 78.8984C153.999 78.8984 155.597 78.9254 157.181 78.9524C157.235 78.9524 157.302 78.9524 157.356 78.9659H157.37C157.874 78.9794 158.369 79.0064 158.846 79.0469C159.269 79.0739 159.678 79.1144 160.074 79.1684C160.389 79.2089 160.704 79.2494 161.001 79.3034C161.249 79.3439 161.478 79.3844 161.712 79.4249C162.383 79.5464 163.022 79.6994 163.652 79.8749C163.841 79.9154 164.034 79.9694 164.21 80.0369C164.264 80.0504 164.304 80.0774 164.358 80.0909C164.619 80.1719 164.876 80.2529 165.137 80.3519C165.573 80.4869 165.983 80.6534 166.392 80.8424C166.707 80.9774 167.022 81.1169 167.319 81.2654C167.373 81.2924 167.414 81.3194 167.468 81.3464C167.643 81.4274 167.837 81.5219 167.999 81.6209C168.435 81.8549 168.858 82.0979 169.268 82.3724C169.335 82.4129 169.389 82.4534 169.457 82.4939C169.853 82.7549 170.249 83.0384 170.618 83.3264C170.793 83.4614 170.973 83.6009 171.135 83.7359C171.149 83.7494 171.176 83.7629 171.189 83.7899C171.351 83.9249 171.518 84.0644 171.666 84.2129C171.842 84.3614 172.022 84.5279 172.184 84.6899C172.431 84.9239 172.674 85.1669 172.908 85.4279C173.115 85.6619 173.318 85.8914 173.511 86.1254C173.718 86.3594 173.907 86.6024 174.083 86.8499C174.272 87.0839 174.452 87.3404 174.614 87.5879C174.789 87.8354 174.956 88.0919 175.118 88.3529C175.28 88.6139 175.433 88.8704 175.581 89.1449C175.703 89.3654 175.829 89.5814 175.95 89.8019C176.252 90.3914 176.522 90.9899 176.769 91.6064C177.017 92.1644 177.219 92.7404 177.399 93.3254C177.575 93.8969 177.741 94.4729 177.876 95.0444C177.917 95.2199 177.957 95.3999 177.998 95.5889C178.119 96.1604 178.232 96.7364 178.313 97.3214C178.574 99.0989 178.668 100.899 178.587 102.69C178.574 102.937 178.56 103.18 178.533 103.428C178.52 103.716 178.493 104.017 178.466 104.301V104.328C178.412 104.818 178.344 105.327 178.259 105.817C178.218 106.119 178.164 106.407 178.11 106.69C178.029 107.1 177.948 107.496 177.849 107.892C177.728 108.423 177.588 108.958 177.426 109.476C177.291 109.939 177.138 110.403 176.976 110.857C176.963 110.884 176.963 110.898 176.963 110.911C176.801 111.348 176.621 111.784 176.445 112.194C176.297 112.563 176.13 112.918 175.968 113.26C175.901 113.395 175.847 113.521 175.779 113.643C175.59 114.012 175.397 114.367 175.19 114.723C169.592 124.555 161.397 131.796 151.97 137.394C146.781 140.535 141.179 143.131 135.716 145.588C128.34 149.004 127.656 149.958 132.165 156.789C135.171 161.433 139.406 165.258 144.045 170.721C132.165 173.997 122.877 170.586 114.683 163.48C114.422 163.233 114.165 163.003 113.904 162.796C113.63 162.562 113.36 162.346 113.099 162.153C112.851 161.977 112.622 161.797 112.374 161.649C112.361 161.635 112.347 161.622 112.32 161.608C112.086 161.46 111.857 161.32 111.623 161.199C111.335 161.037 111.051 160.897 110.763 160.776C110.736 160.762 110.723 160.762 110.696 160.749C110.507 160.668 110.3 160.587 110.106 160.528C110.052 160.501 109.998 160.488 109.958 160.474C109.724 160.393 109.508 160.339 109.274 160.285C108.986 160.218 108.716 160.164 108.428 160.123H108.414C108.18 160.083 107.937 160.056 107.69 160.042C107.528 160.029 107.361 160.015 107.186 160.015C106.965 160.002 106.763 160.002 106.542 160.002C106.268 160.002 105.984 160.015 105.683 160.042C105.561 160.042 105.422 160.056 105.287 160.069C104.918 160.096 104.549 160.15 104.166 160.204C96.2465 161.298 87.6425 161.982 79.9925 160.339C59.7785 155.83 53.087 141.903 60.188 122.233L60.2285 122.242Z" fill="#F2F8F8"/>
<path d="M365.941 284.562C365.666 284.697 359.11 284.562 354.961 281.079C357.557 291.46 356.189 301.567 352.364 311.535C351.68 313.447 352.499 315.904 352.364 318.091C352.229 321.642 352.283 325.534 357.746 330.997C355.289 332.91 344.035 329.017 340.345 329.152C339.8 329.152 339.391 329.427 340.345 330.246C338.297 334.615 324.775 341.037 318.902 339.534C322.318 344.587 325.868 349.506 329.963 355.239C319.582 358.789 309.614 356.877 297.869 351.279C300.601 355.104 302.104 357.426 304.426 360.841C295.687 362.07 290.084 357.975 284.351 352.512C270.419 361.8 254.989 367.123 238.6 369.994C193.528 374.094 175.091 365.76 168.674 363.577C156.11 359.343 145.184 352.242 136.58 342.27C133.304 338.31 130.433 337.081 125.654 339.403C123.607 340.357 120.875 340.222 117.05 340.771C119.237 337.086 120.736 334.624 122.513 331.758H104.621C108.307 328.482 111.722 325.341 116.501 320.967C114.386 320.188 112.375 319.356 110.507 318.483C108.964 320.161 107.816 321.448 107.816 321.448C103.717 321.448 103.078 319.005 103.078 319.005C102.902 317.938 103.501 316.615 104.459 315.234C93.9022 308.65 88.5742 299.583 88.3717 286.416V285.322C88.2367 277.947 90.5587 269.068 95.2027 263.47C97.3897 260.874 100.801 259.236 102.713 256.639C104.9 253.633 106.129 248.854 107.492 245.439C96.2917 249.399 87.1432 252.54 76.7617 256.23C77.4457 253.773 87.3862 234.103 91.4317 213.552C94.1092 199.935 102.578 188.491 106.948 174.969C103.397 174.15 98.2087 172.921 93.1552 171.693C93.2902 171.283 93.2902 170.874 93.4297 170.464C95.3287 170.001 97.2277 169.524 99.1402 169.056C99.7837 168.894 100.436 168.741 101.093 168.592C102.335 168.291 103.591 168.003 104.837 167.746C104.918 167.733 104.999 167.706 105.085 167.692L106.354 167.445C106.97 167.323 107.582 167.211 108.199 167.103C108.883 166.981 109.549 166.869 110.233 166.774C112.01 166.5 114.332 168.142 116.24 169.231C126.622 174.42 136.999 176.472 148.609 170.869C143.83 165.681 139.595 161.037 135.635 156.258C131.95 152.023 131.95 149.292 138.092 146.97C154.616 140.553 169.916 132.084 179.884 116.379C179.951 116.284 180.019 116.172 180.118 116.077C180.199 115.983 180.293 115.888 180.406 115.789C180.775 115.474 181.238 115.2 181.756 114.97C181.931 114.889 182.111 114.822 182.3 114.75C182.507 114.682 182.71 114.615 182.917 114.561H182.93C183.34 114.439 183.749 114.354 184.118 114.327C191.494 113.917 198.869 113.508 206.105 113.508C213.206 113.643 220.307 114.327 227.957 114.736C233.474 112.482 229.379 105.655 229.379 98.8242C234.842 102.924 241.673 101.556 248.171 126.346C248.716 126.211 252.595 105.655 252.595 105.655C259.426 112.486 267.701 118.696 264.151 131.809C279.856 131.125 293.104 125.662 304.988 115.965C305.533 116.649 294.337 131.4 288.464 137.952C316.792 135.697 333.262 151.609 357.845 159.12C350.195 160.897 344.188 162.396 337.496 164.173C363.227 179.401 359.348 197.086 370.139 213.34C368.227 212.796 365.495 212.112 361.261 211.018C357.436 227.817 354.488 243.184 352.301 259.983C351.482 265.581 360.496 279.103 365.959 284.566L365.941 284.562Z" fill="#F2F8F8"/>
<path d="M390.731 263.078C382.141 264.361 378.523 267.367 375.679 275.575C374.968 277.622 372.02 277.352 371.705 275.206C370.423 266.615 367.417 262.997 359.209 260.153C357.161 259.442 357.431 256.495 359.578 256.18C368.168 254.897 371.786 251.891 374.63 243.683C375.341 241.636 378.289 241.906 378.604 244.052C379.886 252.643 382.892 256.261 391.1 259.105C393.148 259.816 392.878 262.763 390.731 263.078Z" fill="#F2F8F8"/>
<path d="M352.283 259.978C354.47 243.179 357.417 227.816 361.242 211.013C365.477 212.107 368.208 212.791 370.121 213.335C359.33 197.081 363.209 179.396 337.478 164.168C344.169 162.391 350.181 160.892 357.827 159.115C333.243 151.604 316.773 135.692 288.446 137.947C294.318 131.39 305.519 116.639 304.97 115.96C293.09 125.657 279.842 131.12 264.132 131.804C267.683 118.691 259.407 112.477 252.576 105.65C252.576 105.65 248.697 126.206 248.153 126.341C241.65 101.551 234.824 102.919 229.361 98.8193C229.361 105.65 233.46 112.477 227.939 114.731C220.289 114.322 213.188 113.638 206.087 113.503C198.846 113.503 191.475 113.912 184.1 114.322C183.731 114.349 183.321 114.43 182.912 114.556H182.898C182.691 114.61 182.489 114.677 182.282 114.745C182.093 114.812 181.913 114.88 181.737 114.965C181.22 115.199 180.752 115.469 180.387 115.784C180.279 115.879 180.18 115.973 180.099 116.072C180.005 116.167 179.937 116.279 179.865 116.374C169.893 132.079 154.598 140.548 138.074 146.965C131.927 149.287 131.927 152.018 135.617 156.253C139.577 161.032 143.811 165.676 148.59 170.864C136.98 176.462 126.603 174.415 116.222 169.226C114.309 168.133 111.987 166.495 110.214 166.769C109.53 166.864 108.864 166.976 108.18 167.098C107.564 167.206 106.952 167.318 106.335 167.44L105.066 167.687C104.985 167.701 104.904 167.728 104.819 167.741C103.577 168.002 102.321 168.286 101.075 168.587C100.418 168.736 99.7652 168.889 99.1217 169.051C97.2092 169.514 95.3102 169.991 93.4112 170.459C93.2762 170.869 93.2762 171.278 93.1367 171.688C98.1902 172.916 103.379 174.145 106.929 174.964C102.56 188.486 94.0907 199.93 91.4132 213.547C87.3722 234.103 77.4272 253.768 76.7432 256.225C87.1247 252.539 96.2732 249.394 107.474 245.434C106.106 248.849 104.877 253.628 102.695 256.634C100.782 259.231 97.3667 260.869 95.1842 263.465C90.5402 269.063 88.2182 277.942 88.3532 285.317V286.411C88.5602 299.578 93.8837 308.645 104.441 315.229C106.299 316.39 108.306 317.47 110.493 318.478C112.365 319.351 114.372 320.183 116.487 320.962C111.708 325.331 108.293 328.472 104.607 331.753H122.499C120.722 334.619 119.223 337.081 117.036 340.766C120.861 340.222 123.593 340.357 125.64 339.398C130.419 337.076 133.29 338.305 136.566 342.265C145.17 352.237 156.096 359.338 168.66 363.572C175.077 365.759 193.518 374.089 238.586 369.989C254.975 367.123 270.41 361.795 284.337 352.507C290.075 357.97 295.673 362.069 304.412 360.836C302.09 357.421 300.587 355.099 297.855 351.274C309.6 356.872 319.572 358.784 329.949 355.234C325.85 349.496 322.299 344.582 318.888 339.529C324.761 341.032 338.283 334.61 340.331 330.241C339.377 329.422 339.786 329.147 340.331 329.147C344.016 329.012 355.271 332.905 357.732 330.992C352.269 325.529 352.215 321.637 352.35 318.086C352.485 315.899 351.666 313.442 352.35 311.53C356.175 301.558 357.539 291.455 354.947 281.074C359.1 284.557 365.652 284.692 365.927 284.557C360.464 279.094 351.45 265.571 352.269 259.973L352.283 259.978ZM284.216 253.763C295.443 267.421 290.732 285.911 274.437 292.099C274.289 292.166 274.136 292.22 273.974 292.274C269.739 293.912 251.847 294.052 247.752 292.819C238.532 289.88 231.921 284.201 230.108 274.49V274.423C230.108 274.423 230.108 274.396 230.094 274.382C230.067 274.207 230.027 274.013 230 273.838C228.69 266.08 231.026 259.879 235.571 254.744C235.584 254.731 235.598 254.717 235.611 254.69C237.222 252.886 239.108 251.221 241.196 249.664C247.19 245.213 254.538 243.202 261.711 243.436H261.738C270.423 243.71 278.825 247.261 284.22 253.759L284.216 253.763ZM276.021 242.018C257.994 236.281 242.834 240.106 229.311 255.401C227.534 250.892 225.896 247.751 224.942 244.475C222.755 237.644 224.942 233.824 231.908 234.233C244.881 234.917 257.72 236.69 270.558 238.193C272.606 238.468 274.383 240.241 276.021 242.018ZM229.991 205.141C232.448 201.041 236.138 201.455 241.871 203.638C249.246 206.644 253.206 210.878 256.757 216.751C259.214 220.576 261.945 224.401 264.407 228.086C265.091 229.18 265.635 230.134 266.454 231.502C252.662 230.273 239.274 229.315 226.026 227.816C224.658 227.681 222.201 225.22 222.476 224.401C224.663 217.844 226.436 210.878 229.986 205.145L229.991 205.141ZM217.566 249.668C224.214 253.673 226.718 259.045 225.077 265.783C222.62 276.025 226.58 284.615 235.049 291.734C244.391 299.587 266.243 299.587 279.297 294.875C295.551 289.003 298.692 271.52 289.404 255.266C291.591 255.676 292.82 256.085 295.277 256.634C292.545 251.446 290.223 247.211 287.766 242.702C288.995 242.428 289.814 242.158 289.814 242.293C299.511 255.541 306.612 269.473 303.746 286.541C302.652 292.958 299.237 297.467 292.82 298.696C271.512 303.205 250.344 301.427 229.446 295.829C221.936 293.782 217.427 287.909 216.063 279.715C214.56 269.608 214.425 259.64 217.566 249.668ZM210.735 251.167C210.191 251.986 208.413 252.944 207.869 252.67C206.775 252.26 205.547 250.892 205.272 249.664C204.728 246.932 204.863 244.201 204.453 241.334C204.044 238.738 203.36 236.146 202.815 233.275C210.6 235.597 214.56 245.02 210.735 251.167ZM159.642 262.628C159.696 262.561 159.75 262.507 159.818 262.453C159.885 262.385 159.966 262.331 160.038 262.277C160.173 262.129 160.299 261.976 160.434 261.841C160.79 261.499 161.186 261.211 161.595 260.941C161.771 260.819 161.964 260.707 162.153 260.612C162.59 260.405 163.04 260.189 163.521 260.068C164.52 259.793 165.434 259.807 166.428 260C167.328 260.176 168.273 260.752 168.912 261.409C169.677 262.187 170.208 263.186 170.496 264.235C170.631 264.766 170.703 265.315 170.771 265.859C170.784 266.08 170.811 266.296 170.798 266.516C170.744 267.403 170.564 268.321 170.073 269.099C169.637 269.77 169.02 270.449 168.282 270.805C167.423 271.228 166.752 271.408 165.771 271.448C165.155 271.489 164.502 271.381 163.899 271.241C163.269 271.12 162.684 270.845 162.095 270.584C161.766 270.449 161.451 270.269 161.154 270.067C160.677 269.738 160.155 269.369 159.773 268.919C159.215 268.249 158.787 267.664 158.558 266.804C158.351 266.066 158.31 265.126 158.598 264.388C158.9 263.596 159.062 263.281 159.638 262.642L159.642 262.628ZM147.501 241.744C153.374 239.012 155.696 242.018 158.562 246.662C153.918 249.394 149.549 251.99 144.63 254.992C142.992 249.529 140.396 245.02 147.497 241.744H147.501ZM133.979 255.266C139.307 257.044 142.718 258.952 141.764 266.327C140.396 276.979 150.093 285.583 161.703 285.583C171.945 285.583 181.098 275.611 180.959 264.824C180.824 261.958 181.368 259.087 181.643 254.582C180.959 254.038 178.911 253.079 177.818 251.576C176.864 250.073 176.864 247.891 176.45 245.978C178.637 245.843 181.503 244.885 182.732 245.978C193.658 254.308 193.712 270.359 184.289 280.462C170.496 295.487 141.075 291.455 132.336 272.47C134.384 272.605 136.022 272.605 138.483 272.879C132.93 266.414 131.427 260.542 133.974 255.262L133.979 255.266ZM124.556 265.648C132.206 290.641 156.434 300.406 178.83 290.029C195.494 282.244 200.903 265.378 190.796 250.082C188.748 246.941 186.017 244.21 183.695 241.204C183.83 240.794 183.695 240.11 184.104 239.836C187.11 237.514 190.386 235.327 193.527 233.005C195.165 236.555 197.487 239.971 198.306 243.796C201.312 257.179 199.535 270.566 195.575 283.54C193.388 290.78 187.925 294.74 180.824 295.01C168.944 295.42 156.924 295.829 145.179 294.601C128.106 292.688 123.053 285.038 124.556 265.648ZM341.357 321.439C336.713 318.707 338.022 316.592 338.297 311.674C338.432 308.942 337.613 305.117 335.7 303.614C333.513 301.976 329.828 302.111 326.687 302.111C325.184 301.976 323.681 303.065 322.178 303.749C325.863 297.058 329.688 290.366 333.378 283.675C325.458 288.593 320.814 295.694 318.627 304.163C315.486 316.043 322.178 322.739 334.062 319.868C338.625 325.538 334.746 328.607 324.774 330.794C323.546 328.198 322.097 324.035 320.868 321.439C320.049 321.304 316.224 322.807 315.405 322.807C316.773 326.906 319.23 329.498 318.137 333.733C315.405 333.458 309.479 332.981 305.789 332.707C306.333 329.431 306.882 327.109 307.292 324.787C304.425 326.29 303.192 328.472 301.419 330.25C293.909 337.351 287.217 345.955 278.474 351.148C242.006 372.455 203.495 372.59 164.57 358.114C143.262 350.194 129.879 334.624 126.873 311.269C126.738 309.491 125.645 307.718 124.961 305.941C124.416 306.076 123.867 306.215 123.323 306.485V316.048C119.786 316.007 116.618 315.665 113.778 315.035C111.141 314.464 108.779 313.627 106.664 312.565C99.2072 308.848 94.7522 302.17 91.8587 292.9C90.6167 288.926 89.9732 284.759 90.1127 280.592C90.1532 279.323 90.3197 278.05 90.8237 276.821V276.808C91.8767 274.211 93.2537 271.727 94.9052 269.5C94.9052 269.5 94.9097 269.495 94.9187 269.486C97.2812 266.305 100.193 263.654 103.523 261.962C114.174 263.74 117.455 266.881 120.186 278.761C120.488 280.097 120.843 281.384 121.266 282.599C122.112 285.097 123.219 287.338 124.601 289.304C128.138 294.358 133.425 297.566 140.675 298.426C152.01 299.654 163.481 300.883 174.821 300.473C193.257 299.654 200.772 292.414 204.867 274.112C205.412 272.2 205.961 270.287 206.645 268.375C207.189 268.375 207.873 268.51 208.557 268.51C208.832 271.925 208.967 275.341 209.376 278.752C210.605 288.449 213.611 296.918 224.127 299.785C246.389 305.932 269.06 308.254 292.14 304.294C299.651 303.065 305.798 299.375 308.529 291.181C310.032 293.368 311.126 295.141 312.354 296.779C313.992 293.773 314.132 290.906 314.402 288.04C315.495 278.477 323.69 270.832 332.838 270.697C339.669 270.562 350.595 279.845 351.684 286.951C353.322 298.97 349.965 312.286 341.361 321.434L341.357 321.439ZM322.047 304.024C323.825 304.433 325.598 304.843 327.236 305.392C329.283 306.076 331.335 306.895 333.383 307.579C332.289 309.356 331.335 312.358 329.832 312.767C327.645 313.312 324.234 312.632 322.731 311.129C321.503 309.761 322.187 306.485 322.047 304.028V304.024Z" fill="black"/>
<path d="M156.789 311.674C158.427 321.371 161.568 331.478 172.769 336.802C194.346 347.183 216.747 348.821 239.283 340.627C248.846 337.076 254.853 329.701 257.72 320.003C224.123 313.312 190.796 309.077 156.789 311.674ZM161.703 315.494C192.024 313.307 220.842 317.132 250.34 323.414C239.279 328.603 169.349 322.595 161.703 315.494Z" fill="black"/>
<path d="M178.354 97.3302C178.273 96.7407 178.165 96.1692 178.039 95.5977C177.998 95.4087 177.958 95.2287 177.917 95.0532C177.782 94.4817 177.616 93.9057 177.44 93.3342C177.265 92.7447 177.058 92.1732 176.81 91.6152C176.563 90.9987 176.293 90.4002 175.991 89.8107C175.87 89.5902 175.744 89.3742 175.622 89.1537C175.474 88.8792 175.321 88.6227 175.159 88.3617C174.997 88.1007 174.83 87.8442 174.655 87.5967C174.493 87.3492 174.313 87.0927 174.124 86.8587C173.948 86.6112 173.755 86.3682 173.552 86.1342C173.363 85.9002 173.156 85.6707 172.949 85.4367C172.715 85.1757 172.472 84.9327 172.225 84.6987C172.063 84.5367 171.883 84.3702 171.707 84.2217C171.559 84.0732 171.392 83.9337 171.23 83.7987C171.217 83.7717 171.19 83.7582 171.176 83.7447C171.014 83.6097 170.834 83.4702 170.659 83.3352C170.29 83.0472 169.894 82.7637 169.498 82.5027C169.43 82.4622 169.376 82.4217 169.309 82.3812C168.899 82.1067 168.476 81.8637 168.04 81.6297C167.878 81.5352 167.684 81.4407 167.509 81.3552C167.455 81.3282 167.414 81.3012 167.36 81.2742C167.059 81.1257 166.744 80.9862 166.433 80.8512C166.024 80.6622 165.614 80.4957 165.178 80.3607C164.917 80.2662 164.66 80.1852 164.399 80.0997C164.345 80.0862 164.305 80.0592 164.251 80.0457C164.075 79.9782 163.882 79.9242 163.693 79.8837C163.063 79.7082 162.424 79.5552 161.753 79.4337C161.519 79.3932 161.29 79.3527 161.042 79.3122C160.741 79.2582 160.426 79.2177 160.115 79.1772C159.719 79.1232 159.31 79.0827 158.887 79.0557C158.41 79.0152 157.919 78.9882 157.411 78.9747H157.397C157.343 78.9612 157.276 78.9612 157.222 78.9612C155.638 78.9342 154.04 78.9072 152.456 78.9072C151.786 78.9072 151.12 78.9072 150.449 78.9207H150.436C149.522 78.9207 148.604 78.9342 147.691 78.9612C147.502 78.9612 147.322 78.9612 147.146 78.9747C146.039 79.0017 144.946 79.0287 143.857 79.0827H143.843C143.159 79.1097 142.493 79.1367 141.809 79.1772C141.139 79.2177 140.459 79.2582 139.775 79.2987C137.071 79.4607 134.366 79.7082 131.689 80.0232C131.018 80.0907 130.352 80.1717 129.682 80.2707C128.876 80.3652 128.057 80.4912 127.252 80.6127C126.694 80.6937 126.118 80.7747 125.56 80.8737C125.312 80.9007 125.083 80.9412 124.835 80.9817C124.097 81.1032 123.359 81.2427 122.621 81.3777C122.171 81.4587 121.735 81.5397 121.298 81.6387C120.781 81.7332 120.272 81.8277 119.768 81.9402C118.909 82.1157 118.063 82.2957 117.226 82.4982C116.789 82.5927 116.339 82.7052 115.903 82.7997C115.493 82.9077 115.084 83.0067 114.674 83.1147C114.413 83.1822 114.17 83.2497 113.909 83.3217C113.459 83.4297 113.009 83.5422 112.573 83.6772C112.559 83.6772 112.546 83.6907 112.532 83.6907C111.056 84.0867 109.58 84.5232 108.136 85.0002C107.546 85.1892 106.961 85.3692 106.39 85.5717C106.376 85.5717 106.363 85.5852 106.349 85.5852C105.584 85.8462 104.833 86.1027 104.095 86.3772C103.973 86.4177 103.847 86.4717 103.726 86.5122C103.289 86.6742 102.866 86.8407 102.443 87.0027C100.27 87.8352 98.141 88.7487 96.026 89.7477C95.549 89.9682 95.0585 90.1977 94.577 90.4317C94.1 90.6657 93.6365 90.8952 93.155 91.1427C92.6645 91.3902 92.156 91.6467 91.6655 91.9212C91.094 92.2227 90.518 92.5377 89.9465 92.8617C89.564 93.0687 89.1815 93.2847 88.799 93.5052C88.511 93.6672 88.2095 93.8472 87.926 94.0227C87.4085 94.3107 86.9 94.6257 86.396 94.9362C85.0595 95.7552 83.7185 96.6282 82.3955 97.5327C73.1075 103.95 64.229 111.325 60.269 122.251C53.168 141.916 59.8595 155.848 80.0735 160.357C87.7235 161.995 96.3275 161.311 104.248 160.222C104.63 160.168 104.999 160.114 105.368 160.087C105.503 160.074 105.643 160.06 105.764 160.06C106.066 160.033 106.354 160.02 106.624 160.02C106.844 160.02 107.047 160.02 107.267 160.033C107.443 160.033 107.609 160.047 107.771 160.06C108.019 160.074 108.262 160.101 108.496 160.141H108.509C108.797 160.182 109.067 160.236 109.355 160.303C109.589 160.357 109.805 160.411 110.039 160.492C110.08 160.506 110.134 160.519 110.188 160.546C110.377 160.6 110.584 160.681 110.777 160.767C110.804 160.78 110.818 160.78 110.845 160.794C111.133 160.915 111.416 161.055 111.704 161.217C111.938 161.338 112.168 161.478 112.402 161.626C112.429 161.64 112.442 161.653 112.456 161.667C112.703 161.815 112.933 161.995 113.18 162.171C113.441 162.36 113.711 162.58 113.986 162.814C114.247 163.021 114.503 163.251 114.764 163.498C122.959 170.599 132.247 174.015 144.127 170.739C139.483 165.276 135.248 161.451 132.247 156.807C127.738 149.976 128.422 149.022 135.797 145.606C141.26 143.149 146.858 140.553 152.051 137.412C161.474 131.814 169.669 124.573 175.271 114.741C175.478 114.385 175.667 114.03 175.861 113.661C175.928 113.539 175.982 113.413 176.05 113.278C176.212 112.936 176.378 112.581 176.527 112.212C176.702 111.802 176.882 111.366 177.044 110.929C177.044 110.916 177.044 110.902 177.058 110.875C177.22 110.425 177.373 109.962 177.508 109.494C177.67 108.976 177.809 108.441 177.931 107.91C178.025 107.514 178.106 107.118 178.192 106.708C178.246 106.42 178.3 106.137 178.34 105.835C178.421 105.345 178.489 104.836 178.547 104.346V104.319C178.574 104.031 178.601 103.729 178.615 103.446C178.642 103.198 178.655 102.955 178.669 102.708C178.75 100.917 178.655 99.1167 178.394 97.3392L178.354 97.3302ZM172.63 109.813C168.395 117.463 161.569 124.29 154.603 129.888C147.911 135.076 139.577 138.357 131.797 142.182C124.556 145.597 123.328 147.51 126.878 155.02C126.905 155.088 126.946 155.142 126.973 155.209C127.616 156.942 128.584 158.391 129.376 159.403C130.973 161.928 132.832 164.484 134.744 167.377H134.609C131.194 167.377 127.657 166.653 123.521 164.974C120.173 163.498 117.185 161.424 114.589 158.571C111.722 155.295 109.261 155.155 105.301 155.974C94.784 158.296 84.1325 159.25 74.0255 154.062C64.2605 149.049 60.575 142.546 61.718 132.444V132.43C61.8125 131.517 61.9655 130.585 62.141 129.618C62.771 126.283 63.887 123.241 65.39 120.438C67.82 115.902 71.2355 111.996 75.1145 108.445C92.1605 92.9427 111.758 85.5402 132.764 83.4117C135.334 83.1507 137.926 82.9617 140.536 82.8672C141.04 82.8402 141.562 82.8132 142.066 82.7997C144.154 82.7322 146.246 82.7187 148.334 82.7592C150.125 82.7592 151.925 82.8132 153.743 82.8942H153.757C155.944 82.9887 158.14 83.1417 160.34 83.3172C160.736 83.3442 161.119 83.3982 161.501 83.4522C172.904 85.1577 178.844 98.4462 172.634 109.813H172.63Z" fill="black"/>
<path d="M118.449 292.387C118.368 292.153 118.287 291.91 118.188 291.662C117.329 289.502 116.303 287.495 115.101 285.668V285.655C112.163 281.204 108.162 277.775 102.893 275.615C101.867 275.192 100.652 275.233 99.4505 275.273C99.4505 275.273 99.2615 275.179 99.203 275.273C98.753 275.287 98.303 275.3 97.8665 275.273C97.7855 275.818 97.691 276.38 97.6055 276.938C97.781 277.019 97.9475 277.087 98.123 277.172C99.203 277.663 100.269 278.198 101.372 278.635C107.874 281.146 112.761 285.313 114.566 292.238C114.894 293.521 113.58 295.244 113.022 296.774C111.614 295.681 109.431 294.835 108.981 293.426C108.284 291.266 108.792 288.728 108.792 286.352C108.095 286.271 107.397 286.204 106.704 286.118C106.47 289.466 105.354 293.057 106.214 296.09C107.348 300.118 109.764 304.969 115.254 302.741C119.925 300.856 119.952 296.648 118.476 292.432C118.476 292.418 118.463 292.405 118.449 292.391V292.387Z" fill="black"/>
<path d="M261.433 250.267C260.447 250.146 259.439 250.078 258.4 250.078C251.191 250.159 245.003 253.507 241.124 258.79C241.111 258.804 241.111 258.817 241.097 258.817C238.447 262.462 236.876 267.012 236.822 272.065C236.822 272.556 236.836 273.051 236.876 273.541C236.876 273.555 236.876 273.582 236.89 273.595C237.709 282.87 247.118 290.353 258.265 290.232C263.251 290.232 267.769 288.661 271.364 285.957C276.418 282.159 279.626 276.151 279.707 269.199C279.707 259.339 271.949 251.527 261.433 250.267ZM262.292 273.514C261.896 273.951 261.392 274.333 260.884 274.648C260.609 274.824 260.312 274.936 260.011 275.071C259.723 275.193 259.439 275.319 259.124 275.4C258.481 275.562 257.801 275.661 257.131 275.634C256.406 275.607 255.641 275.526 254.957 275.265C254.057 274.936 253.333 274.567 252.635 273.897C251.978 273.267 251.596 272.547 251.299 271.71C250.903 270.63 250.943 269.212 251.326 268.132C251.762 266.944 252.419 265.797 253.414 264.991C253.769 264.717 254.138 264.402 254.534 264.172C254.93 263.952 255.353 263.79 255.776 263.628C256.024 263.52 256.28 263.479 256.528 263.407C256.595 263.394 256.663 263.353 256.735 263.326C257.405 263.106 258.157 262.984 258.863 262.998C259.831 263.011 260.582 263.232 261.446 263.655C262.715 264.271 263.62 265.608 263.989 266.944C264.646 269.266 263.854 271.737 262.297 273.514H262.292Z" fill="black"/>
<path d="M154.684 85.5038C154.616 85.4633 154.549 85.4364 154.477 85.4229L154.558 85.6839C154.585 85.6299 154.625 85.5624 154.679 85.5084L154.684 85.5038Z" fill="black"/>
<path d="M88.2001 198.643C81.9181 200.187 79.4341 202.671 77.8906 208.953C77.5081 210.537 75.2941 210.537 74.9116 208.953C73.3681 202.671 70.8841 200.182 64.6021 198.643C63.0181 198.261 63.0181 196.047 64.6021 195.664C70.8841 194.121 73.3726 191.637 74.9116 185.355C75.2941 183.771 77.5081 183.771 77.8906 185.355C79.4341 191.637 81.9181 194.121 88.2001 195.664C89.7841 196.047 89.7841 198.261 88.2001 198.643Z" fill="black"/>
<path d="M390.731 263.078C382.141 264.361 378.523 267.367 375.679 275.575C374.968 277.622 372.02 277.352 371.705 275.206C370.423 266.615 367.417 262.997 359.209 260.153C357.161 259.442 357.431 256.495 359.578 256.18C368.168 254.897 371.786 251.891 374.63 243.683C375.341 241.636 378.289 241.906 378.604 244.052C379.886 252.643 382.892 256.261 391.1 259.105C393.148 259.816 392.878 262.763 390.731 263.078Z" fill="black"/>
<path d="M118.508 310.896C117.837 311.058 115.857 312.93 113.783 315.036C112.662 316.183 111.515 317.412 110.507 318.478C108.963 320.157 107.816 321.444 107.816 321.444C103.716 321.444 103.077 319 103.077 319C102.902 317.934 103.5 316.611 104.459 315.229C105.089 314.343 105.867 313.425 106.673 312.565C109.116 309.969 111.915 307.786 111.915 307.786C111.915 307.786 120.11 310.518 118.512 310.9L118.508 310.896Z" fill="black"/>
<path d="M92.1647 115.655L99.1037 113.216L109.544 133.808L102.042 137.439L98.2982 128.844L94.8242 130.428L98.2757 139.028L91.1702 142.137L82.4492 119.831L89.0237 117.513L92.5202 125.375L95.8727 123.89L92.1647 115.659V115.655Z" fill="black"/>
<path d="M119.142 129.389L111.384 132.921L102.942 111.038L109.157 107.739L119.142 129.384V129.389Z" fill="black"/>
<path d="M132.206 112.374L125.762 115.439L119.669 102.15L126.266 98.2129L132.206 112.374ZM132.966 123.345C133.902 122.918 134.559 122.067 134.942 120.794C135.284 119.565 135.23 118.445 134.771 117.441C134.343 116.505 133.641 115.952 132.656 115.776C131.774 115.641 130.806 115.812 129.753 116.294C128.817 116.721 128.232 117.509 127.994 118.665C127.782 119.75 127.917 120.821 128.394 121.874C129.29 123.84 130.815 124.331 132.966 123.35V123.345Z" fill="black"/>
<path d="M142.808 107.55L136.364 110.615L130.271 97.3262L136.868 93.3887L142.808 107.55ZM143.564 118.521C144.5 118.094 145.157 117.243 145.539 115.97C145.881 114.741 145.827 113.621 145.368 112.617C144.941 111.681 144.239 111.128 143.253 110.952C142.371 110.817 141.404 110.988 140.351 111.47C139.415 111.897 138.83 112.685 138.591 113.841C138.38 114.926 138.515 115.997 138.992 117.05C139.887 119.016 141.413 119.507 143.564 118.526V118.521Z" fill="black"/>
</svg>
