<svg width="110" height="110" viewBox="0 0 110 110" fill="none" xmlns="http://www.w3.org/2000/svg">
<path d="M22.5292 28.271L24.2254 27.6748L26.7774 32.7084L24.9437 33.5961L24.0285 31.4951L23.1793 31.8823L24.023 33.9844L22.2861 34.7445L20.1543 29.2918L21.7614 28.7253L22.6161 30.647L23.4356 30.284L22.5292 28.2721V28.271Z" fill="black"/>
<path d="M29.1236 31.628L27.2272 32.4915L25.1636 27.1422L26.6827 26.3359L29.1236 31.6269V31.628Z" fill="black"/>
<path d="M32.317 27.4695L30.7418 28.2186L29.2524 24.9703L30.865 24.0078L32.317 27.4695ZM32.5029 30.1513C32.7317 30.0468 32.8923 29.8389 32.9858 29.5276C33.0694 29.2273 33.0562 28.9534 32.944 28.7081C32.8395 28.4793 32.6679 28.344 32.427 28.3011C32.2114 28.2681 31.9749 28.3099 31.7175 28.4276C31.4887 28.5321 31.3457 28.7246 31.2874 29.0073C31.2357 29.2724 31.2687 29.5342 31.3853 29.7916C31.6042 30.2723 31.9771 30.3922 32.5029 30.1524V30.1513Z" fill="black"/>
<path d="M34.9084 26.2898L33.3332 27.0389L31.8438 23.7906L33.4564 22.8281L34.9084 26.2898ZM35.0932 28.9716C35.322 28.8671 35.4826 28.6592 35.5761 28.3479C35.6597 28.0476 35.6465 27.7737 35.5343 27.5284C35.4298 27.2996 35.2582 27.1643 35.0173 27.1214C34.8017 27.0884 34.5652 27.1302 34.3078 27.2479C34.079 27.3524 33.936 27.5449 33.8777 27.8276C33.826 28.0927 33.859 28.3545 33.9756 28.6119C34.1945 29.0926 34.5674 29.2125 35.0932 28.9727V28.9716Z" fill="black"/>
<path d="M52.6583 92.3649C46.0429 92.3649 42.6879 91.1516 41.0764 90.5686C40.9345 90.5169 40.8091 90.4718 40.6991 90.4344C37.2847 89.2838 34.4027 87.3687 32.1367 84.743L32.1147 84.7166C31.9101 84.4691 31.788 84.3701 31.7341 84.3338C31.6879 84.3437 31.5922 84.3723 31.4349 84.4482L31.4118 84.4592C30.8178 84.7364 30.2337 84.7903 29.6155 84.8464C29.3702 84.8695 29.1161 84.8926 28.8444 84.9311L25.4366 85.4173L27.0206 82.7432H21.2324C21.2324 82.7432 24.5643 79.7809 24.6094 79.7413C24.0715 79.3904 23.7305 78.891 23.5996 78.3938L23.5809 78.3201L23.5688 78.2453C23.5369 78.055 23.5303 77.8647 23.5468 77.6711C21.1807 75.7956 20.0015 73.2843 19.9509 70.0338V69.7555C19.919 67.8866 20.4415 65.2257 22.0002 63.3458L22.0079 63.3359C22.0497 63.2864 22.0926 63.238 22.1355 63.1918C21.2049 63.5174 20.2864 63.8397 19.3162 64.184L16.3242 65.2466L17.1745 62.1875C17.2383 61.9565 17.3461 61.7046 17.6486 61.0094C18.4098 59.2615 19.9938 55.6238 20.7308 51.8772C21.1466 49.7619 22.053 47.8919 22.9286 46.0835C23.2817 45.3553 23.6238 44.6491 23.9307 43.9385C23.4137 43.8153 22.8824 43.6877 22.3808 43.5656L20.6384 43.1421L21.1818 41.513C21.1961 41.4294 21.2214 41.2952 21.272 41.1412L21.5602 40.2766L22.4457 40.0599C22.6503 40.0104 22.8538 39.9598 23.0584 39.9092C23.3169 39.8454 23.5754 39.7816 23.835 39.7178C23.9989 39.676 24.1661 39.6375 24.3333 39.599C24.6677 39.5187 24.9867 39.4461 25.2815 39.3845C25.3145 39.3768 25.3475 39.3691 25.3805 39.3636L25.683 39.3053C25.8348 39.2745 25.9965 39.2459 26.1593 39.2173C26.3507 39.1832 26.5322 39.1535 26.7093 39.1282C26.8193 39.1117 26.9315 39.104 27.0448 39.104C27.8456 39.104 28.5298 39.5121 29.0281 39.8091C29.0842 39.8432 29.1403 39.8762 29.1942 39.907C30.5989 40.6044 31.7803 40.9289 32.9078 40.9289C33.0475 40.9289 33.1861 40.9234 33.3247 40.9135C32.8341 40.3624 32.3567 39.8124 31.8969 39.258C31.5658 38.8774 30.6253 37.7752 30.9597 36.4464C31.3018 35.089 32.6955 34.5555 33.1641 34.3784C36.5015 33.0815 40.2294 31.2566 42.5768 27.5562L42.601 27.5188L42.6274 27.4825C42.6692 27.422 42.7275 27.3417 42.81 27.2526C42.8716 27.1844 42.9376 27.1195 43.0091 27.0568L43.0278 27.0403C43.2313 26.8665 43.4733 26.7169 43.7461 26.5937C43.8484 26.5475 43.9375 26.5134 44.0046 26.4892L44.0409 26.4771C44.1058 26.4551 44.1905 26.4276 44.2873 26.4012L44.4963 26.3462H44.515C44.6393 26.3209 44.7636 26.3033 44.8835 26.2945L44.9132 26.2923C46.7073 26.1922 48.5619 26.0899 50.3802 26.0899H50.4121C51.5594 26.1119 52.6704 26.1878 53.8474 26.2681C54.129 26.2868 54.4139 26.3066 54.7021 26.3253C54.6834 26.2186 54.6625 26.1141 54.6449 26.0228C54.5382 25.4684 54.4183 24.8403 54.4183 24.1506V20.8506L57.0583 22.8306C57.2112 22.945 57.4114 23.0517 57.6424 23.1749C58.5301 23.649 59.3694 24.1935 60.1592 25.321L60.7026 22.4445L62.9114 24.6533C63.0709 24.8128 63.2337 24.9712 63.3976 25.1296C64.6505 26.3462 66.2653 27.9137 66.4182 30.3645C68.9944 29.9311 71.3286 28.8421 73.5088 27.0623L74.8002 26.0085L75.8408 27.3098C76.107 27.6431 76.4722 28.3504 75.9211 29.3503C75.8331 29.5098 75.711 29.7045 75.5482 29.9476C75.2798 30.3469 74.8959 30.8782 74.4383 31.4843C74.2733 31.7021 74.1061 31.9221 73.9367 32.141C77.2235 32.5425 79.9229 33.824 82.5486 35.0714C84.2591 35.8843 86.0279 36.7236 87.9551 37.3132L93.8313 39.1084L87.8451 40.4977C87.294 40.6253 86.7726 40.7496 86.2633 40.8717C88.614 43.0849 89.4412 45.4246 90.1936 47.5509C90.6534 48.8522 91.0879 50.0809 91.8513 51.2315L94.3263 54.9594L90.0231 53.7307C89.8867 53.6922 89.7294 53.6493 89.5457 53.6009C88.7394 57.3035 88.1773 60.4902 87.7538 63.7462C87.7912 64.4898 89.3191 67.0869 90.6215 68.3882L92.2407 70.0074L90.1925 71.0315C89.8691 71.1932 89.5688 71.2141 89.3422 71.2141C89.2773 71.2141 89.0595 71.2108 88.7482 71.1756C88.7735 72.9334 88.4314 74.7374 87.7197 76.6294C87.7219 76.7086 87.7362 76.8428 87.7461 76.9374C87.7714 77.186 87.8033 77.4951 87.7846 77.8317C87.7604 78.4554 87.7527 78.8734 88.6184 79.7402L89.9395 81.0613L88.4644 82.2086C88.0519 82.5298 87.5316 82.686 86.8727 82.686C86.1533 82.686 85.2964 82.5034 84.4681 82.3274C84.3559 82.3032 84.2294 82.2768 84.0996 82.2493C83.3285 83.0523 82.0723 83.7695 80.8205 84.2172C81.0625 84.5571 81.3122 84.9058 81.5729 85.271L83.2911 87.6767L81.1945 88.3939C80.1561 88.7492 79.1287 88.9219 78.054 88.9219C77.6591 88.9219 77.2598 88.8988 76.8539 88.8504L77.273 89.4664L74.6473 89.836C74.3184 89.8822 73.9917 89.9053 73.6749 89.9053C71.8819 89.9053 70.5146 89.1694 69.3431 88.2223C66.2367 90.0857 62.7112 91.3463 58.6093 92.0635L58.5422 92.0756L58.474 92.0822C56.4313 92.2681 54.4755 92.3616 52.6594 92.3616L52.6583 92.3649Z" fill="#F2F8F8"/>
<path d="M33.0771 43.689C30.887 43.689 28.8872 42.8783 26.9622 41.2107L26.9347 41.1876L26.9083 41.1623C26.861 41.1172 26.8379 41.0985 26.8302 41.0919L26.8071 41.0732L26.784 41.0534C26.7345 41.0116 26.7004 40.9841 26.6784 40.9687C26.6784 40.9687 26.619 40.9258 26.6069 40.917L26.4991 40.8521L26.4749 40.8389C26.4749 40.8389 26.4661 40.8345 26.4518 40.8268C26.443 40.8235 26.4353 40.8202 26.4265 40.8158L26.3231 40.7861L26.3154 40.7828L26.2351 40.7685L26.1834 40.7652H26.157L26.1053 40.7619C26.0987 40.7619 26.0635 40.7619 26.0514 40.7619C26.0393 40.7619 26.0195 40.7619 25.9898 40.7652L25.915 40.7718H25.8919L25.8644 40.774C25.838 40.7762 25.7775 40.785 25.7247 40.7927L25.7016 40.796C24.2694 40.9929 23.1155 41.0853 22.0606 41.0853C21.0112 41.0853 20.0795 40.9951 19.2138 40.8092L19.2006 40.8059C16.3494 40.1701 14.3518 38.8435 13.2628 36.8613C12.1496 34.8362 12.1166 32.2281 13.1671 29.3208C14.3078 26.1726 16.8521 24.0969 19.1896 22.481L19.1995 22.4744C19.5691 22.2225 19.9101 22.0025 20.239 21.8001C20.3611 21.7242 20.4975 21.6395 20.6449 21.557C20.7208 21.5108 20.7989 21.4646 20.8737 21.4217L20.8858 21.4151C20.9815 21.3601 21.0783 21.3051 21.174 21.2534C21.3192 21.1709 21.4666 21.0906 21.6107 21.0136C21.7592 20.9311 21.9011 20.8596 22.0111 20.8046C22.1365 20.7408 22.2586 20.6792 22.384 20.6187C22.5094 20.5582 22.6381 20.4966 22.7646 20.4394C23.3223 20.1765 23.8855 19.9367 24.4366 19.7244C24.5411 19.6837 24.65 19.6419 24.7622 19.6001L24.7974 19.5869C24.8249 19.577 24.8491 19.5671 24.8733 19.5583C25.0372 19.4978 25.1967 19.4417 25.3485 19.39L25.5971 19.2657H25.7203C25.7434 19.258 25.9084 19.2052 25.9084 19.2052C26.2241 19.1007 26.5607 18.9995 26.9072 18.9038L27.1107 18.8026H27.2757C27.3274 18.7883 27.3769 18.7762 27.4242 18.7652L27.5991 18.7179C27.6508 18.7036 27.7102 18.6893 27.7685 18.675C27.8103 18.6651 27.851 18.6541 27.8928 18.6431L27.9291 18.6332L27.9665 18.6255C28.0149 18.6156 28.0633 18.6035 28.1117 18.5925C28.1645 18.5804 28.2162 18.5683 28.2679 18.5573C28.4901 18.5034 28.7046 18.4583 28.9224 18.4132C29.0511 18.3857 29.1809 18.3604 29.3129 18.3362C29.4295 18.3109 29.5461 18.2889 29.6671 18.2669C29.8519 18.2328 30.0422 18.1976 30.2314 18.1657L30.2457 18.1635C30.3117 18.1525 30.3755 18.1415 30.4415 18.1338C30.5603 18.114 30.6813 18.0964 30.8012 18.0788L30.854 18.0711C31.0564 18.0403 31.2621 18.0095 31.4733 17.9842C31.6482 17.9589 31.8253 17.938 31.998 17.9204C32.6921 17.839 33.384 17.7774 34.0539 17.7367L34.55 17.707C34.7315 17.696 34.9053 17.6894 35.0835 17.6817H35.0923C35.364 17.6685 35.628 17.6608 35.8843 17.6553C35.9547 17.6509 36.0163 17.6509 36.0658 17.6509C36.2924 17.6443 36.5223 17.641 36.7478 17.641C36.9172 17.6377 37.0855 17.6377 37.2549 17.6377C37.6564 17.6377 38.0535 17.6443 38.4374 17.6509C38.477 17.6509 38.5254 17.652 38.5793 17.6564C38.7047 17.6608 38.8301 17.6685 38.9511 17.6784C39.0886 17.6872 39.2228 17.7015 39.3526 17.7191C39.434 17.7301 39.5297 17.7422 39.6364 17.7609C39.6991 17.7708 39.7585 17.7818 39.8179 17.7928C40.0258 17.8313 40.2172 17.8753 40.4097 17.9281C40.5032 17.9501 40.5934 17.9776 40.6803 18.0084C40.6924 18.0128 40.7045 18.0172 40.7177 18.0216C40.7771 18.0403 40.8376 18.0601 40.897 18.0821C41.0477 18.1316 41.1962 18.1888 41.3491 18.2592C41.4382 18.2977 41.5339 18.3395 41.6384 18.3923C41.656 18.4011 41.6725 18.4099 41.6868 18.4176C41.7495 18.4473 41.8089 18.4792 41.865 18.5111C42.0124 18.5903 42.1455 18.6695 42.2709 18.752C42.2786 18.7575 42.3292 18.7894 42.3292 18.7894C42.4579 18.8741 42.5899 18.9687 42.7208 19.0699C42.7725 19.1095 42.8297 19.1535 42.8825 19.1986C42.8924 19.2074 42.9485 19.2536 42.9485 19.2536L42.965 19.2701C42.998 19.2987 43.0365 19.3317 43.0772 19.3702C43.1333 19.4186 43.1883 19.4703 43.2411 19.522C43.3357 19.6122 43.4204 19.6991 43.4985 19.786L43.5062 19.7948C43.5634 19.8597 43.6195 19.9235 43.6723 19.9873C43.7383 20.0632 43.8021 20.1435 43.8659 20.2304C43.9352 20.3184 43.9935 20.402 44.0441 20.4768C44.1079 20.567 44.1596 20.6495 44.2036 20.7177C44.2597 20.8057 44.3114 20.8948 44.3653 20.9927L44.4676 21.1742L44.483 21.2039C44.5754 21.3843 44.6601 21.5702 44.736 21.7583C44.8141 21.9398 44.8834 22.1279 44.945 22.3336C45.0033 22.5239 45.0506 22.6944 45.0891 22.855L45.0924 22.8671C45.1056 22.9243 45.1166 22.9727 45.1276 23.0255C45.1705 23.2246 45.2013 23.3973 45.2255 23.5667C45.3036 24.098 45.3311 24.6458 45.3069 25.1826V25.198C45.3025 25.2596 45.2981 25.3333 45.2904 25.4158C45.2871 25.4686 45.2827 25.5225 45.2783 25.5753V25.5907L45.2684 25.6875C45.2519 25.8349 45.2321 25.9801 45.2101 26.1187C45.1947 26.2243 45.1771 26.3167 45.1628 26.3915L45.1595 26.4069C45.1353 26.5257 45.1111 26.6412 45.0836 26.7556C45.0418 26.9371 44.9989 27.0966 44.9527 27.244C44.9395 27.2902 44.9252 27.3364 44.9109 27.3815V27.4134L44.8064 27.6939C44.7602 27.8171 44.7096 27.9436 44.6557 28.0679C44.6018 28.1999 44.5468 28.3154 44.5061 28.4023L44.4874 28.4397C44.4676 28.4793 44.4489 28.5178 44.428 28.5563C44.3675 28.674 44.3125 28.7741 44.2564 28.8709C42.8605 31.3228 40.8123 33.3314 37.9996 35.0034C36.6444 35.8229 35.2133 36.4851 33.8636 37.0923C33.7547 37.1429 33.6557 37.1891 33.5655 37.2331C33.6018 37.2903 33.6425 37.3519 33.6876 37.4201L33.6953 37.4322C34.0913 38.0438 34.6325 38.6312 35.2595 39.311C35.628 39.7103 36.0449 40.1635 36.4717 40.6651L38.147 42.6363L35.6533 43.3238C34.7744 43.5669 33.9054 43.689 33.0705 43.689H33.0771Z" fill="#F2F8F8"/>
<path d="M18.6757 53.0183C17.7374 53.0183 16.9289 52.3792 16.7078 51.4651C16.4801 50.5367 16.3327 50.3893 15.3977 50.1594C14.4902 49.9405 13.8511 49.1309 13.8511 48.1937C13.8511 47.2554 14.4891 46.4469 15.4043 46.2258C16.3327 45.997 16.4801 45.8507 16.71 44.9157C16.9289 44.0082 17.7385 43.3691 18.6768 43.3691C19.6151 43.3691 20.4236 44.0082 20.6447 44.9223C20.8724 45.8507 21.0198 45.9981 21.9548 46.228C22.8634 46.4469 23.5014 47.2565 23.5014 48.1948C23.5014 49.1331 22.8623 49.9416 21.9482 50.1627C21.0198 50.3904 20.8724 50.5378 20.6425 51.4728C20.4236 52.3803 19.614 53.0194 18.6757 53.0194V53.0183Z" fill="#F2F8F8"/>
<path d="M91.3597 69.355C90.2817 69.355 89.3852 68.5795 89.229 67.5125C89.0068 66.0231 88.6944 65.648 87.2677 65.153C86.325 64.8263 85.7321 63.9067 85.8256 62.9156C85.9191 61.9256 86.6726 61.1336 87.6582 60.9895C89.1476 60.7673 89.5238 60.4549 90.0177 59.0282C90.3235 58.146 91.121 57.5762 92.0505 57.5762C93.1285 57.5762 94.025 58.3506 94.1812 59.4187C94.4034 60.9081 94.7158 61.2832 96.1425 61.7782C97.0852 62.1049 97.6781 63.0245 97.5846 64.0156C97.4911 65.0056 96.7376 65.7976 95.752 65.9417C94.2626 66.1639 93.8864 66.4763 93.3925 67.903C93.0867 68.7852 92.2892 69.355 91.3597 69.355Z" fill="#F2F8F8"/>
<path d="M18.3115 51.0774C17.9342 49.5418 17.327 48.9335 15.7914 48.5573C15.4042 48.4638 15.4042 47.9226 15.7914 47.8291C17.327 47.4518 17.9353 46.8446 18.3115 45.309C18.405 44.9218 18.9462 44.9218 19.0397 45.309C19.417 46.8446 20.0242 47.4518 21.5598 47.8291C21.947 47.9226 21.947 48.4638 21.5598 48.5573C20.0242 48.9346 19.417 49.5418 19.0397 51.0774C18.9462 51.4646 18.405 51.4646 18.3115 51.0774Z" fill="#F2F8F8"/>
<path d="M14.7223 29.8813C15.6903 27.2105 17.8606 25.4076 20.131 23.839C20.4544 23.619 20.7822 23.4045 21.1089 23.2043C21.2321 23.1273 21.3564 23.0503 21.4829 22.981C21.5533 22.9381 21.627 22.8941 21.6963 22.8545C21.7898 22.8006 21.8833 22.7478 21.9768 22.6972C22.1165 22.6169 22.2573 22.5399 22.397 22.4673C22.5169 22.4002 22.6412 22.3375 22.7611 22.277C22.8777 22.2165 22.991 22.1604 23.1087 22.1032C23.2253 22.046 23.3452 21.9899 23.4629 21.936C23.9799 21.6918 24.5013 21.4685 25.0315 21.265C25.1349 21.2254 25.2383 21.1847 25.345 21.1451C25.3747 21.1352 25.4055 21.122 25.4352 21.1121C25.6156 21.045 25.7993 20.9823 25.9863 20.9185C25.9896 20.9185 25.9929 20.9152 25.9962 20.9152C26.1359 20.8646 26.28 20.8217 26.423 20.7755C26.7772 20.6589 27.138 20.5522 27.4977 20.4554C27.501 20.4554 27.5043 20.4521 27.5076 20.4521C27.6143 20.4191 27.7243 20.3916 27.8343 20.3652C27.8981 20.3487 27.9575 20.3322 28.0213 20.3146C28.1214 20.2882 28.2215 20.264 28.3216 20.2376C28.4283 20.2145 28.5383 20.187 28.645 20.1639C28.8485 20.1133 29.0553 20.0704 29.2665 20.0275C29.3897 20.0011 29.514 19.9769 29.6405 19.9538C29.7472 19.9307 29.8539 19.9109 29.9639 19.89C30.1443 19.857 30.3247 19.8229 30.5051 19.7932C30.5656 19.7833 30.6217 19.7734 30.6822 19.7668C30.8186 19.7437 30.9594 19.7239 31.0958 19.703C31.2927 19.6733 31.4929 19.6425 31.6898 19.6194C31.8537 19.5963 32.0165 19.5765 32.1804 19.5589C32.8349 19.4819 33.496 19.4225 34.1571 19.3818C34.3243 19.3719 34.4915 19.362 34.6543 19.3521C34.8215 19.3422 34.9843 19.3356 35.1515 19.329H35.1548C35.4221 19.3158 35.6894 19.3092 35.9589 19.3026C36.0018 19.2993 36.0458 19.2993 36.092 19.2993C36.3153 19.2927 36.5397 19.2894 36.763 19.2894H36.7663C36.9302 19.2861 37.093 19.2861 37.2569 19.2861C37.6441 19.2861 38.0346 19.2927 38.4218 19.2993C38.435 19.2993 38.4515 19.2993 38.4647 19.3026H38.468C38.5912 19.3059 38.7122 19.3125 38.8288 19.3224C38.9322 19.329 39.0323 19.3389 39.1291 19.3521C39.2061 19.362 39.2831 19.3719 39.3557 19.3851C39.4162 19.395 39.4723 19.4049 39.5295 19.4148C39.6934 19.4445 39.8496 19.4819 40.0036 19.5248C40.0498 19.5347 40.0971 19.5479 40.14 19.5644C40.1532 19.5677 40.1631 19.5743 40.1763 19.5776C40.2401 19.5974 40.3028 19.6172 40.3666 19.6414C40.4733 19.6744 40.5734 19.7151 40.6735 19.7613C40.7505 19.7943 40.8275 19.8284 40.9001 19.8647C40.9133 19.8713 40.9232 19.8779 40.9364 19.8845C40.9793 19.9043 41.0266 19.9274 41.0662 19.9516C41.1729 20.0088 41.2763 20.0682 41.3764 20.1353C41.3929 20.1452 41.4061 20.1551 41.4226 20.165C41.5194 20.2288 41.6162 20.2981 41.7064 20.3685C41.7493 20.4015 41.7933 20.4356 41.8329 20.4686C41.8362 20.4719 41.8428 20.4752 41.8461 20.4818C41.8857 20.5148 41.9264 20.5489 41.9627 20.5852C42.0056 20.6215 42.0496 20.6622 42.0892 20.7018C42.1497 20.759 42.2091 20.8184 42.2663 20.8822C42.3169 20.9394 42.3664 20.9955 42.4137 21.0527C42.4643 21.1099 42.5105 21.1693 42.5534 21.2298C42.5996 21.287 42.6436 21.3497 42.6832 21.4102C42.7261 21.4707 42.7668 21.5334 42.8064 21.5972C42.846 21.661 42.8834 21.7237 42.9197 21.7908C42.9494 21.8447 42.9802 21.8975 43.0099 21.9514C43.0836 22.0955 43.1496 22.2418 43.2101 22.3925C43.2706 22.5289 43.3201 22.6697 43.3641 22.8127C43.407 22.9524 43.4477 23.0932 43.4807 23.2329C43.4906 23.2758 43.5005 23.3198 43.5104 23.366C43.5401 23.5057 43.5676 23.6465 43.5874 23.7895C43.6512 24.224 43.6743 24.664 43.6545 25.1018C43.6512 25.1623 43.6479 25.2217 43.6413 25.2822C43.638 25.3526 43.6314 25.4263 43.6248 25.4956V25.5022C43.6116 25.6221 43.5951 25.7464 43.5742 25.8663C43.5643 25.94 43.5511 26.0104 43.5379 26.0797C43.5181 26.1798 43.4983 26.2766 43.4741 26.3734C43.4444 26.5032 43.4103 26.6341 43.3707 26.7606C43.3377 26.8739 43.3003 26.9872 43.2607 27.0983C43.2574 27.1049 43.2574 27.1082 43.2574 27.1115C43.2178 27.2182 43.1738 27.3249 43.1309 27.425C43.0946 27.5152 43.0539 27.6021 43.0143 27.6857C42.9978 27.7187 42.9846 27.7495 42.9681 27.7792C42.9219 27.8694 42.8746 27.9563 42.824 28.0432C41.4556 30.4467 39.4525 32.2166 37.148 33.585C35.8797 34.3528 34.5102 34.9875 33.1748 35.5881C31.3719 36.423 31.2047 36.6562 32.3069 38.326C33.0417 39.4612 34.0768 40.3962 35.2109 41.7316C32.3069 42.5324 30.0365 41.6986 28.0334 39.9617C27.9696 39.9012 27.9069 39.8451 27.8431 39.7945C27.776 39.7373 27.71 39.6845 27.6462 39.6372C27.5857 39.5943 27.5296 39.5503 27.4691 39.514C27.4658 39.5107 27.4625 39.5074 27.4559 39.5041C27.3987 39.4678 27.3426 39.4337 27.2854 39.404C27.215 39.3644 27.1457 39.3303 27.0753 39.3006C27.0687 39.2973 27.0654 39.2973 27.0588 39.294C27.0126 39.2742 26.962 39.2544 26.9147 39.2401C26.9015 39.2335 26.8883 39.2302 26.8784 39.2269C26.8212 39.2071 26.7684 39.1939 26.7112 39.1807C26.6408 39.1642 26.5748 39.151 26.5044 39.1411H26.5011C26.4439 39.1312 26.3845 39.1246 26.324 39.1213C26.2844 39.118 26.2437 39.1147 26.2008 39.1147C26.1469 39.1114 26.0974 39.1114 26.0435 39.1114C25.9764 39.1114 25.9071 39.1147 25.8334 39.1213C25.8037 39.1213 25.7696 39.1246 25.7366 39.1279C25.6464 39.1345 25.5562 39.1477 25.4627 39.1609C23.5267 39.4282 21.4235 39.5954 19.5535 39.1939C14.6123 38.0917 12.9766 34.6872 14.7124 29.8791L14.7223 29.8813Z" fill="#F2F8F8"/>
<path d="M89.4519 69.5597C89.3848 69.5927 87.7821 69.5597 86.7679 68.7083C87.4026 71.246 87.0682 73.7166 86.1332 76.1531C85.966 76.6206 86.1662 77.2212 86.1332 77.7558C86.1002 78.6237 86.1134 79.5752 87.4488 80.9106C86.8482 81.3781 84.0971 80.4266 83.1951 80.4596C83.062 80.4596 82.9619 80.5267 83.1951 80.7269C82.6946 81.795 79.3891 83.3647 77.9536 82.9973C78.7885 84.2326 79.6564 85.4349 80.6574 86.8363C78.1197 87.7042 75.6832 87.2367 72.8122 85.8683C73.4799 86.8033 73.8473 87.3709 74.4149 88.2058C72.2787 88.5061 70.9092 87.5051 69.5078 86.1697C66.1022 88.4401 62.3303 89.7414 58.3241 90.4432C47.3065 91.4453 42.7998 89.4081 41.2312 88.8746C38.16 87.8395 35.4892 86.1037 33.386 83.6661C32.5852 82.6981 31.8834 82.3978 30.7152 82.9654C30.2147 83.1986 29.547 83.1656 28.612 83.2998C29.1466 82.3989 29.5129 81.7972 29.9474 81.0965H25.5738C26.4747 80.2957 27.3096 79.5279 28.4778 78.4587C27.9608 78.2684 27.4691 78.0649 27.0126 77.8515C26.6353 78.2618 26.3548 78.5764 26.3548 78.5764C25.3527 78.5764 25.1965 77.9791 25.1965 77.9791C25.1536 77.7184 25.2999 77.395 25.5342 77.0573C22.9536 75.448 21.6512 73.2315 21.6017 70.0129V69.7456C21.5687 67.9427 22.1363 65.7724 23.2715 64.404C23.8061 63.7693 24.6399 63.3689 25.1074 62.7342C25.642 61.9994 25.9423 60.8312 26.2756 59.9963C23.5377 60.9643 21.3014 61.7321 18.7637 62.6341C18.9309 62.0335 21.3608 57.2254 22.3497 52.2017C23.0042 48.8731 25.0744 46.0758 26.1425 42.7703C25.2746 42.5701 24.0063 42.2698 22.771 41.9695C22.804 41.8694 22.804 41.7693 22.8381 41.6692C23.3023 41.5559 23.7665 41.4393 24.234 41.3249C24.3913 41.2853 24.5508 41.2479 24.7114 41.2116C25.015 41.1379 25.3219 41.0675 25.6266 41.0048C25.6464 41.0015 25.6662 40.9949 25.6871 40.9916L25.9973 40.9311C26.148 40.9014 26.2976 40.8739 26.4483 40.8475C26.6155 40.8178 26.7783 40.7903 26.9455 40.7672C27.38 40.7001 27.9476 41.1016 28.414 41.3678C30.9517 42.6361 33.4883 43.1377 36.3263 41.7682C35.1581 40.4999 34.123 39.3647 33.155 38.1965C32.2541 37.1614 32.2541 36.4937 33.7556 35.9261C37.7948 34.3575 41.5348 32.2873 43.9713 28.4483C43.9878 28.4252 44.0043 28.3977 44.0285 28.3746C44.0483 28.3515 44.0714 28.3284 44.0989 28.3042C44.1891 28.2272 44.3024 28.1601 44.4289 28.104C44.4718 28.0842 44.5158 28.0677 44.562 28.0501C44.6126 28.0336 44.6621 28.0171 44.7127 28.0039H44.716C44.8161 27.9742 44.9162 27.9533 45.0064 27.9467C46.8093 27.8466 48.6122 27.7465 50.381 27.7465C52.1168 27.7795 53.8526 27.9467 55.7226 28.0468C57.0712 27.4957 56.0702 25.827 56.0702 24.1572C57.4056 25.1593 59.0754 24.8249 60.6638 30.8848C60.7969 30.8518 61.7451 25.827 61.7451 25.827C63.4149 27.4968 65.4378 29.0148 64.5699 32.2202C68.4089 32.053 71.6473 30.7176 74.5524 28.3471C74.6855 28.5143 71.9487 32.1201 70.5132 33.7217C77.4377 33.1706 81.4637 37.0602 87.473 38.8961C85.603 39.3306 84.1345 39.6969 82.4988 40.1314C88.7886 43.8538 87.8404 48.1768 90.4782 52.15C90.0107 52.0169 89.343 51.8497 88.3079 51.5824C87.3729 55.6887 86.6524 59.4452 86.1178 63.5515C85.9176 64.9199 88.1209 68.2254 89.4563 69.5608L89.4519 69.5597Z" fill="#F2F8F8"/>
<path d="M95.5119 64.3082C93.412 64.6217 92.5276 65.3565 91.8324 67.3629C91.6586 67.8634 90.9381 67.7974 90.8611 67.2727C90.5476 65.1728 89.8128 64.2884 87.8064 63.5932C87.3059 63.4194 87.3719 62.6989 87.8966 62.6219C89.9965 62.3084 90.8809 61.5736 91.5761 59.5672C91.7499 59.0667 92.4704 59.1327 92.5474 59.6574C92.8609 61.7573 93.5957 62.6417 95.6021 63.3369C96.1026 63.5107 96.0366 64.2312 95.5119 64.3082Z" fill="#F2F8F8"/>
<path d="M86.1134 63.5496C86.648 59.4433 87.3685 55.6879 88.3035 51.5805C89.3386 51.8478 90.0063 52.015 90.4738 52.1481C87.836 48.1749 88.7842 43.8519 82.4944 40.1295C84.1301 39.695 85.5997 39.3287 87.4686 38.8942C81.4593 37.0583 77.4333 33.1687 70.5088 33.7198C71.9443 32.1171 74.6822 28.5113 74.548 28.3452C71.644 30.7157 68.4056 32.0511 64.5655 32.2183C65.4334 29.0129 63.4105 27.4938 61.7407 25.8251C61.7407 25.8251 60.7925 30.8499 60.6594 30.8829C59.0699 24.823 57.4012 25.1574 56.0658 24.1553C56.0658 25.8251 57.0679 27.4938 55.7182 28.0449C53.8482 27.9448 52.1124 27.7776 50.3766 27.7446C48.6067 27.7446 46.8049 27.8447 45.002 27.9448C44.9118 27.9514 44.8117 27.9712 44.7116 28.002H44.7083C44.6577 28.0152 44.6082 28.0317 44.5576 28.0482C44.5114 28.0647 44.4674 28.0812 44.4245 28.1021C44.298 28.1593 44.1836 28.2253 44.0945 28.3023C44.0681 28.3254 44.0439 28.3485 44.0241 28.3727C44.001 28.3958 43.9845 28.4233 43.9669 28.4464C41.5293 32.2854 37.7904 34.3556 33.7512 35.9242C32.2486 36.4918 32.2486 37.1595 33.1506 38.1946C34.1186 39.3628 35.1537 40.498 36.3219 41.7663C33.4839 43.1347 30.9473 42.6342 28.4096 41.3659C27.9421 41.0986 27.3745 40.6982 26.9411 40.7653C26.7739 40.7884 26.6111 40.8159 26.4439 40.8456C26.2932 40.872 26.1436 40.8995 25.9929 40.9292L25.6827 40.9897C25.6629 40.993 25.6431 40.9996 25.6222 41.0029C25.3186 41.0667 25.0117 41.136 24.707 41.2097C24.5464 41.246 24.3869 41.2834 24.2296 41.323C23.7621 41.4363 23.2979 41.5529 22.8337 41.6673C22.8007 41.7674 22.8007 41.8675 22.7666 41.9676C24.0019 42.2679 25.2702 42.5682 26.1381 42.7684C25.07 46.0739 22.9998 48.8712 22.3453 52.1998C21.3575 57.2246 18.9265 62.0316 18.7593 62.6322C21.297 61.7313 23.5333 60.9624 26.2712 59.9944C25.9368 60.8293 25.6365 61.9975 25.103 62.7323C24.6355 63.367 23.8006 63.7674 23.2671 64.4021C22.1319 65.7705 21.5643 67.9408 21.5973 69.7437V70.011C21.6479 73.2296 22.9492 75.4461 25.5298 77.0554C25.9841 77.3392 26.4747 77.6032 27.0093 77.8496C27.4669 78.063 27.9575 78.2665 28.4745 78.4568C27.3063 79.5249 26.4714 80.2927 25.5705 81.0946H29.9441C29.5096 81.7953 29.1433 82.397 28.6087 83.2979C29.5437 83.1648 30.2114 83.1978 30.7119 82.9635C31.8801 82.3959 32.5819 82.6962 33.3827 83.6642C35.4859 86.1018 38.1567 87.8376 41.2279 88.8727C42.7965 89.4073 47.3043 91.4434 58.3208 90.4413C62.327 89.7406 66.1 88.4382 69.5045 86.1678C70.907 87.5032 72.2754 88.5053 74.4116 88.2039C73.844 87.369 73.4766 86.8014 72.8089 85.8664C75.6799 87.2348 78.1175 87.7023 80.6541 86.8344C79.652 85.4319 78.7841 84.2307 77.9503 82.9954C79.3858 83.3628 82.6913 81.7931 83.1918 80.725C82.9586 80.5248 83.0587 80.4577 83.1918 80.4577C84.0927 80.4247 86.8438 81.3762 87.4455 80.9087C86.1101 79.5733 86.0969 78.6218 86.1299 77.7539C86.1629 77.2193 85.9627 76.6187 86.1299 76.1512C87.0649 73.7136 87.3982 71.2441 86.7646 68.7064C87.7799 69.5578 89.3815 69.5908 89.4486 69.5578C88.1132 68.2224 85.9099 64.9169 86.1101 63.5485L86.1134 63.5496ZM69.4748 62.0305C72.2193 65.369 71.0676 69.8889 67.0845 71.4014C67.0482 71.4179 67.0108 71.4311 66.9712 71.4443C65.9361 71.8447 61.5625 71.8788 60.5615 71.5774C58.3076 70.8591 56.6917 69.4709 56.2484 67.0971V67.0806C56.2484 67.0806 56.2484 67.074 56.2451 67.0707C56.2385 67.0278 56.2286 66.9805 56.222 66.9376C55.9019 65.0412 56.4728 63.5254 57.5838 62.2703C57.5871 62.267 57.5904 62.2637 57.5937 62.2571C57.9875 61.816 58.4484 61.409 58.9588 61.0284C60.424 59.9405 62.2203 59.4488 63.9737 59.506H63.9803C66.1033 59.5731 68.157 60.441 69.4759 62.0294L69.4748 62.0305ZM67.4717 59.1595C63.0651 57.757 59.3592 58.692 56.0537 62.4309C55.6192 61.3287 55.2188 60.5609 54.9856 59.7601C54.451 58.0903 54.9856 57.1564 56.6884 57.2565C59.8597 57.4237 62.998 57.8571 66.1363 58.2245C66.6368 58.2916 67.0713 58.725 67.4717 59.1595ZM56.2198 50.145C56.8204 49.1429 57.7224 49.2441 59.1238 49.7776C60.9267 50.5124 61.8947 51.5475 62.7626 52.983C63.3632 53.918 64.0309 54.853 64.6326 55.7539C64.7998 56.0212 64.9329 56.2544 65.1331 56.5888C61.7616 56.2885 58.4891 56.0542 55.2507 55.6879C54.9163 55.6549 54.3157 55.0532 54.3828 54.853C54.9174 53.2503 55.3508 51.5475 56.2187 50.1461L56.2198 50.145ZM53.1827 61.0295C54.8077 62.0085 55.4197 63.3215 55.0186 64.9686C54.418 67.4722 55.386 69.5721 57.4562 71.3123C59.7398 73.2318 65.0814 73.2318 68.2725 72.0801C72.2457 70.6446 73.0135 66.3711 70.7431 62.3979C71.2777 62.498 71.578 62.5981 72.1786 62.7323C71.5109 61.464 70.9433 60.4289 70.3427 59.3267C70.643 59.2596 70.8432 59.1936 70.8432 59.2266C73.2137 62.465 74.9495 65.8706 74.2488 70.0429C73.9815 71.6115 73.1466 72.7137 71.578 73.014C66.3695 74.1162 61.1951 73.6817 56.0867 72.3133C54.2508 71.8128 53.1486 70.3773 52.8153 68.3742C52.4479 65.9036 52.4149 63.4671 53.1827 61.0295ZM51.5129 61.3958C51.3798 61.596 50.9453 61.8303 50.8122 61.7632C50.5449 61.6631 50.2446 61.3287 50.1775 61.0284C50.0444 60.3607 50.0774 59.693 49.9773 58.9923C49.8772 58.3576 49.71 57.724 49.5769 57.0222C51.4799 57.5898 52.4479 59.8932 51.5129 61.3958ZM39.0235 64.1975C39.0367 64.181 39.0499 64.1678 39.0664 64.1546C39.0829 64.1381 39.1027 64.1249 39.1203 64.1117C39.1533 64.0754 39.1841 64.038 39.2171 64.005C39.304 63.9214 39.4008 63.851 39.5009 63.785C39.5438 63.7553 39.5911 63.7278 39.6373 63.7047C39.744 63.6541 39.854 63.6013 39.9717 63.5716C40.2159 63.5045 40.4392 63.5078 40.6823 63.5551C40.9023 63.598 41.1333 63.7388 41.2895 63.8994C41.4765 64.0897 41.6063 64.3339 41.6767 64.5902C41.7097 64.72 41.7273 64.8542 41.7438 64.9873C41.7471 65.0412 41.7537 65.094 41.7504 65.1479C41.7372 65.3646 41.6932 65.589 41.5733 65.7793C41.4666 65.9432 41.3159 66.1093 41.1355 66.1962C40.9254 66.2996 40.7615 66.3436 40.5217 66.3535C40.371 66.3634 40.2115 66.337 40.0641 66.3029C39.9101 66.2732 39.7671 66.2061 39.623 66.1423C39.5427 66.1093 39.4657 66.0653 39.3931 66.0158C39.2765 65.9355 39.1489 65.8453 39.0554 65.7353C38.919 65.5714 38.8145 65.4284 38.7584 65.2183C38.7078 65.0379 38.6979 64.808 38.7683 64.6276C38.842 64.434 38.8816 64.357 39.0224 64.2008L39.0235 64.1975ZM36.0557 59.0924C37.4912 58.4247 38.0588 59.1595 38.7595 60.2947C37.6243 60.9624 36.5562 61.5971 35.3539 62.3308C34.9535 60.9954 34.3188 59.8932 36.0546 59.0924H36.0557ZM32.7502 62.3979C34.0526 62.8324 34.8864 63.2988 34.6532 65.1017C34.3188 67.7054 36.6893 69.8086 39.5273 69.8086C42.0309 69.8086 44.2683 67.371 44.2342 64.7343C44.2012 64.0336 44.3343 63.3318 44.4014 62.2307C44.2342 62.0976 43.7337 61.8633 43.4664 61.4959C43.2332 61.1285 43.2332 60.595 43.132 60.1275C43.6666 60.0945 44.3673 59.8602 44.6676 60.1275C47.3384 62.1636 47.3516 66.0873 45.0482 68.5568C41.6767 72.2297 34.4849 71.2441 32.3487 66.6032C32.8492 66.6362 33.2496 66.6362 33.8513 66.7033C32.4939 65.1229 32.1265 63.6874 32.7491 62.3968L32.7502 62.3979ZM30.4468 64.9356C32.3168 71.045 38.2392 73.432 43.7139 70.8954C47.7872 68.9924 49.1094 64.8696 46.6388 61.1307C46.1383 60.3629 45.4706 59.6952 44.903 58.9604C44.936 58.8603 44.903 58.6931 45.0031 58.626C45.7379 58.0584 46.5387 57.5238 47.3065 56.9562C47.7069 57.8241 48.2745 58.659 48.4747 59.594C49.2095 62.8654 48.775 66.1379 47.807 69.3092C47.2724 71.0791 45.937 72.0471 44.2012 72.1131C41.2972 72.2132 38.3591 72.3133 35.4881 72.013C31.3147 71.5455 30.0794 69.6755 30.4468 64.9356ZM83.4426 78.5734C82.3074 77.9057 82.6275 77.3887 82.6946 76.1864C82.7276 75.5187 82.5274 74.5837 82.0599 74.2163C81.5253 73.8159 80.6244 73.8489 79.8566 73.8489C79.4892 73.8159 79.1218 74.0821 78.7544 74.2493C79.6553 72.6136 80.5903 70.9779 81.4923 69.3422C79.5563 70.5445 78.4211 72.2803 77.8865 74.3505C77.1187 77.2545 78.7544 78.8913 81.6595 78.1895C82.7749 79.5755 81.8267 80.3257 79.3891 80.8603C79.0888 80.2256 78.7346 79.2081 78.4343 78.5734C78.2341 78.5404 77.2991 78.9078 77.0989 78.9078C77.4333 79.9099 78.0339 80.5435 77.7666 81.5786C77.0989 81.5115 75.6502 81.3949 74.7482 81.3278C74.8813 80.527 75.0155 79.9594 75.1156 79.3918C74.4149 79.7592 74.1135 80.2927 73.6801 80.7272C71.8442 82.463 70.2085 84.5662 68.0712 85.8356C59.1568 91.0441 49.743 91.0771 40.228 87.5384C35.0195 85.6024 31.7481 81.7964 31.0133 76.0874C30.9803 75.6529 30.713 75.2195 30.5458 74.785C30.4127 74.818 30.2785 74.8521 30.1454 74.9181V77.2556C29.2808 77.2457 28.5064 77.1621 27.8123 77.0081C27.1677 76.8684 26.5902 76.6638 26.0732 76.4042C24.2505 75.4956 23.1615 73.8632 22.4542 71.5972C22.1506 70.6259 21.9933 69.6073 22.0274 68.5887C22.0373 68.2785 22.078 67.9672 22.2012 67.6669V67.6636C22.4586 67.0289 22.7952 66.4217 23.1989 65.8772C23.1989 65.8772 23.2 65.8761 23.2022 65.8739C23.7797 65.0962 24.4914 64.4483 25.3054 64.0347C27.9091 64.4692 28.711 65.237 29.3787 68.141C29.4524 68.4677 29.5393 68.7823 29.6427 69.0793C29.8495 69.6898 30.1201 70.2376 30.4578 70.7183C31.3224 71.9536 32.6149 72.7379 34.387 72.948C37.1579 73.2483 39.9618 73.5486 42.7338 73.4485C47.2405 73.2483 49.0775 71.4784 50.0785 67.0047C50.2116 66.5372 50.3458 66.0697 50.513 65.6022C50.6461 65.6022 50.8133 65.6352 50.9805 65.6352C51.0476 66.4701 51.0806 67.305 51.1807 68.1388C51.481 70.5093 52.2158 72.5795 54.7865 73.2802C60.2282 74.7828 65.77 75.3504 71.4119 74.3824C73.2478 74.0821 74.7504 73.1801 75.4181 71.177C75.7855 71.7116 76.0528 72.145 76.3531 72.5454C76.7535 71.8106 76.7876 71.1099 76.8536 70.4092C77.1209 68.0717 79.124 66.2028 81.3603 66.1698C83.0301 66.1368 85.7009 68.4061 85.9671 70.143C86.3675 73.0811 85.5469 76.336 83.4437 78.5723L83.4426 78.5734ZM78.7225 74.3164C79.157 74.4165 79.5904 74.5166 79.9908 74.6508C80.4913 74.818 80.9929 75.0182 81.4934 75.1854C81.2261 75.6199 80.9929 76.3536 80.6255 76.4537C80.0909 76.5868 79.2571 76.4207 78.8897 76.0533C78.5894 75.7189 78.7566 74.9181 78.7225 74.3175V74.3164Z" fill="black"/>
<path d="M38.3262 76.1871C38.7266 78.5576 39.4944 81.0282 42.2323 82.3295C47.5068 84.8672 52.9826 85.2676 58.4914 83.2645C60.8289 82.3966 62.2974 80.5937 62.9981 78.2232C54.7855 76.5875 46.6389 75.5524 38.3262 76.1871ZM39.5274 77.121C46.9392 76.5864 53.9836 77.5214 61.1941 79.057C58.4903 80.3253 41.3963 78.8568 39.5274 77.121Z" fill="black"/>
<path d="M43.5975 23.7915C43.5777 23.6474 43.5513 23.5077 43.5205 23.368C43.5106 23.3218 43.5007 23.2778 43.4908 23.2349C43.4578 23.0952 43.4171 22.9544 43.3742 22.8147C43.3313 22.6706 43.2807 22.5309 43.2202 22.3945C43.1597 22.2438 43.0937 22.0975 43.02 21.9534C42.9903 21.8995 42.9595 21.8467 42.9298 21.7928C42.8935 21.7257 42.8561 21.663 42.8165 21.5992C42.7769 21.5354 42.7362 21.4727 42.6933 21.4122C42.6537 21.3517 42.6097 21.289 42.5635 21.2318C42.5206 21.1713 42.4733 21.1119 42.4238 21.0547C42.3776 20.9975 42.327 20.9414 42.2764 20.8842C42.2192 20.8204 42.1598 20.761 42.0993 20.7038C42.0597 20.6642 42.0157 20.6235 41.9728 20.5872C41.9365 20.5509 41.8958 20.5168 41.8562 20.4838C41.8529 20.4772 41.8463 20.4739 41.843 20.4706C41.8034 20.4376 41.7594 20.4035 41.7165 20.3705C41.6263 20.3001 41.5295 20.2308 41.4327 20.167C41.4162 20.1571 41.403 20.1472 41.3865 20.1373C41.2864 20.0702 41.183 20.0108 41.0763 19.9536C41.0367 19.9305 40.9894 19.9074 40.9465 19.8865C40.9333 19.8799 40.9234 19.8733 40.9102 19.8667C40.8365 19.8304 40.7595 19.7963 40.6836 19.7633C40.5835 19.7171 40.4834 19.6764 40.3767 19.6434C40.3129 19.6203 40.2502 19.6005 40.1864 19.5796C40.1732 19.5763 40.1633 19.5697 40.1501 19.5664C40.1072 19.5499 40.0599 19.5367 40.0137 19.5268C39.8597 19.4839 39.7035 19.4465 39.5396 19.4168C39.4824 19.4069 39.4263 19.397 39.3658 19.3871C39.2921 19.3739 39.2151 19.364 39.1392 19.3541C39.0424 19.3409 38.9423 19.331 38.8389 19.3244C38.7223 19.3145 38.6024 19.3079 38.4781 19.3046H38.4748C38.4616 19.3013 38.4451 19.3013 38.4319 19.3013C38.0447 19.2947 37.6542 19.2881 37.267 19.2881C37.1031 19.2881 36.9403 19.2881 36.7764 19.2914H36.7731C36.5498 19.2914 36.3254 19.2947 36.1021 19.3013C36.0559 19.3013 36.0119 19.3013 35.969 19.3046C35.6984 19.3112 35.4311 19.3178 35.1649 19.331H35.1616C34.9944 19.3376 34.8316 19.3442 34.6644 19.3541C34.5005 19.364 34.3344 19.3739 34.1672 19.3838C33.5061 19.4234 32.845 19.4839 32.1905 19.5609C32.0266 19.5774 31.8638 19.5972 31.6999 19.6214C31.503 19.6445 31.3028 19.6753 31.1059 19.705C30.9695 19.7248 30.8287 19.7446 30.6923 19.7688C30.6318 19.7754 30.5757 19.7853 30.5152 19.7952C30.3348 19.8249 30.1544 19.859 29.974 19.892C29.864 19.9118 29.7573 19.9316 29.6506 19.9558C29.5241 19.9789 29.3998 20.002 29.2766 20.0295C29.0665 20.0724 28.8597 20.1164 28.6551 20.1659C28.5484 20.189 28.4384 20.2165 28.3317 20.2396C28.2316 20.266 28.1315 20.2902 28.0314 20.3166C27.9676 20.3331 27.9082 20.3496 27.8444 20.3672C27.7344 20.3936 27.6244 20.4211 27.5177 20.4541C27.5144 20.4541 27.5111 20.4574 27.5078 20.4574C27.147 20.5542 26.7862 20.6609 26.4331 20.7775C26.289 20.8237 26.146 20.8677 26.0063 20.9172C26.003 20.9172 25.9997 20.9205 25.9964 20.9205C25.8094 20.9843 25.6257 21.047 25.4453 21.1141C25.4156 21.124 25.3848 21.1372 25.3551 21.1471C25.2484 21.1867 25.145 21.2274 25.0416 21.267C24.5103 21.4705 23.99 21.6938 23.473 21.938C23.3564 21.9919 23.2365 22.048 23.1188 22.1052C23.0022 22.1624 22.8889 22.2185 22.7712 22.279C22.6513 22.3395 22.527 22.4022 22.4071 22.4693C22.2674 22.543 22.1266 22.62 21.9869 22.6992C21.8934 22.7498 21.7999 22.8026 21.7064 22.8565C21.636 22.8961 21.5623 22.9401 21.493 22.983C21.3665 23.0534 21.2422 23.1304 21.119 23.2063C20.7923 23.4065 20.4645 23.6199 20.1411 23.841C17.8707 25.4096 15.7004 27.2125 14.7324 29.8833C12.9966 34.6903 14.6323 38.0959 19.5735 39.1981C21.4435 39.5985 23.5467 39.4313 25.4827 39.1651C25.5762 39.1519 25.6664 39.1387 25.7566 39.1321C25.7896 39.1288 25.8237 39.1255 25.8534 39.1255C25.9271 39.1189 25.9975 39.1156 26.0635 39.1156C26.1174 39.1156 26.1669 39.1156 26.2208 39.1189C26.2637 39.1189 26.3044 39.1222 26.344 39.1255C26.4045 39.1288 26.4639 39.1354 26.5211 39.1453H26.5244C26.5948 39.1552 26.6608 39.1684 26.7312 39.1849C26.7884 39.1981 26.8412 39.2113 26.8984 39.2311C26.9083 39.2344 26.9215 39.2377 26.9347 39.2443C26.9809 39.2575 27.0315 39.2773 27.0788 39.2982C27.0854 39.3015 27.0887 39.3015 27.0953 39.3048C27.1657 39.3345 27.235 39.3686 27.3054 39.4082C27.3626 39.4379 27.4187 39.472 27.4759 39.5083C27.4825 39.5116 27.4858 39.5149 27.4891 39.5182C27.5496 39.5545 27.6057 39.5985 27.6662 39.6414C27.73 39.6876 27.796 39.7415 27.8631 39.7987C27.9269 39.8493 27.9896 39.9054 28.0534 39.9659C30.0565 41.7017 32.3269 42.5366 35.2309 41.7358C34.0957 40.4004 33.0606 39.4654 32.3269 38.3302C31.2247 36.6604 31.3919 36.4272 33.1948 35.5923C34.5302 34.9917 35.8986 34.357 37.168 33.5892C39.4714 32.2208 41.4745 30.4509 42.844 28.0474C42.8946 27.9605 42.9408 27.8736 42.9881 27.7834C43.0046 27.7537 43.0178 27.7229 43.0343 27.6899C43.0739 27.6063 43.1146 27.5194 43.1509 27.4292C43.1938 27.3291 43.2378 27.2224 43.2774 27.1157C43.2774 27.1124 43.2774 27.1091 43.2807 27.1025C43.3203 26.9925 43.3577 26.8792 43.3907 26.7648C43.4303 26.6383 43.4644 26.5074 43.4941 26.3776C43.5172 26.2808 43.537 26.184 43.5579 26.0839C43.5711 26.0135 43.5843 25.9442 43.5942 25.8705C43.614 25.7506 43.6305 25.6263 43.6448 25.5064V25.4998C43.6514 25.4294 43.658 25.3557 43.6613 25.2864C43.6679 25.2259 43.6712 25.1665 43.6745 25.106C43.6943 24.6682 43.6712 24.2282 43.6074 23.7937L43.5975 23.7915ZM42.1983 26.8429C41.1632 28.7129 39.4945 30.3816 37.7917 31.75C36.156 33.0183 34.1188 33.8202 32.2169 34.7552C30.447 35.5901 30.1467 36.0576 31.0146 37.8935C31.0212 37.91 31.0311 37.9232 31.0377 37.9397C31.195 38.3632 31.4315 38.7174 31.6251 38.9649C32.0156 39.582 32.4699 40.2068 32.9374 40.9141H32.9044C32.0695 40.9141 31.2049 40.737 30.194 40.3267C29.3756 39.9659 28.6452 39.4588 28.0105 38.7614C27.3098 37.9606 26.7081 37.9265 25.7401 38.1267C23.1694 38.6943 20.5657 38.9275 18.0951 37.6592C15.7081 36.4338 14.8072 34.8443 15.0866 32.3748V32.3715C15.1097 32.1482 15.1471 31.9205 15.19 31.684C15.344 30.8689 15.6168 30.1253 15.9842 29.44C16.5782 28.3312 17.4131 27.3764 18.3613 26.5085C22.5281 22.719 27.3186 20.9095 32.4534 20.3892C33.0815 20.3254 33.7151 20.2792 34.3531 20.2561C34.4763 20.2495 34.6039 20.2429 34.7271 20.2396C35.2375 20.2231 35.749 20.2198 36.2594 20.2297C36.6972 20.2297 37.1372 20.2429 37.5816 20.2627H37.5849C38.1195 20.2858 38.6563 20.3232 39.1942 20.3661C39.291 20.3727 39.3845 20.3859 39.478 20.3991C42.2654 20.816 43.7174 24.0643 42.1994 26.8429H42.1983Z" fill="black"/>
<path d="M28.9541 71.4719C28.9343 71.4147 28.9145 71.3553 28.8903 71.2948C28.6802 70.7668 28.4294 70.2762 28.1357 69.8296V69.8263C27.4174 68.7384 26.4395 67.9002 25.1514 67.3722C24.9006 67.2688 24.6036 67.2787 24.3099 67.2886C24.3099 67.2886 24.2637 67.2655 24.2494 67.2886C24.1394 67.2919 24.0294 67.2952 23.9227 67.2886C23.9029 67.4217 23.8798 67.5592 23.8589 67.6956C23.9018 67.7154 23.9425 67.7319 23.9854 67.7528C24.2494 67.8727 24.5101 68.0036 24.7796 68.1103C26.3691 68.7241 27.5637 69.7427 28.0048 71.4356C28.0851 71.7491 27.7639 72.1704 27.6275 72.5444C27.2832 72.2771 26.7497 72.0703 26.6397 71.726C26.4692 71.198 26.5935 70.5776 26.5935 69.9968C26.423 69.977 26.2525 69.9605 26.0831 69.9396C26.0259 70.758 25.7531 71.6358 25.9632 72.3772C26.2404 73.3617 26.8311 74.5475 28.1731 74.003C29.3149 73.5421 29.3215 72.5136 28.9607 71.4829C28.9607 71.4796 28.9574 71.4763 28.9541 71.473V71.4719Z" fill="black"/>
<path d="M63.9055 61.1761C63.6646 61.1464 63.4182 61.1299 63.1641 61.1299C61.4019 61.1497 59.8894 61.9681 58.9412 63.2595C58.9379 63.2628 58.9379 63.2661 58.9346 63.2661C58.2867 64.1571 57.9028 65.2692 57.8896 66.5045C57.8896 66.6244 57.8929 66.7454 57.9028 66.8653C57.9028 66.8686 57.9028 66.8752 57.9061 66.8785C58.1063 69.1456 60.4064 70.9749 63.1311 70.9452C64.3499 70.9452 65.4543 70.5613 66.3332 69.9002C67.5685 68.9718 68.3528 67.5033 68.3726 65.8038C68.3726 63.3937 66.4762 61.4841 63.9055 61.1761ZM64.1156 66.8587C64.0188 66.9654 63.8956 67.0589 63.7713 67.1359C63.7042 67.1788 63.6316 67.2063 63.5579 67.2393C63.4875 67.269 63.4182 67.2998 63.3412 67.3196C63.1839 67.3592 63.0178 67.3834 62.8539 67.3768C62.6768 67.3702 62.4898 67.3504 62.3226 67.2866C62.1026 67.2063 61.9255 67.1161 61.755 66.9522C61.5944 66.7982 61.5009 66.6222 61.4283 66.4176C61.3315 66.1536 61.3414 65.8071 61.4349 65.5431C61.5416 65.2527 61.7022 64.9722 61.9453 64.7753C62.0322 64.7082 62.1224 64.6312 62.2192 64.5751C62.316 64.5212 62.4194 64.4816 62.5228 64.442C62.5833 64.4156 62.646 64.4057 62.7065 64.3881C62.723 64.3848 62.7395 64.3749 62.7571 64.3683C62.921 64.3144 63.1047 64.2847 63.2774 64.288C63.5139 64.2913 63.6976 64.3452 63.9088 64.4486C64.219 64.5993 64.4401 64.926 64.5303 65.2527C64.6909 65.8203 64.4973 66.4242 64.1167 66.8587H64.1156Z" fill="black"/>
<path d="M37.8113 20.9007C37.7948 20.8908 37.7783 20.8842 37.7607 20.8809L37.7805 20.9447C37.7871 20.9315 37.797 20.915 37.8102 20.9018L37.8113 20.9007Z" fill="black"/>
<path d="M21.5603 48.5573C20.0247 48.9346 19.4175 49.5418 19.0402 51.0774C18.9467 51.4646 18.4055 51.4646 18.312 51.0774C17.9347 49.5418 17.3275 48.9335 15.7919 48.5573C15.4047 48.4638 15.4047 47.9226 15.7919 47.8291C17.3275 47.4518 17.9358 46.8446 18.312 45.309C18.4055 44.9218 18.9467 44.9218 19.0402 45.309C19.4175 46.8446 20.0247 47.4518 21.5603 47.8291C21.9475 47.9226 21.9475 48.4638 21.5603 48.5573Z" fill="black"/>
<path d="M95.5119 64.3082C93.412 64.6217 92.5276 65.3565 91.8324 67.3629C91.6586 67.8634 90.9381 67.7974 90.8611 67.2727C90.5476 65.1728 89.8128 64.2884 87.8064 63.5932C87.3059 63.4194 87.3719 62.6989 87.8966 62.6219C89.9965 62.3084 90.8809 61.5736 91.5761 59.5672C91.7499 59.0667 92.4704 59.1327 92.5474 59.6574C92.8609 61.7573 93.5957 62.6417 95.6021 63.3369C96.1026 63.5107 96.0366 64.2312 95.5119 64.3082Z" fill="black"/>
<path d="M28.9683 75.9964C28.8044 76.036 28.3204 76.4936 27.8133 77.0084C27.5394 77.2889 27.2589 77.5892 27.0125 77.8499C26.6352 78.2602 26.3547 78.5748 26.3547 78.5748C25.3526 78.5748 25.1964 77.9775 25.1964 77.9775C25.1535 77.7168 25.2998 77.3934 25.5341 77.0557C25.6881 76.839 25.8784 76.6146 26.0753 76.4045C26.6726 75.7698 27.3568 75.2363 27.3568 75.2363C27.3568 75.2363 29.3599 75.904 28.9694 75.9975L28.9683 75.9964Z" fill="black"/>
<path d="M22.5292 28.271L24.2254 27.6748L26.7774 32.7084L24.9437 33.5961L24.0285 31.4951L23.1793 31.8823L24.023 33.9844L22.2861 34.7445L20.1543 29.2918L21.7614 28.7253L22.6161 30.647L23.4356 30.284L22.5292 28.2721V28.271Z" fill="black"/>
<path d="M29.1236 31.628L27.2272 32.4915L25.1636 27.1422L26.6827 26.3359L29.1236 31.6269V31.628Z" fill="black"/>
<path d="M32.317 27.4695L30.7418 28.2186L29.2524 24.9703L30.865 24.0078L32.317 27.4695ZM32.5029 30.1513C32.7317 30.0468 32.8923 29.8389 32.9858 29.5276C33.0694 29.2273 33.0562 28.9534 32.944 28.7081C32.8395 28.4793 32.6679 28.344 32.427 28.3011C32.2114 28.2681 31.9749 28.3099 31.7175 28.4276C31.4887 28.5321 31.3457 28.7246 31.2874 29.0073C31.2357 29.2724 31.2687 29.5342 31.3853 29.7916C31.6042 30.2723 31.9771 30.3922 32.5029 30.1524V30.1513Z" fill="black"/>
<path d="M34.9088 26.2898L33.3336 27.0389L31.8442 23.7906L33.4568 22.8281L34.9088 26.2898ZM35.0936 28.9716C35.3224 28.8671 35.483 28.6592 35.5765 28.3479C35.6601 28.0476 35.6469 27.7737 35.5347 27.5284C35.4302 27.2996 35.2586 27.1643 35.0177 27.1214C34.8021 27.0884 34.5656 27.1302 34.3082 27.2479C34.0794 27.3524 33.9364 27.5449 33.8781 27.8276C33.8264 28.0927 33.8594 28.3545 33.976 28.6119C34.1949 29.0926 34.5678 29.2125 35.0936 28.9727V28.9716Z" fill="black"/>
</svg>
