<svg width="80" height="80" viewBox="0 0 80 80" fill="none" xmlns="http://www.w3.org/2000/svg">
<path d="M32.5926 36.4158C32.2103 36.6707 31.7802 36.9096 31.3023 37.1326C30.8244 37.3556 30.2668 37.4671 29.6296 37.4671H25.0418V30.0119H28.9606C29.6615 30.0119 30.2668 30.0757 30.7766 30.2031C31.2863 30.3305 31.7642 30.4898 32.2103 30.681C32.72 30.8722 33.0864 31.2226 33.3094 31.7324C33.5325 32.2421 33.644 32.8475 33.644 33.5484C33.644 34.9502 33.2935 35.906 32.5926 36.4158ZM32.497 42.6284C33.0705 42.947 33.5006 43.3134 33.7873 43.7276C34.0741 44.1418 34.2174 44.763 34.2174 45.5914C34.2174 47.4393 33.6121 48.6818 32.4014 49.319C31.6368 49.765 30.7129 49.9881 29.6296 49.9881H25.0418V42.4373H31.3023L32.497 42.6284ZM60.0239 0C62.7638 0 65.3445 0.525687 67.7658 1.57706C70.1872 2.62843 72.3059 4.06213 74.1219 5.87814C75.9379 7.69415 77.3716 9.81282 78.4229 12.2342C79.4743 14.6555 80 17.2362 80 19.9761V59.9283C80 62.6683 79.4743 65.2648 78.4229 67.718C77.3716 70.1712 75.9379 72.3059 74.1219 74.1219C72.3059 75.9379 70.1872 77.3716 67.7658 78.4229C65.3445 79.4743 62.7638 80 60.0239 80H19.9761C17.2362 80 14.6555 79.4743 12.2342 78.4229C9.81282 77.3716 7.69415 75.9379 5.87814 74.1219C4.06213 72.3059 2.62843 70.1712 1.57706 67.718C0.525687 65.2648 0 62.6683 0 59.9283V19.9761C0 17.2362 0.525687 14.6555 1.57706 12.2342C2.62843 9.81282 4.06213 7.69415 5.87814 5.87814C7.69415 4.06213 9.81282 2.62843 12.2342 1.57706C14.6555 0.525687 17.2362 0 19.9761 0H60.0239ZM47.503 30.0119H57.5388V24.9462H47.503V30.0119ZM38.8053 50.6571C39.6336 49.1916 40.0478 47.5986 40.0478 45.8781C40.0478 44.2214 39.6655 42.7559 38.9008 41.4815C38.1999 40.3345 37.1485 39.4743 35.7467 38.9008C36.6388 38.3911 37.3397 37.8176 37.8495 37.1804C38.6778 36.0972 39.092 34.6316 39.092 32.7838C39.092 30.9359 38.6778 29.4066 37.8495 28.1959C36.5114 26.1569 34.1537 25.0737 30.7766 24.9462H17.491V54.9582H29.9164C30.6173 54.9582 31.2863 54.9263 31.9235 54.8626C32.5607 54.7989 33.1661 54.7033 33.7395 54.5759C34.9502 54.2573 35.9697 53.7475 36.7981 53.0466C37.2441 52.728 37.6105 52.3775 37.8973 51.9952C38.184 51.6129 38.4867 51.1669 38.8053 50.6571ZM62.509 44.9223C62.4452 44.3489 62.4134 43.8072 62.4134 43.2975C62.4134 42.8515 62.3975 42.4054 62.3656 41.9594C62.3337 41.5133 62.3178 41.1629 62.3178 40.908C62.1904 40.0159 61.9992 39.2354 61.7443 38.5663C61.4894 37.8973 61.1708 37.2441 60.7885 36.6069C59.8965 35.1414 58.8132 34.09 57.5388 33.4528C56.2644 32.8156 54.7989 32.497 53.1422 32.497C50.3385 32.497 48.0765 33.4528 46.356 35.3644C44.6356 37.4034 43.7754 40.2389 43.7754 43.871C43.7754 47.7579 44.7312 50.5615 46.6428 52.282C48.5544 54.0024 50.7845 54.8626 53.3333 54.8626C54.7989 54.8626 56.1211 54.5759 57.2999 54.0024C58.4787 53.4289 59.5141 52.6324 60.4062 51.6129C60.916 50.912 61.3301 50.2748 61.6487 49.7013C61.9673 49.1278 62.1585 48.3951 62.2222 47.503H57.1565C57.0291 48.3951 56.8857 48.857 56.7264 48.8889C56.5671 48.9207 56.3919 49.0323 56.2007 49.2234C55.8184 49.542 55.4042 49.8128 54.9582 50.0358C54.5121 50.2589 54.0024 50.3704 53.4289 50.3704C52.3457 50.3704 51.4217 50.0836 50.6571 49.5102C50.0836 49.1278 49.6376 48.5862 49.319 47.8853C49.0004 47.1844 48.8092 46.1967 48.7455 44.9223H62.509ZM53.1422 37.4671C54.2891 37.4671 55.2449 37.8495 56.0096 38.6141C56.4556 38.9964 56.7742 39.4106 56.9654 39.8566C57.1565 40.3027 57.284 41.1629 57.3477 42.4373H48.8411C48.9685 41.1629 49.1438 40.3345 49.3668 39.9522C49.5898 39.5699 49.8606 39.1557 50.1792 38.7097C50.8801 37.8813 51.8678 37.4671 53.1422 37.4671Z" fill="black"/>
</svg>
