<svg width="30" height="30" viewBox="0 0 30 30" fill="none" xmlns="http://www.w3.org/2000/svg">
<path d="M12.2222 13.6559C12.0789 13.7515 11.9176 13.8411 11.7384 13.9247C11.5591 14.0084 11.3501 14.0502 11.1111 14.0502H9.39068V11.2545H10.8602C11.1231 11.2545 11.3501 11.2784 11.5412 11.3262C11.7324 11.374 11.9116 11.4337 12.0789 11.5054C12.27 11.5771 12.4074 11.7085 12.491 11.8996C12.5747 12.0908 12.6165 12.3178 12.6165 12.5806C12.6165 13.1063 12.4851 13.4648 12.2222 13.6559ZM12.1864 15.9857C12.4014 16.1051 12.5627 16.2425 12.6703 16.3979C12.7778 16.5532 12.8315 16.7861 12.8315 17.0968C12.8315 17.7897 12.6045 18.2557 12.1505 18.4946C11.8638 18.6619 11.5173 18.7455 11.1111 18.7455H9.39068V15.914H11.7384L12.1864 15.9857ZM22.509 0C23.5364 0 24.5042 0.197133 25.4122 0.591398C26.3202 0.985663 27.1147 1.5233 27.7957 2.2043C28.4767 2.8853 29.0143 3.67981 29.4086 4.58781C29.8029 5.49582 30 6.46356 30 7.49104V22.4731C30 23.5006 29.8029 24.4743 29.4086 25.3943C29.0143 26.3142 28.4767 27.1147 27.7957 27.7957C27.1147 28.4767 26.3202 29.0143 25.4122 29.4086C24.5042 29.8029 23.5364 30 22.509 30H7.49104C6.46356 30 5.49582 29.8029 4.58781 29.4086C3.67981 29.0143 2.8853 28.4767 2.2043 27.7957C1.5233 27.1147 0.985663 26.3142 0.591398 25.3943C0.197133 24.4743 0 23.5006 0 22.4731V7.49104C0 6.46356 0.197133 5.49582 0.591398 4.58781C0.985663 3.67981 1.5233 2.8853 2.2043 2.2043C2.8853 1.5233 3.67981 0.985663 4.58781 0.591398C5.49582 0.197133 6.46356 0 7.49104 0H22.509ZM17.8136 11.2545H21.5771V9.35484H17.8136V11.2545ZM14.552 18.9964C14.8626 18.4468 15.0179 17.8495 15.0179 17.2043C15.0179 16.583 14.8746 16.0335 14.5878 15.5556C14.325 15.1254 13.9307 14.8029 13.405 14.5878C13.7395 14.3967 14.0024 14.1816 14.1935 13.9427C14.5042 13.5364 14.6595 12.9869 14.6595 12.2939C14.6595 11.601 14.5042 11.0275 14.1935 10.5735C13.6918 9.80884 12.8076 9.40263 11.5412 9.35484H6.55914V20.6093H11.2186C11.4815 20.6093 11.7324 20.5974 11.9713 20.5735C12.2103 20.5496 12.4373 20.5137 12.6523 20.466C13.1063 20.3465 13.4887 20.1553 13.7993 19.8925C13.9665 19.773 14.1039 19.6416 14.2115 19.4982C14.319 19.3548 14.4325 19.1876 14.552 18.9964ZM23.4409 16.8459C23.417 16.6308 23.405 16.4277 23.405 16.2366C23.405 16.0693 23.399 15.902 23.3871 15.7348C23.3752 15.5675 23.3692 15.4361 23.3692 15.3405C23.3214 15.006 23.2497 14.7133 23.1541 14.4624C23.0585 14.2115 22.9391 13.9665 22.7957 13.7276C22.4612 13.178 22.055 12.7838 21.5771 12.5448C21.0992 12.3059 20.5496 12.1864 19.9283 12.1864C18.8769 12.1864 18.0287 12.5448 17.3835 13.2616C16.7384 14.0263 16.4158 15.0896 16.4158 16.4516C16.4158 17.9092 16.7742 18.9606 17.491 19.6057C18.2079 20.2509 19.0442 20.5735 20 20.5735C20.5496 20.5735 21.0454 20.466 21.4875 20.2509C21.9295 20.0358 22.3178 19.7372 22.6523 19.3548C22.8435 19.092 22.9988 18.853 23.1183 18.638C23.2378 18.4229 23.3094 18.1481 23.3333 17.8136H21.4337C21.3859 18.1481 21.3321 18.3214 21.2724 18.3333C21.2127 18.3453 21.147 18.3871 21.0753 18.4588C20.9319 18.5783 20.7766 18.6798 20.6093 18.7634C20.4421 18.8471 20.2509 18.8889 20.0358 18.8889C19.6296 18.8889 19.2832 18.7814 18.9964 18.5663C18.7814 18.4229 18.6141 18.2198 18.4946 17.957C18.3752 17.6941 18.3035 17.3238 18.2796 16.8459H23.4409ZM19.9283 14.0502C20.3584 14.0502 20.7168 14.1935 21.0036 14.4803C21.1708 14.6237 21.2903 14.779 21.362 14.9462C21.4337 15.1135 21.4815 15.4361 21.5054 15.914H18.3154C18.3632 15.4361 18.4289 15.1254 18.5125 14.9821C18.5962 14.8387 18.6977 14.6834 18.8172 14.5161C19.08 14.2055 19.4504 14.0502 19.9283 14.0502Z" fill="#003C30"/>
</svg>
