<svg width="80" height="80" viewBox="0 0 80 80" fill="none" xmlns="http://www.w3.org/2000/svg">
<path d="M60.0239 0C62.7638 0 65.3445 0.525687 67.7658 1.57706C70.1872 2.62843 72.3059 4.06213 74.1219 5.87814C75.9379 7.69415 77.3716 9.81282 78.4229 12.2342C79.4743 14.6555 80 17.2362 80 19.9761V59.9283C80 62.6683 79.4743 65.2648 78.4229 67.718C77.3716 70.1712 75.9379 72.3059 74.1219 74.1219C72.3059 75.9379 70.1872 77.3716 67.7658 78.4229C65.3445 79.4743 62.7638 80 60.0239 80H19.9761C17.2362 80 14.6555 79.4743 12.2342 78.4229C9.81282 77.3716 7.69415 75.9379 5.87814 74.1219C4.06213 72.3059 2.62843 70.1712 1.57706 67.718C0.525687 65.2648 0 62.6683 0 59.9283V19.9761C0 17.2362 0.525687 14.6555 1.57706 12.2342C2.62843 9.81282 4.06213 7.69415 5.87814 5.87814C7.69415 4.06213 9.81282 2.62843 12.2342 1.57706C14.6555 0.525687 17.2362 0 19.9761 0H60.0239ZM54.9582 17.491H46.5472C44.8905 17.491 43.3612 17.7778 41.9594 18.3513C40.5575 18.9247 39.3469 19.6734 38.3274 20.5974C37.3078 21.5213 36.4954 22.5886 35.8901 23.7993C35.2847 25.01 34.9821 26.2206 34.9821 27.4313V32.497H27.5269V42.4373H34.9821V62.509H45.0179V42.4373H52.4731V32.497H45.0179V30.0119C45.0179 29.1836 45.3206 28.5464 45.9259 28.1004C46.5313 27.6543 47.057 27.4313 47.503 27.4313H54.9582V17.491Z" fill="black"/>
</svg>
