<svg width="50" height="50" viewBox="0 0 50 50" fill="none" xmlns="http://www.w3.org/2000/svg">
<g clip-path="url(#clip0_99_515)">
<path d="M8.85417 0.750004H41.1458C42.3089 0.748908 43.4607 0.977179 44.5355 1.42175C45.6102 1.86633 46.5867 2.51848 47.4091 3.34088C48.2315 4.16329 48.8837 5.1398 49.3283 6.21453C49.7728 7.28926 50.0011 8.44112 50 9.60417V40.6458C50.0011 41.8089 49.7728 42.9607 49.3283 44.0355C48.8837 45.1102 48.2315 46.0867 47.4091 46.9091C46.5867 47.7315 45.6102 48.3837 44.5355 48.8283C43.4607 49.2728 42.3089 49.5011 41.1458 49.5H8.85417C7.69112 49.5011 6.53926 49.2728 5.46453 48.8283C4.3898 48.3837 3.41329 47.7315 2.59088 46.9091C1.76848 46.0867 1.11633 45.1102 0.671755 44.0355C0.227179 42.9607 -0.00109226 41.8089 3.92932e-06 40.6458V9.60417C-0.00109226 8.44112 0.227179 7.28926 0.671755 6.21453C1.11633 5.1398 1.76848 4.16329 2.59088 3.34088C3.41329 2.51848 4.3898 1.86633 5.46453 1.42175C6.53926 0.977179 7.69112 0.748908 8.85417 0.750004Z" fill="black"/>
<path d="M19.7918 40.7497C22.6683 40.7497 25.0002 38.4178 25.0002 35.5413V30.333H19.7918C16.9153 30.333 14.5835 32.6649 14.5835 35.5413C14.5835 38.4178 16.9153 40.7497 19.7918 40.7497Z" fill="#0ACF83"/>
<path d="M14.5835 25.1253C14.5835 22.2488 16.9153 19.917 19.7918 19.917H25.0002V30.3337H19.7918C16.9153 30.3337 14.5835 28.0018 14.5835 25.1253Z" fill="#A259FF"/>
<path d="M14.5835 14.7083C14.5835 11.8318 16.9153 9.5 19.7918 9.5H25.0002V19.9167H19.7918C16.9153 19.9167 14.5835 17.5848 14.5835 14.7083Z" fill="#F24E1E"/>
<path d="M25 9.5H30.2083C33.0848 9.5 35.4167 11.8318 35.4167 14.7083C35.4167 17.5848 33.0848 19.9167 30.2083 19.9167H25V9.5Z" fill="#FF7262"/>
<path d="M35.4167 25.1253C35.4167 28.0018 33.0848 30.3337 30.2083 30.3337C27.3318 30.3337 25 28.0018 25 25.1253C25 22.2488 27.3318 19.917 30.2083 19.917C33.0848 19.917 35.4167 22.2488 35.4167 25.1253Z" fill="#1ABCFE"/>
</g>
<defs>
<clipPath id="clip0_99_515">
<rect width="50" height="48.75" fill="white" transform="translate(0 0.75)"/>
</clipPath>
</defs>
</svg>
