<svg width="224" height="196" viewBox="0 0 224 196" fill="none" xmlns="http://www.w3.org/2000/svg">
<path d="M11.9467 87.3023C10.9177 83.1143 9.26174 81.4553 5.07374 80.4293C4.01774 80.1743 4.01774 78.6983 5.07374 78.4433C9.26174 77.4143 10.9207 75.7583 11.9467 71.5703C12.2017 70.5143 13.6777 70.5143 13.9327 71.5703C14.9617 75.7583 16.6177 77.4143 20.8057 78.4433C21.8617 78.6983 21.8617 80.1743 20.8057 80.4293C16.6177 81.4583 14.9617 83.1143 13.9327 87.3023C13.6777 88.3583 12.2017 88.3583 11.9467 87.3023Z" fill="white"/>
<path d="M2.16077 29.4951C4.80077 22.2111 10.7198 17.2941 16.9118 13.0161C17.7938 12.4161 18.6878 11.8311 19.5788 11.2851C19.9148 11.0751 20.2538 10.8651 20.5988 10.6761C20.7908 10.5591 20.9918 10.4391 21.1808 10.3311C21.4358 10.1841 21.6908 10.0401 21.9458 9.90212C22.3268 9.68312 22.7108 9.47312 23.0918 9.27512C23.4188 9.09212 23.7578 8.92112 24.0848 8.75612C24.4028 8.59112 24.7118 8.43812 25.0328 8.28212C25.3508 8.12612 25.6778 7.97312 25.9988 7.82612C27.4088 7.16012 28.8308 6.55112 30.2768 5.99612C30.5588 5.88812 30.8408 5.77712 31.1318 5.66912C31.2128 5.64212 31.2968 5.60612 31.3778 5.57912C31.8698 5.39612 32.3708 5.22512 32.8808 5.05112C32.8898 5.05112 32.8988 5.04212 32.9078 5.04212C33.2888 4.90412 33.6818 4.78712 34.0718 4.66112C35.0378 4.34312 36.0218 4.05212 37.0028 3.78812C37.0118 3.78812 37.0208 3.77912 37.0298 3.77912C37.3208 3.68912 37.6208 3.61412 37.9208 3.54212C38.0948 3.49712 38.2568 3.45212 38.4308 3.40412C38.7038 3.33212 38.9768 3.26612 39.2498 3.19412C39.5408 3.13112 39.8408 3.05612 40.1318 2.99312C40.6868 2.85512 41.2508 2.73812 41.8268 2.62112C42.1628 2.54912 42.5018 2.48312 42.8468 2.42012C43.1378 2.35712 43.4288 2.30312 43.7288 2.24612C44.2208 2.15612 44.7128 2.06312 45.2048 1.98212C45.3698 1.95512 45.5228 1.92812 45.6878 1.91012C46.0598 1.84712 46.4438 1.79312 46.8158 1.73612C47.3528 1.65512 47.8988 1.57112 48.4358 1.50812C48.8828 1.44512 49.3268 1.39112 49.7738 1.34312C51.5588 1.13312 53.3618 0.97112 55.1648 0.86012C55.6208 0.83312 56.0768 0.806118 56.5208 0.779118C56.9768 0.752118 57.4208 0.734121 57.8768 0.716121H57.8858C58.6148 0.680121 59.3438 0.662119 60.0788 0.644119C60.1958 0.635119 60.3158 0.63512 60.4418 0.63512C61.0508 0.61712 61.6628 0.608121 62.2718 0.608121H62.2808C62.7278 0.599121 63.1718 0.599121 63.6188 0.599121C64.6748 0.599121 65.7398 0.61712 66.7958 0.63512C66.8318 0.63512 66.8768 0.635119 66.9128 0.644119H66.9218C67.2578 0.653119 67.5878 0.671122 67.9058 0.698122C68.1878 0.716122 68.4608 0.743118 68.7248 0.779118C68.9348 0.806118 69.1448 0.833119 69.3428 0.869119C69.5078 0.896119 69.6608 0.923121 69.8168 0.950121C70.2638 1.03112 70.6898 1.13312 71.1098 1.25012C71.2358 1.27712 71.3648 1.31312 71.4818 1.35812C71.5178 1.36712 71.5448 1.38512 71.5808 1.39412C71.7548 1.44812 71.9258 1.50212 72.0998 1.56812C72.3908 1.65812 72.6638 1.76912 72.9368 1.89512C73.1468 1.98512 73.3568 2.07812 73.5548 2.17712C73.5908 2.19512 73.6178 2.21312 73.6538 2.23112C73.7708 2.28512 73.8998 2.34812 74.0078 2.41412C74.2988 2.57012 74.5808 2.73212 74.8538 2.91512C74.8988 2.94212 74.9348 2.96912 74.9798 2.99612C75.2438 3.17012 75.5078 3.35912 75.7538 3.55112C75.8708 3.64112 75.9908 3.73412 76.0988 3.82412C76.1078 3.83312 76.1258 3.84212 76.1348 3.86012C76.2428 3.95012 76.3538 4.04312 76.4528 4.14212C76.5698 4.24112 76.6898 4.35212 76.7978 4.46012C76.9628 4.61612 77.1248 4.77812 77.2808 4.95212C77.4188 5.10812 77.5538 5.26112 77.6828 5.41712C77.8208 5.57312 77.9468 5.73512 78.0638 5.90012C78.1898 6.05612 78.3098 6.22712 78.4178 6.39212C78.5348 6.55712 78.6458 6.72812 78.7538 6.90212C78.8618 7.07612 78.9638 7.24712 79.0628 7.43012C79.1438 7.57712 79.2278 7.72112 79.3088 7.86812C79.5098 8.26112 79.6898 8.66012 79.8548 9.07112C80.0198 9.44312 80.1548 9.82712 80.2748 10.2171C80.3918 10.5981 80.5028 10.9821 80.5928 11.3631C80.6198 11.4801 80.6468 11.6001 80.6738 11.7261C80.7548 12.1071 80.8298 12.4911 80.8838 12.8811C81.0578 14.0661 81.1208 15.2661 81.0668 16.4601C81.0578 16.6251 81.0488 16.7871 81.0308 16.9521C81.0218 17.1441 81.0038 17.3451 80.9858 17.5341V17.5521C80.9498 17.8791 80.9048 18.2181 80.8478 18.5451C80.8208 18.7461 80.7848 18.9381 80.7488 19.1271C80.6948 19.4001 80.6408 19.6641 80.5748 19.9281C80.4938 20.2821 80.4008 20.6391 80.2928 20.9841C80.2028 21.2931 80.1008 21.6021 79.9928 21.9051C79.9838 21.9231 79.9838 21.9321 79.9838 21.9411C79.8758 22.2321 79.7558 22.5231 79.6388 22.7961C79.5398 23.0421 79.4288 23.2791 79.3208 23.5071C79.2758 23.5971 79.2398 23.6811 79.1948 23.7621C79.0688 24.0081 78.9398 24.2451 78.8018 24.4821C75.0698 31.0371 69.6068 35.8641 63.3218 39.5961C59.8628 41.6901 56.1278 43.4211 52.4858 45.0591C47.5688 47.3361 47.1128 47.9721 50.1188 52.5261C52.1228 55.6221 54.9458 58.1721 58.0388 61.8141C50.1188 63.9981 43.9268 61.7241 38.4638 56.9871C38.2898 56.8221 38.1188 56.6691 37.9448 56.5311C37.7618 56.3751 37.5818 56.2311 37.4078 56.1021C37.2428 55.9851 37.0898 55.8651 36.9248 55.7661C36.9158 55.7571 36.9068 55.7481 36.8888 55.7391C36.7328 55.6401 36.5798 55.5471 36.4238 55.4661C36.2318 55.3581 36.0428 55.2651 35.8508 55.1841C35.8328 55.1751 35.8238 55.1751 35.8058 55.1661C35.6798 55.1121 35.5418 55.0581 35.4128 55.0191C35.3768 55.0011 35.3408 54.9921 35.3138 54.9831C35.1578 54.9291 35.0138 54.8931 34.8578 54.8571C34.6658 54.8121 34.4858 54.7761 34.2938 54.7491H34.2848C34.1288 54.7221 33.9668 54.7041 33.8018 54.6951C33.6938 54.6861 33.5828 54.6771 33.4658 54.6771C33.3188 54.6681 33.1838 54.6681 33.0368 54.6681C32.8538 54.6681 32.6648 54.6771 32.4638 54.6951C32.3828 54.6951 32.2898 54.7041 32.1998 54.7131C31.9538 54.7311 31.7078 54.7671 31.4528 54.8031C26.1728 55.5321 20.4368 55.9881 15.3368 54.8931C1.86077 51.8871 -2.60023 42.6021 2.13377 29.4891L2.16077 29.4951Z" fill="white"/>
<path d="M205.969 137.708C205.786 137.798 201.415 137.708 198.649 135.386C200.38 142.307 199.468 149.045 196.918 155.69C196.462 156.965 197.008 158.603 196.918 160.061C196.828 162.428 196.864 165.023 200.506 168.665C198.868 169.94 191.365 167.345 188.905 167.435C188.542 167.435 188.269 167.618 188.905 168.164C187.54 171.077 178.525 175.358 174.61 174.356C176.887 177.725 179.254 181.004 181.984 184.826C175.063 187.193 168.418 185.918 160.588 182.186C162.409 184.736 163.411 186.284 164.959 188.561C159.133 189.38 155.398 186.65 151.576 183.008C142.288 189.2 132.001 192.749 121.075 194.663C91.0266 197.396 78.7356 191.84 74.4576 190.385C66.0816 187.562 58.7976 182.828 53.0616 176.18C50.8776 173.54 48.9636 172.721 45.7776 174.269C44.4126 174.905 42.5916 174.815 40.0416 175.181C41.4996 172.724 42.4986 171.083 43.6836 169.172H31.7556C34.2126 166.988 36.4896 164.894 39.6756 161.978C38.2656 161.459 36.9246 160.904 35.6796 160.322C34.6506 161.441 33.8856 162.299 33.8856 162.299C31.1526 162.299 30.7266 160.67 30.7266 160.67C30.6096 159.959 31.0086 159.077 31.6476 158.156C24.6096 153.767 21.0576 147.722 20.9226 138.944V138.215C20.8326 133.298 22.3806 127.379 25.4766 123.647C26.9346 121.916 29.2086 120.824 30.4836 119.093C31.9416 117.089 32.7606 113.903 33.6696 111.626C26.2026 114.266 20.1036 116.36 13.1826 118.82C13.6386 117.182 20.2656 104.069 22.9626 90.3683C24.7476 81.2903 30.3936 73.6613 33.3066 64.6463C30.9396 64.1003 27.4806 63.2813 24.1116 62.4623C24.2016 62.1893 24.2016 61.9163 24.2946 61.6433C25.5606 61.3343 26.8266 61.0163 28.1016 60.7043C28.5306 60.5963 28.9656 60.4943 29.4036 60.3953C30.2316 60.1943 31.0686 60.0023 31.8996 59.8313C31.9536 59.8223 32.0076 59.8043 32.0646 59.7953L32.9106 59.6303C33.3216 59.5493 33.7296 59.4743 34.1406 59.4023C34.5966 59.3213 35.0406 59.2463 35.4966 59.1833C36.6816 59.0003 38.2296 60.0953 39.5016 60.8213C46.4226 64.2803 53.3406 65.6483 61.0806 61.9133C57.8946 58.4543 55.0716 55.3583 52.4316 52.1723C49.9746 49.3493 49.9746 47.5283 54.0696 45.9803C65.0856 41.7023 75.2856 36.0563 81.9306 25.5863C81.9756 25.5233 82.0206 25.4483 82.0866 25.3853C82.1406 25.3223 82.2036 25.2593 82.2786 25.1933C82.5246 24.9833 82.8336 24.8003 83.1786 24.6473C83.2956 24.5933 83.4156 24.5483 83.5416 24.5003C83.6796 24.4553 83.8146 24.4103 83.9526 24.3743H83.9616C84.2346 24.2933 84.5076 24.2363 84.7536 24.2183C89.6706 23.9453 94.5876 23.6723 99.4116 23.6723C104.146 23.7623 108.88 24.2183 113.98 24.4913C117.658 22.9883 114.928 18.4373 114.928 13.8833C118.57 16.6163 123.124 15.7043 127.456 32.2313C127.819 32.1413 130.405 18.4373 130.405 18.4373C134.959 22.9913 140.476 27.1313 138.109 35.8733C148.579 35.4173 157.411 31.7753 165.334 25.3103C165.697 25.7663 158.233 35.6003 154.318 39.9683C173.203 38.4653 184.183 49.0733 200.572 54.0803C195.472 55.2653 191.467 56.2643 187.006 57.4493C204.16 67.6013 201.574 79.3913 208.768 90.2273C207.493 89.8643 205.672 89.4083 202.849 88.6793C200.299 99.8783 198.334 110.123 196.876 121.322C196.33 125.054 202.339 134.069 205.981 137.711L205.969 137.708Z" fill="white"/>
<path d="M222.493 123.386C216.766 124.241 214.354 126.245 212.458 131.717C211.984 133.082 210.019 132.902 209.809 131.471C208.954 125.744 206.95 123.332 201.478 121.436C200.113 120.962 200.293 118.997 201.724 118.787C207.451 117.932 209.863 115.928 211.759 110.456C212.233 109.091 214.198 109.271 214.408 110.702C215.263 116.429 217.267 118.841 222.739 120.737C224.104 121.211 223.924 123.176 222.493 123.386Z" fill="white"/>
<path d="M196.864 121.319C198.322 110.12 200.287 99.8779 202.837 88.6759C205.66 89.4049 207.481 89.8609 208.756 90.2239C201.562 79.3879 204.148 67.5979 186.994 57.4459C191.455 56.2609 195.463 55.2619 200.56 54.0769C184.171 49.0699 173.191 38.4619 154.306 39.9649C158.221 35.5939 165.688 25.7599 165.322 25.3069C157.402 31.7719 148.57 35.4139 138.097 35.8699C140.464 27.1279 134.947 22.9849 130.393 18.4339C130.393 18.4339 127.807 32.1379 127.444 32.2279C123.109 15.7009 118.558 16.6129 114.916 13.8799C114.916 18.4339 117.649 22.9849 113.968 24.4879C108.868 24.2149 104.134 23.7589 99.3999 23.6689C94.5729 23.6689 89.6589 23.9419 84.7419 24.2149C84.4959 24.2329 84.2229 24.2869 83.9499 24.3709H83.9409C83.8029 24.4069 83.6679 24.4519 83.5299 24.4969C83.4039 24.5419 83.2839 24.5869 83.1669 24.6439C82.8219 24.7999 82.5099 24.9799 82.2669 25.1899C82.1949 25.2529 82.1289 25.3159 82.0749 25.3819C82.0119 25.4449 81.9669 25.5199 81.9189 25.5829C75.2709 36.0529 65.0739 41.6989 54.0579 45.9769C49.9599 47.5249 49.9599 49.3459 52.4199 52.1689C55.0599 55.3549 57.8829 58.4509 61.0689 61.9099C53.3289 65.6419 46.4109 64.2769 39.4899 60.8179C38.2149 60.0889 36.6669 58.9969 35.4849 59.1799C35.0289 59.2429 34.5849 59.3179 34.1289 59.3989C33.7179 59.4709 33.3099 59.5459 32.8989 59.6269L32.0529 59.7919C31.9989 59.8009 31.9449 59.8189 31.8879 59.8279C31.0599 60.0019 30.2229 60.1909 29.3919 60.3919C28.9539 60.4909 28.5189 60.5929 28.0899 60.7009C26.8149 61.0099 25.5489 61.3279 24.2829 61.6399C24.1929 61.9129 24.1929 62.1859 24.0999 62.4589C27.4689 63.2779 30.9279 64.0969 33.2949 64.6429C30.3819 73.6579 24.7359 81.2869 22.9509 90.3649C20.2569 104.069 13.6269 117.179 13.1709 118.817C20.0919 116.36 26.1909 114.263 33.6579 111.623C32.7459 113.9 31.9269 117.086 30.4719 119.09C29.1969 120.821 26.9199 121.913 25.4649 123.644C22.3689 127.376 20.8209 133.295 20.9109 138.212V138.941C21.0489 147.719 24.5979 153.764 31.6359 158.153C32.8749 158.927 34.2129 159.647 35.6709 160.319C36.9189 160.901 38.2569 161.456 39.6669 161.975C36.4809 164.888 34.2039 166.982 31.7469 169.169H43.6749C42.4899 171.08 41.4909 172.721 40.0329 175.178C42.5829 174.815 44.4039 174.905 45.7689 174.266C48.9549 172.718 50.8689 173.537 53.0529 176.177C58.7889 182.825 66.0729 187.559 74.4489 190.382C78.7269 191.84 91.0209 197.393 121.066 194.66C131.992 192.749 142.282 189.197 151.567 183.005C155.392 186.647 159.124 189.38 164.95 188.558C163.402 186.281 162.4 184.733 160.579 182.183C168.409 185.915 175.057 187.19 181.975 184.823C179.242 180.998 176.875 177.722 174.601 174.353C178.516 175.355 187.531 171.074 188.896 168.161C188.26 167.615 188.533 167.432 188.896 167.432C191.353 167.342 198.856 169.937 200.497 168.662C196.855 165.02 196.819 162.425 196.909 160.058C196.999 158.6 196.453 156.962 196.909 155.687C199.459 149.039 200.368 142.304 198.64 135.383C201.409 137.705 205.777 137.795 205.96 137.705C202.318 134.063 196.309 125.048 196.855 121.316L196.864 121.319ZM151.483 117.176C158.968 126.281 155.827 138.608 144.964 142.733C144.865 142.778 144.763 142.814 144.655 142.85C141.832 143.942 129.904 144.035 127.174 143.213C121.027 141.254 116.62 137.468 115.411 130.994V130.949C115.411 130.949 115.411 130.931 115.402 130.922C115.384 130.805 115.357 130.676 115.339 130.559C114.466 125.387 116.023 121.253 119.053 117.83C119.062 117.821 119.071 117.812 119.08 117.794C120.154 116.591 121.411 115.481 122.803 114.443C126.799 111.476 131.698 110.135 136.48 110.291H136.498C142.288 110.474 147.889 112.841 151.486 117.173L151.483 117.176ZM146.02 109.346C134.002 105.521 123.895 108.071 114.88 118.268C113.695 115.262 112.603 113.168 111.967 110.984C110.509 106.43 111.967 103.883 116.611 104.156C125.26 104.612 133.819 105.794 142.378 106.796C143.743 106.979 144.928 108.161 146.02 109.346ZM115.336 84.7609C116.974 82.0279 119.434 82.3039 123.256 83.7589C128.173 85.7629 130.813 88.5859 133.18 92.5009C134.818 95.0509 136.639 97.6009 138.28 100.058C138.736 100.787 139.099 101.423 139.645 102.335C130.45 101.516 121.525 100.877 112.693 99.8779C111.781 99.7879 110.143 98.1469 110.326 97.6009C111.784 93.2299 112.966 88.5859 115.333 84.7639L115.336 84.7609ZM107.05 114.446C111.482 117.116 113.151 120.697 112.057 125.189C110.419 132.017 113.059 137.744 118.705 142.49C124.933 147.725 139.501 147.725 148.204 144.584C159.04 140.669 161.134 129.014 154.942 118.178C156.4 118.451 157.219 118.724 158.857 119.09C157.036 115.631 155.488 112.808 153.85 109.802C154.669 109.619 155.215 109.439 155.215 109.529C161.68 118.361 166.414 127.649 164.503 139.028C163.774 143.306 161.497 146.312 157.219 147.131C143.014 150.137 128.902 148.952 114.97 145.22C109.963 143.855 106.957 139.94 106.048 134.477C105.046 127.739 104.956 121.094 107.05 114.446ZM102.499 115.445C102.136 115.991 100.951 116.63 100.588 116.447C99.8589 116.174 99.0399 115.262 98.8569 114.443C98.4939 112.622 98.5839 110.801 98.3109 108.89C98.0379 107.159 97.5819 105.431 97.2189 103.517C102.409 105.065 105.049 111.347 102.499 115.445ZM68.4369 123.086C68.4729 123.041 68.5089 123.005 68.5539 122.969C68.5989 122.924 68.6529 122.888 68.7009 122.852C68.7909 122.753 68.8749 122.651 68.9649 122.561C69.2019 122.333 69.4659 122.141 69.7389 121.961C69.8559 121.88 69.9849 121.805 70.1109 121.742C70.4019 121.604 70.7019 121.46 71.0229 121.379C71.6889 121.196 72.2979 121.205 72.9609 121.334C73.5609 121.451 74.1909 121.835 74.6169 122.273C75.1269 122.792 75.4809 123.458 75.6729 124.157C75.7629 124.511 75.8109 124.877 75.8559 125.24C75.8649 125.387 75.8829 125.531 75.8739 125.678C75.8379 126.269 75.7179 126.881 75.3909 127.4C75.0999 127.847 74.6889 128.3 74.1969 128.537C73.6239 128.819 73.1769 128.939 72.5229 128.966C72.1119 128.993 71.6769 128.921 71.2749 128.828C70.8549 128.747 70.4649 128.564 70.0719 128.39C69.8529 128.3 69.6429 128.18 69.4449 128.045C69.1269 127.826 68.7789 127.58 68.5239 127.28C68.1519 126.833 67.8669 126.443 67.7139 125.87C67.5759 125.378 67.5489 124.751 67.7409 124.259C67.9419 123.731 68.0499 123.521 68.4339 123.095L68.4369 123.086ZM60.3429 109.163C64.2579 107.342 65.8059 109.346 67.7169 112.442C64.6209 114.263 61.7079 115.994 58.4289 117.995C57.3369 114.353 55.6059 111.347 60.3399 109.163H60.3429ZM51.3279 118.178C54.8799 119.363 57.1539 120.635 56.5179 125.552C55.6059 132.653 62.0709 138.389 69.8109 138.389C76.6389 138.389 82.7409 131.741 82.6479 124.55C82.5579 122.639 82.9209 120.725 83.1039 117.722C82.6479 117.359 81.2829 116.72 80.5539 115.718C79.9179 114.716 79.9179 113.261 79.6419 111.986C81.0999 111.896 83.0109 111.257 83.8299 111.986C91.1139 117.539 91.1499 128.24 84.8679 134.975C75.6729 144.992 56.0589 142.304 50.2329 129.647C51.5979 129.737 52.6899 129.737 54.3309 129.92C50.6289 125.61 49.6269 121.695 51.3249 118.175L51.3279 118.178ZM45.0459 125.099C50.1459 141.761 66.2979 148.271 81.2289 141.353C92.3379 136.163 95.9439 124.919 89.2059 114.722C87.8409 112.628 86.0199 110.807 84.4719 108.803C84.5619 108.53 84.4719 108.074 84.7449 107.891C86.7489 106.343 88.9329 104.885 91.0269 103.337C92.1189 105.704 93.6669 107.981 94.2129 110.531C96.2169 119.453 95.0319 128.378 92.3919 137.027C90.9339 141.854 87.2919 144.494 82.5579 144.674C74.6379 144.947 66.6249 145.22 58.7949 144.401C47.4129 143.126 44.0439 138.026 45.0459 125.099ZM189.58 162.293C186.484 160.472 187.357 159.062 187.54 155.783C187.63 153.962 187.084 151.412 185.809 150.41C184.351 149.318 181.894 149.408 179.8 149.408C178.798 149.318 177.796 150.044 176.794 150.5C179.251 146.039 181.801 141.578 184.261 137.117C178.981 140.396 175.885 145.13 174.427 150.776C172.333 158.696 176.794 163.16 184.717 161.246C187.759 165.026 185.173 167.072 178.525 168.53C177.706 166.799 176.74 164.024 175.921 162.293C175.375 162.203 172.825 163.205 172.279 163.205C173.191 165.938 174.829 167.666 174.1 170.489C172.279 170.306 168.328 169.988 165.868 169.805C166.231 167.621 166.597 166.073 166.87 164.525C164.959 165.527 164.137 166.982 162.955 168.167C157.948 172.901 153.487 178.637 147.658 182.099C123.346 196.304 97.6719 196.394 71.7219 186.743C57.5169 181.463 48.5949 171.083 46.5909 155.513C46.5009 154.328 45.7719 153.146 45.3159 151.961C44.9529 152.051 44.5869 152.144 44.2239 152.324V158.699C41.8659 158.672 39.7539 158.444 37.8609 158.024C36.1029 157.643 34.5279 157.085 33.1179 156.377C28.1469 153.899 25.1769 149.447 23.2479 143.267C22.4199 140.618 21.9909 137.84 22.0839 135.062C22.1109 134.216 22.2219 133.367 22.5579 132.548V132.539C23.2599 130.808 24.1779 129.152 25.2789 127.667C25.2789 127.667 25.2819 127.664 25.2879 127.658C26.8629 125.537 28.8039 123.77 31.0239 122.642C38.1249 123.827 40.3119 125.921 42.1329 133.841C42.3339 134.732 42.5709 135.59 42.8529 136.4C43.4169 138.065 44.1549 139.559 45.0759 140.87C47.4339 144.239 50.9589 146.378 55.7919 146.951C63.3489 147.77 70.9959 148.589 78.5559 148.316C90.8469 147.77 95.8569 142.943 98.5869 130.742C98.9499 129.467 99.3159 128.192 99.7719 126.917C100.135 126.917 100.591 127.007 101.047 127.007C101.23 129.284 101.32 131.561 101.593 133.835C102.412 140.3 104.416 145.946 111.427 147.857C126.268 151.955 141.382 153.503 156.769 150.863C161.776 150.044 165.874 147.584 167.695 142.121C168.697 143.579 169.426 144.761 170.245 145.853C171.337 143.849 171.43 141.938 171.61 140.027C172.339 133.652 177.802 128.555 183.901 128.465C188.455 128.375 195.739 134.564 196.465 139.301C197.557 147.314 195.319 156.191 189.583 162.29L189.58 162.293ZM176.704 150.683C177.889 150.956 179.071 151.229 180.163 151.595C181.528 152.051 182.896 152.597 184.261 153.053C183.532 154.238 182.896 156.239 181.894 156.512C180.436 156.875 178.162 156.422 177.16 155.42C176.341 154.508 176.797 152.324 176.704 150.686V150.683Z" fill="black"/>
<path d="M66.5317 155.783C67.6237 162.248 69.7177 168.986 77.1847 172.535C91.5697 179.456 106.504 180.548 121.528 175.085C127.903 172.718 131.908 167.801 133.819 161.336C111.421 156.875 89.2027 154.052 66.5317 155.783ZM69.8107 158.33C90.0247 156.872 109.237 159.422 128.902 163.61C121.528 167.069 74.9077 163.064 69.8107 158.33Z" fill="black"/>
<path d="M80.911 12.887C80.857 12.494 80.785 12.113 80.701 11.732C80.674 11.606 80.647 11.486 80.62 11.369C80.53 10.988 80.419 10.604 80.302 10.223C80.185 9.82998 80.047 9.44898 79.882 9.07698C79.717 8.66598 79.537 8.26698 79.336 7.87398C79.255 7.72698 79.171 7.58298 79.09 7.43598C78.991 7.25298 78.889 7.08198 78.781 6.90798C78.673 6.73398 78.562 6.56298 78.445 6.39798C78.337 6.23298 78.217 6.06198 78.091 5.90598C77.974 5.74098 77.845 5.57898 77.71 5.42298C77.584 5.26698 77.446 5.11398 77.308 4.95798C77.152 4.78398 76.99 4.62198 76.825 4.46598C76.717 4.35798 76.597 4.24698 76.48 4.14798C76.381 4.04898 76.27 3.95598 76.162 3.86598C76.153 3.84798 76.135 3.83898 76.126 3.82998C76.018 3.73998 75.898 3.64698 75.781 3.55698C75.535 3.36498 75.271 3.17598 75.007 3.00198C74.962 2.97498 74.926 2.94798 74.881 2.92098C74.608 2.73798 74.326 2.57598 74.035 2.41998C73.927 2.35698 73.798 2.29398 73.681 2.23698C73.645 2.21898 73.618 2.20098 73.582 2.18298C73.381 2.08398 73.171 1.99098 72.964 1.90098C72.691 1.77498 72.418 1.66398 72.127 1.57398C71.953 1.51098 71.782 1.45698 71.608 1.39998C71.572 1.39098 71.545 1.37298 71.509 1.36398C71.392 1.31898 71.263 1.28298 71.137 1.25598C70.717 1.13898 70.291 1.03698 69.844 0.95598C69.688 0.92898 69.535 0.901979 69.37 0.874979C69.169 0.838979 68.959 0.811978 68.752 0.784978C68.488 0.748978 68.215 0.721976 67.933 0.703976C67.615 0.676976 67.288 0.658979 66.949 0.649979H66.94C66.904 0.640979 66.859 0.640979 66.823 0.640979C65.767 0.622979 64.702 0.60498 63.646 0.60498C63.199 0.60498 62.755 0.60498 62.308 0.61398H62.299C61.69 0.61398 61.078 0.622979 60.469 0.640979C60.343 0.640979 60.223 0.640979 60.106 0.649979C59.368 0.667979 58.639 0.68598 57.913 0.72198H57.904C57.448 0.73998 57.004 0.757978 56.548 0.784978C56.101 0.811978 55.648 0.838979 55.192 0.865979C53.389 0.973979 51.586 1.13898 49.801 1.34898C49.354 1.39398 48.91 1.44798 48.463 1.51398C47.926 1.57698 47.38 1.66098 46.843 1.74198C46.471 1.79598 46.087 1.84998 45.715 1.91598C45.55 1.93398 45.397 1.96098 45.232 1.98798C44.74 2.06898 44.248 2.16198 43.756 2.25198C43.456 2.30598 43.165 2.35998 42.874 2.42598C42.529 2.48898 42.19 2.55198 41.854 2.62698C41.281 2.74398 40.717 2.86398 40.159 2.99898C39.868 3.06198 39.568 3.13698 39.277 3.19998C39.004 3.27198 38.731 3.33798 38.458 3.40998C38.284 3.45498 38.122 3.49998 37.948 3.54798C37.648 3.61998 37.348 3.69498 37.057 3.78498C37.048 3.78498 37.039 3.79398 37.03 3.79398C36.046 4.05798 35.062 4.34898 34.099 4.66698C33.706 4.79298 33.316 4.91298 32.935 5.04798C32.926 5.04798 32.917 5.05698 32.908 5.05698C32.398 5.23098 31.897 5.40198 31.405 5.58498C31.324 5.61198 31.24 5.64798 31.159 5.67498C30.868 5.78298 30.586 5.89398 30.304 6.00198C28.855 6.55698 27.436 7.16598 26.026 7.83198C25.708 7.97898 25.381 8.13198 25.06 8.28798C24.742 8.44398 24.433 8.59698 24.112 8.76198C23.785 8.92698 23.446 9.09798 23.119 9.28098C22.738 9.48198 22.354 9.69198 21.973 9.90798C21.718 10.046 21.463 10.19 21.208 10.337C21.016 10.445 20.815 10.565 20.626 10.682C20.281 10.874 19.942 11.084 19.606 11.291C18.715 11.837 17.821 12.419 16.939 13.022C10.747 17.3 4.82797 22.217 2.18797 29.501C-2.54603 42.611 1.91497 51.899 15.391 54.905C20.491 55.997 26.227 55.541 31.507 54.815C31.762 54.779 32.008 54.743 32.254 54.725C32.344 54.716 32.437 54.707 32.518 54.707C32.719 54.689 32.911 54.68 33.091 54.68C33.238 54.68 33.373 54.68 33.52 54.689C33.637 54.689 33.748 54.698 33.856 54.707C34.021 54.716 34.183 54.734 34.339 54.761H34.348C34.54 54.788 34.72 54.824 34.912 54.869C35.068 54.905 35.212 54.941 35.368 54.995C35.395 55.004 35.431 55.013 35.467 55.031C35.593 55.067 35.731 55.121 35.86 55.178C35.878 55.187 35.887 55.187 35.905 55.196C36.097 55.277 36.286 55.37 36.478 55.478C36.634 55.559 36.787 55.652 36.943 55.751C36.961 55.76 36.97 55.769 36.979 55.778C37.144 55.877 37.297 55.997 37.462 56.114C37.636 56.24 37.816 56.387 37.999 56.543C38.173 56.681 38.344 56.834 38.518 56.999C43.981 61.733 50.173 64.01 58.093 61.826C54.997 58.184 52.174 55.634 50.173 52.538C47.167 47.984 47.623 47.348 52.54 45.071C56.182 43.433 59.914 41.702 63.376 39.608C69.658 35.876 75.121 31.049 78.856 24.494C78.994 24.257 79.12 24.02 79.249 23.774C79.294 23.693 79.33 23.609 79.375 23.519C79.483 23.291 79.594 23.054 79.693 22.808C79.81 22.535 79.93 22.244 80.038 21.953C80.038 21.944 80.038 21.935 80.047 21.917C80.155 21.617 80.257 21.308 80.347 20.996C80.455 20.651 80.548 20.294 80.629 19.94C80.692 19.676 80.746 19.412 80.803 19.139C80.839 18.947 80.875 18.758 80.902 18.557C80.956 18.23 81.001 17.891 81.04 17.564V17.546C81.058 17.354 81.076 17.153 81.085 16.964C81.103 16.799 81.112 16.637 81.121 16.472C81.175 15.278 81.112 14.078 80.938 12.893L80.911 12.887ZM77.095 21.209C74.272 26.309 69.721 30.86 65.077 34.592C60.616 38.051 55.06 40.238 49.873 42.788C45.046 45.065 44.227 46.34 46.594 51.347C46.612 51.392 46.639 51.428 46.657 51.473C47.086 52.628 47.731 53.594 48.259 54.269C49.324 55.952 50.563 57.656 51.838 59.585H51.748C49.471 59.585 47.113 59.102 44.356 57.983C42.124 56.999 40.132 55.616 38.401 53.714C36.49 51.53 34.849 51.437 32.209 51.983C25.198 53.531 18.097 54.167 11.359 50.708C4.84897 47.366 2.39197 43.031 3.15397 36.296V36.287C3.21697 35.678 3.31897 35.057 3.43597 34.412C3.85597 32.189 4.59997 30.161 5.60197 28.292C7.22197 25.268 9.49897 22.664 12.085 20.297C23.449 9.96198 36.514 5.02698 50.518 3.60798C52.231 3.43398 53.959 3.30798 55.699 3.24498C56.035 3.22698 56.383 3.20898 56.719 3.19998C58.111 3.15498 59.506 3.14598 60.898 3.17298C62.092 3.17298 63.292 3.20898 64.504 3.26298H64.513C65.971 3.32598 67.435 3.42798 68.902 3.54498C69.166 3.56298 69.421 3.59898 69.676 3.63498C77.278 4.77198 81.238 13.631 77.098 21.209H77.095Z" fill="black"/>
<path d="M40.9751 142.925C40.9211 142.769 40.8671 142.607 40.8011 142.442C40.2281 141.002 39.5441 139.664 38.7431 138.446V138.437C36.7841 135.47 34.1171 133.184 30.6041 131.744C29.9201 131.462 29.1101 131.489 28.3091 131.516C28.3091 131.516 28.1831 131.453 28.1441 131.516C27.8441 131.525 27.5441 131.534 27.2531 131.516C27.1991 131.879 27.1361 132.254 27.0791 132.626C27.1961 132.68 27.3071 132.725 27.4241 132.782C28.1441 133.109 28.8551 133.466 29.5901 133.757C33.9251 135.431 37.1831 138.209 38.3861 142.826C38.6051 143.681 37.7291 144.83 37.3571 145.85C36.4181 145.121 34.9631 144.557 34.6631 143.618C34.1981 142.178 34.5371 140.486 34.5371 138.902C34.0721 138.848 33.6071 138.803 33.1451 138.746C32.9891 140.978 32.2451 143.372 32.8181 145.394C33.5741 148.079 35.1851 151.313 38.8451 149.828C41.9591 148.571 41.9771 145.766 40.9931 142.955C40.9931 142.946 40.9841 142.937 40.9751 142.928V142.925Z" fill="black"/>
<path d="M136.297 114.845C135.64 114.764 134.968 114.719 134.275 114.719C129.469 114.773 125.344 117.005 122.758 120.527C122.749 120.536 122.749 120.545 122.74 120.545C120.973 122.975 119.926 126.008 119.89 129.377C119.89 129.704 119.899 130.034 119.926 130.361C119.926 130.37 119.926 130.388 119.935 130.397C120.481 136.58 126.754 141.569 134.185 141.488C137.509 141.488 140.521 140.441 142.918 138.638C146.287 136.106 148.426 132.101 148.48 127.466C148.48 120.893 143.308 115.685 136.297 114.845ZM136.87 130.343C136.606 130.634 136.27 130.889 135.931 131.099C135.748 131.216 135.55 131.291 135.349 131.381C135.157 131.462 134.968 131.546 134.758 131.6C134.329 131.708 133.876 131.774 133.429 131.756C132.946 131.738 132.436 131.684 131.98 131.51C131.38 131.291 130.897 131.045 130.432 130.598C129.994 130.178 129.739 129.698 129.541 129.14C129.277 128.42 129.304 127.475 129.559 126.755C129.85 125.963 130.288 125.198 130.951 124.661C131.188 124.478 131.434 124.268 131.698 124.115C131.962 123.968 132.244 123.86 132.526 123.752C132.691 123.68 132.862 123.653 133.027 123.605C133.072 123.596 133.117 123.569 133.165 123.551C133.612 123.404 134.113 123.323 134.584 123.332C135.229 123.341 135.73 123.488 136.306 123.77C137.152 124.181 137.755 125.072 138.001 125.963C138.439 127.511 137.911 129.158 136.873 130.343H136.87Z" fill="black"/>
<path d="M65.1312 5.00322C65.0862 4.97622 65.0412 4.95822 64.9932 4.94922L65.0472 5.12322C65.0652 5.08722 65.0922 5.04222 65.1282 5.00622L65.1312 5.00322Z" fill="black"/>
<path d="M20.8057 80.4288C16.6177 81.4578 14.9617 83.1138 13.9327 87.3018C13.6777 88.3578 12.2017 88.3578 11.9467 87.3018C10.9177 83.1138 9.26174 81.4548 5.07374 80.4288C4.01774 80.1738 4.01774 78.6978 5.07374 78.4428C9.26174 77.4138 10.9207 75.7578 11.9467 71.5698C12.2017 70.5138 13.6777 70.5138 13.9327 71.5698C14.9617 75.7578 16.6177 77.4138 20.8057 78.4428C21.8617 78.6978 21.8617 80.1738 20.8057 80.4288Z" fill="black"/>
<path d="M222.493 123.386C216.766 124.241 214.354 126.245 212.458 131.717C211.984 133.082 210.019 132.902 209.809 131.471C208.954 125.744 206.95 123.332 201.478 121.436C200.113 120.962 200.293 118.997 201.724 118.787C207.451 117.932 209.863 115.928 211.759 110.456C212.233 109.091 214.198 109.271 214.408 110.702C215.263 116.429 217.267 118.841 222.739 120.737C224.104 121.211 223.924 123.176 222.493 123.386Z" fill="black"/>
<path d="M41.0109 155.264C40.5639 155.372 39.2439 156.62 37.8609 158.024C37.1139 158.789 36.3489 159.608 35.6769 160.319C34.6479 161.438 33.8829 162.296 33.8829 162.296C31.1499 162.296 30.7239 160.667 30.7239 160.667C30.6069 159.956 31.0059 159.074 31.6449 158.153C32.0649 157.562 32.5839 156.95 33.1209 156.377C34.7499 154.646 36.6159 153.191 36.6159 153.191C36.6159 153.191 42.0789 155.012 41.0139 155.267L41.0109 155.264Z" fill="black"/>
<path d="M20.7218 29.6238L18.8318 30.6258L24.1568 42.1308L18.9848 44.4858L14.5478 32.8878L11.5328 34.4598L10.0928 30.9888L19.0988 26.3208L20.7158 29.6238H20.7218Z" fill="black"/>
<path d="M21.0098 26.0991L25.3868 24.4161L27.0098 27.6052L29.3798 22.2021C30.3998 22.6221 31.1738 22.9582 31.7018 23.2072C33.2798 23.9002 34.0448 24.2572 33.9998 24.2812L31.0928 30.8032L38.0078 32.3991C37.7768 33.0501 37.5188 33.8272 37.2338 34.7302C36.7328 36.2782 36.4958 37.0432 36.5288 37.0282L31.5938 36.0561L32.7008 38.2372L27.5288 40.5922L21.0128 26.0991H21.0098Z" fill="black"/>
<path d="M36.7269 26.429L36.4719 26.12C36.1869 25.703 35.9589 25.262 35.7849 24.794C35.2329 23.294 35.3979 21.899 36.2829 20.612C36.9789 19.58 38.1639 18.626 39.8379 17.75C40.6419 17.327 41.4279 16.979 42.1899 16.709L44.1909 21.788C44.3019 21.662 44.1219 21.593 43.6449 21.584C43.1799 21.551 42.6819 21.599 42.1569 21.725C40.6629 22.085 40.1529 22.721 40.6269 23.636C40.7019 23.924 41.0499 24.092 41.6769 24.146L43.7469 24.221C45.8289 24.326 47.1519 24.959 47.7159 26.114C47.9139 26.552 48.0489 27.008 48.1149 27.485C48.2679 28.526 48.1059 29.45 47.6229 30.251C46.6719 31.928 45.0549 33.134 42.7749 33.872C42.0069 34.127 41.2779 34.289 40.5939 34.358C39.9789 34.412 39.7029 34.388 39.7689 34.283L38.5869 31.007C39.0249 30.938 39.4629 30.824 39.9009 30.662C40.8639 30.338 41.5509 29.882 41.9649 29.3C42.2019 28.91 42.1659 28.643 41.8569 28.502C41.6919 28.427 41.2179 28.34 40.4379 28.244C38.6499 28.004 37.4439 27.422 36.8199 26.501C36.8349 26.534 36.8049 26.507 36.7299 26.429H36.7269Z" fill="black"/>
<path d="M58.255 19.2232L53.959 21.2662L49.897 12.4072L54.295 9.78223L58.255 19.2232ZM58.759 26.5372C59.383 26.2522 59.821 25.6852 60.076 24.8362C60.307 24.0172 60.268 23.2702 59.962 22.5982C59.677 21.9742 59.209 21.6052 58.552 21.4882C57.964 21.3982 57.319 21.5122 56.617 21.8332C55.993 22.1182 55.603 22.6432 55.444 23.4142C55.303 24.1372 55.393 24.8512 55.711 25.5532C56.308 26.8642 57.325 27.1912 58.759 26.5372Z" fill="black"/>
<path d="M65.3199 16.004L61.0239 18.047L56.9619 9.18799L61.3599 6.56299L65.3199 16.004ZM65.8269 23.318C66.4509 23.033 66.8889 22.466 67.1439 21.617C67.3719 20.798 67.3359 20.051 67.0299 19.379C66.7449 18.755 66.2769 18.386 65.6199 18.269C65.0319 18.179 64.3869 18.293 63.6849 18.614C63.0609 18.899 62.6709 19.424 62.5119 20.195C62.3709 20.918 62.4609 21.632 62.7789 22.334C63.3759 23.645 64.3929 23.972 65.8269 23.318Z" fill="black"/>
</svg>
