<svg width="236" height="206" viewBox="0 0 236 206" fill="none" xmlns="http://www.w3.org/2000/svg">
<path d="M111.622 205.804C93.4209 205.804 84.1719 202.459 79.7289 200.851C79.3479 200.713 79.0119 200.59 78.7149 200.491C69.2529 197.302 61.2579 191.989 54.9699 184.702L54.8979 184.618C54.6729 184.345 54.4929 184.15 54.3579 184.018C54.2919 184.048 54.2169 184.081 54.1329 184.12L54.0579 184.156C52.2969 184.978 50.5479 185.137 48.8589 185.293C48.2019 185.353 47.5209 185.416 46.8009 185.518L35.6469 187.111L40.1199 179.563H23.5479L33.7089 170.53C32.5689 169.522 31.8249 168.274 31.4979 167.029L31.4349 166.789L31.3959 166.546C31.3239 166.114 31.2909 165.679 31.2999 165.244C24.8649 159.991 21.6579 153.007 21.5169 144.016V143.251C21.4389 138.619 22.5759 132.259 25.8549 127.18C24.2589 127.741 22.6509 128.308 20.9829 128.899L11.1909 132.376L13.9719 122.362C14.1729 121.639 14.5299 120.823 15.3069 119.032C17.3709 114.295 21.6639 104.434 23.6559 94.3119C24.8139 88.4289 27.3099 83.2749 29.7219 78.2919C30.5169 76.6509 31.2909 75.0549 32.0049 73.4619C30.9339 73.2039 29.8569 72.9459 28.8249 72.6939L23.1279 71.3079L24.8919 66.0039C24.9369 65.7459 25.0149 65.3619 25.1619 64.9179L26.1039 62.0889L28.9989 61.3809C29.5569 61.2429 30.1179 61.1049 30.6759 60.9669C31.3779 60.7929 32.0799 60.6189 32.7849 60.4479C33.2349 60.3339 33.6909 60.2289 34.1499 60.1239C35.0589 59.9049 35.9319 59.7069 36.7419 59.5359C36.8289 59.5149 36.9339 59.4909 37.0539 59.4699L37.8579 59.3139C38.2959 59.2269 38.7339 59.1489 39.1719 59.0709C39.7089 58.9749 40.2159 58.8939 40.7109 58.8219C41.0529 58.7709 41.4009 58.7469 41.7519 58.7469C44.1849 58.7469 46.1709 59.9319 47.6229 60.7959C47.7639 60.8799 47.9049 60.9639 48.0429 61.0449C51.3819 62.6979 54.2259 63.5529 56.9019 63.7029C56.0169 62.6889 55.1469 61.6719 54.3009 60.6519C53.3139 59.5179 50.5359 56.2509 51.5589 52.1829C52.6059 48.0279 56.7339 46.4469 58.1229 45.9219C67.0869 42.4389 77.0919 37.5429 83.3559 27.6759L83.4339 27.5529L83.5179 27.4359C83.6439 27.2529 83.8299 27.0009 84.0879 26.7219C84.2799 26.5089 84.4869 26.3049 84.7089 26.1129L84.7599 26.0679C85.3779 25.5399 86.1099 25.0869 86.9319 24.7149C87.2469 24.5709 87.5259 24.4689 87.7089 24.4029L87.8229 24.3639C88.0089 24.3009 88.2519 24.2199 88.5459 24.1419L89.2299 23.9589H89.3109C89.6559 23.8899 90.0009 23.8449 90.3369 23.8179L90.4389 23.8119C95.3529 23.5389 100.426 23.2569 105.397 23.2569H105.502C108.652 23.3199 111.697 23.5269 114.919 23.7459C115.306 23.7729 115.696 23.7999 116.086 23.8239C115.816 22.4079 115.513 20.6919 115.513 18.8679V8.06787L124.153 14.5479C124.516 14.8209 125.032 15.0969 125.629 15.4149C127.702 16.5219 129.679 17.7609 131.557 19.9239L132.982 12.3729L140.212 19.6029C140.644 20.0349 141.085 20.4639 141.526 20.8929C144.712 23.9859 149.113 28.2579 149.926 34.7589C156.427 33.5019 162.352 30.6459 167.905 26.1129L172.129 22.6659L175.534 26.9229C176.233 27.7959 177.658 30.1809 175.837 33.4839C175.585 33.9429 175.237 34.4979 174.778 35.1789C174.037 36.2799 172.978 37.7439 171.724 39.4089C171.58 39.5979 171.439 39.7869 171.292 39.9759C179.692 41.2749 186.691 44.5989 193.51 47.8359C198.148 50.0379 202.942 52.3149 208.132 53.9019L227.365 59.7789L207.775 64.3269C206.842 64.5429 205.939 64.7559 205.054 64.9659C210.718 70.7799 212.863 76.8459 214.822 82.3869C216.058 85.8819 217.225 89.1819 219.244 92.2269L227.344 104.428L213.262 100.405C213.142 100.372 213.019 100.336 212.887 100.3C210.808 109.942 209.344 118.315 208.228 126.859C208.501 128.968 212.44 135.541 215.779 138.877L221.077 144.175L214.375 147.526C213.325 148.051 212.368 148.117 211.654 148.117C211.546 148.117 211.297 148.117 210.934 148.093C210.874 152.629 209.944 157.276 208.135 162.124C208.147 162.304 208.174 162.541 208.192 162.733C208.267 163.444 208.357 164.323 208.303 165.307C208.243 166.87 208.231 167.752 210.316 169.834L214.642 174.16L209.815 177.916C208.525 178.918 206.926 179.407 204.922 179.407C202.918 179.407 200.482 178.9 198.175 178.408C198.01 178.372 197.833 178.336 197.65 178.297C195.664 180.226 192.793 181.927 189.829 183.118C190.273 183.742 192.373 186.676 192.373 186.676L196.588 192.577L189.727 194.923C186.799 195.925 183.901 196.411 180.871 196.411C180.385 196.411 179.896 196.399 179.407 196.372L180.298 197.683L171.706 198.892C170.767 199.024 169.834 199.09 168.931 199.09C164.023 199.09 160.261 197.194 157.045 194.692C148.609 199.657 139.066 203.029 127.999 204.964L127.78 205.003L127.558 205.024C121.96 205.534 116.599 205.792 111.619 205.792L111.622 205.804Z" fill="white"/>
<path d="M58.2191 73.0511C52.0211 73.0511 46.3721 70.7681 40.9541 66.0701L40.8641 65.9921L40.7771 65.9111C40.6721 65.8121 40.6271 65.7761 40.6241 65.7731L40.5461 65.7101L40.4711 65.6471C40.3571 65.5511 40.2791 65.4881 40.2371 65.4581L40.0721 65.3381L39.8381 65.1971L39.7901 65.1701L39.5441 65.0981L39.4541 65.0831L39.3851 65.0771H39.3221L39.1811 65.0681C39.1631 65.0681 39.0851 65.0681 39.0641 65.0681C39.0641 65.0681 39.0341 65.0681 38.9771 65.0741L38.7341 65.0951H38.6231C38.5151 65.1071 38.4041 65.1281 38.2901 65.1431L38.2451 65.1491C34.2911 65.6951 31.1021 65.9471 28.1861 65.9471C25.2581 65.9471 22.6571 65.6951 20.2331 65.1761L20.1881 65.1671C10.1741 62.9351 5.53306 57.8411 3.40006 53.9651C1.19506 49.9511 -0.649943 42.9971 3.08206 32.6591C6.28006 23.8331 13.3481 18.0581 19.8401 13.5701L19.8731 13.5461C20.8931 12.8531 21.8321 12.2441 22.7441 11.6861C23.0771 11.4791 23.4521 11.2481 23.8691 11.0111C24.0791 10.8821 24.2951 10.7561 24.5051 10.6361C24.7871 10.4741 25.0601 10.3181 25.3301 10.1741C25.7291 9.94908 26.1311 9.72708 26.5331 9.51708C26.9561 9.28308 27.3641 9.07608 27.6461 8.93508C27.9911 8.75808 28.3301 8.59008 28.6751 8.42208C29.0201 8.25408 29.3771 8.08608 29.7251 7.92708C31.2701 7.20108 32.8241 6.53507 34.3451 5.95307C34.6271 5.84207 34.9271 5.72808 35.2361 5.61107C35.2361 5.61107 35.4851 5.51807 35.5511 5.49408C35.9921 5.33208 36.4241 5.17908 36.8171 5.04708L37.6301 4.64507H38.0291C38.0471 4.63907 38.4041 4.52208 38.4041 4.52208C39.2501 4.24308 40.1501 3.97007 41.0771 3.71207L41.7431 3.37907H42.2981C42.4031 3.35207 42.4991 3.32807 42.5951 3.30407L43.0601 3.17807C43.2101 3.13907 43.3721 3.09708 43.5341 3.05808C43.6451 3.03108 43.7561 3.00408 43.8641 2.97408L43.9811 2.94408L44.1011 2.91708C44.2271 2.89008 44.3531 2.86008 44.4821 2.83008C44.6261 2.79708 44.7731 2.76408 44.9141 2.73108C45.5261 2.58108 46.1171 2.45808 46.7171 2.33508C47.0711 2.26008 47.4281 2.19108 47.7911 2.12208C48.1121 2.05308 48.4361 1.99308 48.7691 1.93308C49.2731 1.84008 49.7981 1.74407 50.3201 1.65407L50.3801 1.64507C50.5211 1.62107 50.7011 1.59108 50.9141 1.56408C51.2441 1.51008 51.5801 1.45907 51.9101 1.41107L52.0211 1.39608C52.5911 1.30908 53.1551 1.22508 53.7401 1.15608C54.2201 1.08708 54.7061 1.03007 55.1891 0.979074C57.1001 0.757074 59.0021 0.586076 60.8441 0.475076L62.1971 0.394075C62.6921 0.364075 63.1751 0.343076 63.6671 0.325076H63.6941C64.4441 0.289076 65.1881 0.268075 65.8571 0.253075C66.0611 0.241075 66.2351 0.241077 66.3731 0.241077C66.9941 0.223077 67.6211 0.214078 68.2391 0.214078C68.7041 0.205078 69.1691 0.205078 69.6311 0.205078C70.7201 0.205078 71.8061 0.223077 72.8621 0.241077C72.9581 0.241077 73.1051 0.241076 73.2941 0.259076C73.6421 0.271076 73.9871 0.292075 74.3261 0.319075C74.7101 0.346075 75.0881 0.385076 75.4571 0.433076C75.6911 0.463077 75.9761 0.502078 76.2851 0.556078C76.4531 0.583078 76.8071 0.646078 76.8071 0.646078C77.3681 0.748079 77.9111 0.874077 78.4571 1.02408C78.7361 1.09008 79.0091 1.17408 79.2761 1.26708C79.3061 1.27608 79.3331 1.28808 79.3631 1.29708C79.5281 1.35108 79.6931 1.40507 79.8551 1.46207C80.2931 1.60607 80.7251 1.77407 81.1661 1.97807C81.4091 2.08307 81.6881 2.20608 81.9881 2.35608C82.0361 2.38008 82.0841 2.40407 82.1261 2.42807C82.3031 2.51507 82.4771 2.60507 82.6361 2.69507C83.0531 2.92007 83.4341 3.14508 83.7971 3.38208C83.8211 3.39708 83.9591 3.48707 83.9591 3.48707C84.3341 3.73307 84.7121 4.00308 85.0901 4.29708C85.2341 4.40808 85.3991 4.53708 85.5521 4.66308C85.5791 4.68408 85.7621 4.83707 85.7621 4.83707L85.8131 4.88808C85.9031 4.96608 86.0051 5.05608 86.1131 5.15508C86.2721 5.29608 86.4311 5.44008 86.5811 5.59008C86.8571 5.85108 87.1001 6.10308 87.3281 6.35808L87.3521 6.38508C87.5141 6.56808 87.6701 6.74508 87.8171 6.92208C88.0061 7.14108 88.1891 7.37208 88.3751 7.62108C88.5761 7.87308 88.7411 8.11308 88.8851 8.32608C89.0711 8.59008 89.2211 8.82708 89.3441 9.02208C89.4971 9.26508 89.6501 9.52308 89.8061 9.80808L90.0911 10.3151L90.1391 10.4111C90.4001 10.9211 90.6431 11.4521 90.8591 11.9861C91.0841 12.5081 91.2821 13.0511 91.4591 13.6391C91.6241 14.1761 91.7591 14.6591 91.8671 15.1151L91.8761 15.1541C91.9091 15.2951 91.9421 15.4361 91.9751 15.5891C92.0981 16.1651 92.1851 16.6511 92.2511 17.1221C92.4731 18.6491 92.5511 20.1941 92.4821 21.7091V21.7631C92.4701 21.9251 92.4581 22.1381 92.4371 22.3811C92.4281 22.5131 92.4191 22.6511 92.4071 22.7831V22.8371L92.3741 23.1521C92.3291 23.5691 92.2721 23.9771 92.2091 24.3671C92.1641 24.6791 92.1131 24.9491 92.0741 25.1501L92.0651 25.1921C92.0081 25.4771 91.9391 25.8161 91.8521 26.1761C91.7321 26.6951 91.6121 27.1391 91.4801 27.5651C91.4561 27.6491 91.4291 27.7331 91.4051 27.8141V27.9281L91.0601 28.8461C90.9281 29.1971 90.7841 29.5511 90.6341 29.9021C90.4751 30.2861 90.3161 30.6281 90.2081 30.8531L90.1571 30.9551C90.1001 31.0721 90.0431 31.1861 89.9831 31.3001C89.8121 31.6271 89.6591 31.9061 89.5031 32.1791C85.6031 39.0191 79.9181 44.5991 72.1181 49.2371C68.4281 51.4691 64.5491 53.2691 60.8831 54.9221C61.9031 56.4161 63.2741 57.9041 64.8431 59.6081C65.8541 60.7031 66.9971 61.9451 68.1731 63.3281L73.6571 69.7781L65.4941 72.0311C63.0191 72.7151 60.5681 73.0601 58.2101 73.0601L58.2191 73.0511Z" fill="white"/>
<path d="M18.9399 98.4941C15.9639 98.4941 13.3989 96.4691 12.6969 93.5681C12.1539 91.3571 12.0159 91.2191 9.78391 90.6701C6.90391 89.9741 4.87891 87.4091 4.87891 84.4331C4.87891 81.4571 6.90391 78.8921 9.80491 78.1901C12.0159 77.6471 12.1539 77.5091 12.7029 75.2771C13.3989 72.4001 15.9639 70.3721 18.9399 70.3721C21.9159 70.3721 24.4809 72.3971 25.1799 75.2951C25.7229 77.5091 25.8609 77.6441 28.0929 78.1931C30.9729 78.8891 32.9979 81.4541 32.9979 84.4301C32.9979 87.4061 30.9729 89.9711 28.0719 90.6731C25.8609 91.2161 25.7229 91.3541 25.1739 93.5861C24.4779 96.4661 21.9129 98.4911 18.9369 98.4911L18.9399 98.4941Z" fill="white"/>
<path d="M217.168 143.05C213.778 143.05 210.958 140.614 210.469 137.254C209.911 133.528 209.29 132.778 205.714 131.542C202.75 130.513 200.884 127.621 201.178 124.507C201.472 121.393 203.842 118.903 206.941 118.447C210.667 117.889 211.417 117.268 212.656 113.692C213.604 110.959 216.172 109.126 219.049 109.126C222.439 109.126 225.259 111.562 225.751 114.919C226.309 118.645 226.93 119.395 230.506 120.634C233.47 121.663 235.336 124.555 235.042 127.669C234.748 130.783 232.378 133.273 229.279 133.729C225.553 134.287 224.803 134.908 223.564 138.484C222.616 141.217 220.048 143.05 217.171 143.05H217.168Z" fill="white"/>
</svg>
