<svg width="150" height="115" viewBox="0 0 150 115" fill="none" xmlns="http://www.w3.org/2000/svg">
<g clip-path="url(#clip0_1_825)">
<path d="M10.827 56.7842C10.827 56.7842 2.12678 63.5275 0.523559 67.318C-1.07966 71.1085 1.10063 85.0046 5.67527 85.7515C10.2499 86.5008 10.8689 76.9978 10.827 75.3364C10.827 75.3364 20.1927 70.2522 22.8639 65.2284C25.5352 60.2047 10.827 56.7842 10.827 56.7842Z" fill="#CEE8E3"/>
<path opacity="0.2" d="M10.827 56.7842C10.827 56.7842 2.12678 63.5275 0.523559 67.318C-1.07966 71.1085 1.10063 85.0046 5.67527 85.7515C10.2499 86.5008 10.8689 76.9978 10.827 75.3364C10.827 75.3364 20.1927 70.2522 22.8639 65.2284C25.5352 60.2047 10.827 56.7842 10.827 56.7842Z" fill="#000001"/>
<path d="M7.40645 85.4983C7.06673 84.9236 6.82938 84.3023 6.63625 83.6717C6.44312 83.0411 6.31747 82.3896 6.22905 81.7334C6.08245 80.4257 6.12667 79.0412 6.64789 77.8057C6.68046 78.4735 6.70373 79.1087 6.75027 79.7463C6.81077 80.3815 6.86196 81.0144 6.9434 81.6473C7.08999 82.9155 7.28778 84.1743 7.40645 85.496V85.4983Z" fill="#000001"/>
<path d="M2.97619 83.5272C2.71558 83.0641 2.55503 82.5615 2.44101 82.0543C2.32467 81.547 2.27347 81.0258 2.25719 80.5023C2.24788 79.4645 2.42239 78.3825 2.97619 77.4727C2.98783 78.0055 2.96456 78.5011 2.96456 79.0014C2.97154 79.4994 2.95758 79.9927 2.97619 80.4906C2.98317 81.4865 3.02971 82.4731 2.97619 83.5249V83.5272Z" fill="#000001"/>
<path d="M71.7846 91.9755C71.7846 91.9755 74.0626 100.394 82.2834 103.563C82.2834 103.563 76.3406 106.139 73.8648 109.208C71.389 112.277 72.3802 112.971 73.5669 113.171C74.756 113.369 80.4848 108.971 85.4736 108.159C89.6038 107.489 91.2954 106.237 91.1954 103.265C91.1954 103.265 104.961 97.6205 103.775 88.3106C102.585 79.0008 83.6679 75.3359 83.6679 75.3359L71.7822 91.9755H71.7846Z" fill="#CEE8E3"/>
<path opacity="0.2" d="M71.7846 91.9755C71.7846 91.9755 74.0626 100.394 82.2834 103.563C82.2834 103.563 76.3406 106.139 73.8648 109.208C71.389 112.277 72.3802 112.971 73.5669 113.171C74.756 113.369 80.4848 108.971 85.4736 108.159C89.6038 107.489 91.2954 106.237 91.1954 103.265C91.1954 103.265 104.961 97.6205 103.775 88.3106C102.585 79.0008 83.6679 75.3359 83.6679 75.3359L71.7822 91.9755H71.7846Z" fill="#000001"/>
<path d="M73.5672 113.171C73.5672 113.171 73.3415 111.542 75.338 110.374L73.5672 113.171Z" fill="#000001"/>
<path d="M145.518 9.62219C142.342 11.6419 138.522 14.0851 137.84 17.6197C137.223 20.7842 137.8 24.2652 138.496 27.8649C138.899 29.9498 139.341 32.0812 139.613 34.2057C139.848 35.9788 139.964 37.7518 139.834 39.5017C139.638 42.1403 139.073 44.9791 137.917 47.5317C137.065 49.3955 135.901 51.1105 134.338 52.4763C131.992 54.5286 128.744 55.8084 124.307 55.6735L125.307 50.3147C125.307 50.3147 131.96 47.5736 133.565 40.5627C133.696 40.0229 133.786 39.4574 133.845 38.8664C133.942 37.8728 133.928 36.8723 133.831 35.8578C133.44 31.6228 131.66 27.2157 131.031 22.5457C130.647 19.7069 130.694 16.7704 131.72 13.7105C131.955 13.0218 132.234 12.326 132.572 11.6256C134.21 8.22839 136.555 5.99924 138.996 4.6543C143.869 1.96443 149.132 2.81607 149.919 4.9917C150.465 6.49254 148.222 7.90263 145.521 9.62452L145.518 9.62219Z" fill="#CEE8E3"/>
<path opacity="0.2" d="M145.518 9.62219C142.342 11.6419 138.522 14.0851 137.84 17.6197C137.223 20.7842 137.8 24.2652 138.496 27.8649C138.899 29.9498 139.341 32.0812 139.613 34.2057C139.848 35.9788 139.964 37.7518 139.834 39.5017C139.638 42.1403 139.073 44.9791 137.917 47.5317C137.065 49.3955 135.901 51.1105 134.338 52.4763C131.992 54.5286 128.744 55.8084 124.307 55.6735L125.307 50.3147C125.307 50.3147 131.96 47.5736 133.565 40.5627C133.696 40.0229 133.786 39.4574 133.845 38.8664C133.942 37.8728 133.928 36.8723 133.831 35.8578C133.44 31.6228 131.66 27.2157 131.031 22.5457C130.647 19.7069 130.694 16.7704 131.72 13.7105C131.955 13.0218 132.234 12.326 132.572 11.6256C134.21 8.22839 136.555 5.99924 138.996 4.6543C143.869 1.96443 149.132 2.81607 149.919 4.9917C150.465 6.49254 148.222 7.90263 145.521 9.62452L145.518 9.62219Z" fill="#000001"/>
<path d="M145.518 9.62256C146.149 8.21247 147.501 7.08859 147.501 7.08859C143.68 7.3492 140.823 5.97169 138.996 4.65235C143.869 1.96248 149.132 2.81411 149.918 4.98975C150.465 6.49058 148.222 7.90067 145.521 9.62256H145.518Z" fill="#000001"/>
<path d="M134.059 19.0096C134.131 20.8548 132.448 21.9531 131.031 22.5441C130.647 19.7054 130.694 16.7688 131.72 13.709C132.63 14.8073 133.968 16.8666 134.059 19.0096Z" fill="#000001"/>
<path d="M139.613 34.206C138.612 34.0501 137.579 33.4916 137.151 31.9652C136.56 29.8547 137.605 28.554 138.496 27.8652C138.899 29.9501 139.341 32.0815 139.613 34.206Z" fill="#000001"/>
<path d="M133.565 40.5604C133.695 40.0206 133.786 39.4552 133.844 38.8641C133.942 37.8705 133.928 36.87 133.83 35.8555C134.98 36.1347 136.506 36.8165 136.629 38.5314C136.746 40.116 135.024 40.5325 133.562 40.5581L133.565 40.5604Z" fill="#000001"/>
<path d="M137.919 47.5324C137.067 49.3962 135.904 51.1111 134.34 52.477C134.21 51.4509 134.184 49.9035 134.956 48.7214C135.62 47.7139 136.892 47.5138 137.919 47.5324Z" fill="#000001"/>
<path d="M127.073 57.1471C127.008 54.3734 126.54 51.5602 125.586 48.7912C125.046 47.2136 124.35 45.6592 123.475 44.1328C122.493 42.3993 121.293 40.703 119.85 39.0788C118.661 37.7479 117.309 36.4541 115.79 35.2255C115.094 34.6531 114.361 34.1016 113.589 33.5618C112.588 32.8591 111.573 32.2238 110.561 31.6444C108.404 30.4159 106.229 29.4479 104.046 28.7149C102.305 28.1309 100.57 27.6888 98.8431 27.363C96.0299 26.8487 93.2493 26.6556 90.5454 26.7068C89.012 26.7394 87.5112 26.8441 86.0429 27.0116C83.5555 27.3048 81.1634 27.7725 78.9227 28.3426C77.48 28.7056 76.0955 29.1221 74.7831 29.5503C72.5214 30.3042 70.4761 31.1279 68.696 31.9213C65.1057 33.5246 62.6322 35.0068 61.7736 35.5443C61.9713 34.8858 62.1435 34.2156 62.2715 33.5269C62.3692 33.001 62.4414 32.4751 62.4995 31.9353C62.5251 31.6747 62.5461 31.4164 62.5647 31.1488V31.1232C62.6694 29.5456 62.6112 27.9145 62.4018 26.2368C62.3879 26.1065 62.3762 25.9901 62.3553 25.8598C62.3367 25.6388 62.3041 25.4317 62.2645 25.2106C62.2459 25.0733 62.225 24.95 62.1924 24.8197C61.9457 23.4306 61.4524 22.1112 60.7427 20.8756H60.7497C60.659 20.6942 57.6503 14.742 56.7731 11.9218C55.8819 9.0644 55.4212 5.40655 53.7575 5.23669H53.7505C52.2357 5.0738 48.6755 8.17321 47.7867 11.8497C46.9886 11.5891 46.1765 11.3424 45.3179 11.1097C45.1945 11.0655 45.0526 11.0329 44.9223 11.0004C43.6751 10.656 42.3557 10.3581 40.9782 10.0975C40.4128 9.98585 39.8288 9.87648 39.2494 9.77876C36.7014 9.35061 33.9604 9.00623 31.0169 8.77122C30.9191 8.76424 30.8214 8.7526 30.7307 8.74562C30.4049 8.73166 30.0745 8.69908 29.7557 8.68745C28.8854 8.63626 28.0594 8.61531 27.2543 8.61066H27.2403L27.1426 8.49432C26.7005 8.01265 26.142 7.2983 26.0769 7.22151C25.2136 6.13021 24.718 4.73408 23.978 3.57762C22.8798 1.89529 21.1393 0.627136 19.0009 0.938938C18.8636 0.957553 18.7356 1.01107 18.6169 1.09484C18.3121 1.30193 18.0445 1.69983 17.8235 2.2257C17.0439 4.11746 16.888 7.64966 17.5256 9.82064C17.5396 9.86718 17.5512 9.91139 17.5721 9.95792H17.5652C13.5048 11.2773 10.7172 13.4994 8.77421 16.1311C8.64391 16.3126 8.52058 16.5011 8.3833 16.6896C7.87604 17.4365 7.42928 18.223 7.03138 19.0281C7.01742 19.0677 6.99182 19.1049 6.98484 19.1444C6.78241 19.547 6.60091 19.9565 6.42639 20.373C6.34728 20.5685 6.27747 20.757 6.19836 20.9524C5.83537 21.9274 5.51658 22.928 5.26295 23.9215C5.23736 24.0309 5.21642 24.1496 5.18384 24.2519C5.16522 24.3683 5.13265 24.473 5.10705 24.5893C4.98373 25.1222 4.89298 25.6411 4.81387 26.1553C4.80688 26.1809 4.80688 26.2019 4.7999 26.2275C4.70916 26.865 4.65098 27.4886 4.61841 28.1053C4.60445 28.3845 4.59281 28.6567 4.59281 28.9243C4.57885 29.8783 4.63935 30.7882 4.74173 31.6398C5.03492 34.076 5.72367 36.0772 6.37287 37.5128C6.51016 37.8246 6.64512 38.1108 6.77542 38.3645C6.82662 38.4692 6.88013 38.5669 6.93133 38.6623C6.93133 38.6623 6.93831 38.6693 6.94529 38.6809C6.98252 38.7251 7.09188 38.8531 7.27803 39.0369L6.91271 39.0974C6.91271 39.0974 7.66662 39.6955 7.51072 40.7542C7.23149 41.9618 7.73177 43.2882 8.08313 43.1509C7.86906 43.9816 7.47814 44.4562 7.51072 45.3661C7.54329 46.2689 8.27161 46.3596 8.27161 46.3596C7.97377 52.5049 9.42807 58.3663 12.1319 63.7577C14.1912 67.8647 16.9788 71.697 20.2667 75.1734C23.7616 78.8708 27.829 82.1633 32.2012 84.9649C38.7444 89.1416 45.974 92.2085 53.0035 93.8396C74.9763 98.9192 89.9591 81.7492 89.9591 81.7492C91.1667 83.4199 92.9468 85.044 94.792 86.4727C98.5476 89.3837 102.582 91.4685 102.582 91.4685C102.582 91.4685 103.699 96.6924 101.361 103.976C99.1851 110.765 102.173 116.99 103.939 112.65C105.705 108.304 109.37 98.7982 110.729 95.1473C111.943 91.885 108.721 87.3569 108.013 86.4215C108.351 86.8171 109.209 87.7478 109.852 87.5314C110.598 87.2918 109.924 85.6793 109.805 85.4C109.98 85.6537 110.948 86.9846 111.436 86.0702C111.983 85.0556 110.864 84.2389 110.864 84.2389C115.159 82.7846 119.22 79.2222 122.207 74.487C123.143 73.0047 123.973 71.4132 124.662 69.7378C125.598 67.49 126.3 65.0934 126.696 62.6106C126.982 60.8235 127.117 58.9992 127.066 57.1471H127.073Z" fill="#CEE8E3"/>
<path d="M54.6793 15.6561C53.339 14.3577 51.6916 13.4223 50.342 12.808C48.925 12.1658 47.843 11.8703 47.7871 11.8516C48.6737 8.1775 52.2384 5.08042 53.7486 5.23399H53.7532C53.9394 6.09959 54.1535 7.13738 53.4344 9.32697C53.3623 9.54105 53.3088 9.75279 53.2623 9.95989C52.5688 13.0267 54.3489 15.3582 54.677 15.6538L54.6793 15.6561Z" fill="#000001"/>
<path d="M23.3802 8.7362C23.3802 8.7362 21.0301 9.12944 19.1057 9.50174C18.5147 9.61343 17.9609 9.72512 17.5304 9.82053C16.8929 7.64955 17.0488 4.11734 17.8329 2.22559C18.0493 1.69739 18.3146 1.30182 18.6217 1.09473C18.6217 1.09473 19.378 1.50658 19.855 3.40299C20.0272 4.09407 20.1761 4.75491 20.3646 5.37153C20.8137 6.8235 21.5001 8.01021 23.3802 8.7362Z" fill="#000001"/>
<path d="M39.2429 9.77871C37.3302 11.112 35.7712 13.2993 34.5402 14.9421C33.8631 15.8402 33.2349 16.778 32.6392 17.732C32.1901 18.4487 31.4478 19.1281 30.5473 19.1514C29.4164 19.1793 28.4997 18.3556 28.0413 17.3806C27.4642 16.1637 27.5898 14.8024 27.9296 13.5366C28.4136 11.7449 29.4258 10.0998 30.7335 8.75488C30.8242 8.76186 30.9196 8.76884 31.015 8.77815C33.9632 9.01317 36.7066 9.34824 39.2429 9.78104V9.77871Z" fill="#000001"/>
<path d="M8.55571 25.7825C7.34108 25.843 6.14739 25.3055 5.11426 24.5888C5.13985 24.4771 5.16545 24.3655 5.1957 24.2491C5.22129 24.1421 5.24689 24.0281 5.27714 23.9164C5.53542 22.9205 5.84024 21.9269 6.21255 20.9473C8.27881 23.2835 10.8361 25.6639 8.56037 25.7802L8.55571 25.7825Z" fill="#000001"/>
<path d="M7.76454 28.8259C6.92686 29.2029 5.72154 29.1331 4.59766 28.919C4.60231 28.6491 4.61162 28.3768 4.62325 28.0976C4.65583 27.4903 4.714 26.8667 4.8094 26.2268C4.81406 26.2012 4.81638 26.1779 4.82104 26.1523C7.07811 27.0598 9.23978 28.1581 7.76454 28.8236V28.8259Z" fill="#000001"/>
<path d="M8.87673 20.3703C8.22521 20.2005 7.57601 19.7235 6.9873 19.1394C7.00127 19.0999 7.01988 19.0626 7.0385 19.0231C7.43407 18.2226 7.88083 17.4385 8.39274 16.6846C9.52128 18.7252 10.3869 20.7589 8.87906 20.368L8.87673 20.3703Z" fill="#000001"/>
<path d="M44.9203 11.0045C44.406 11.435 43.8313 11.9167 43.4148 12.282C42.1001 13.4385 40.6691 15.0998 39.75 15.1883C37.828 15.3744 37.2951 13.4524 38.7401 11.7352C39.4009 10.9533 40.2456 10.4321 40.9739 10.0947H40.9785C42.3607 10.3646 43.6707 10.6695 44.9203 11.0045Z" fill="#000001"/>
<path d="M29.7603 8.68931C28.6364 9.81785 27.3357 11.7841 26.3072 11.9935C24.7598 12.3076 23.7453 11.0069 24.4853 10.2576C25.2043 9.52932 26.0001 8.98948 26.6795 8.61253C27.6615 8.60555 28.6876 8.62881 29.758 8.68931H29.7603Z" fill="#000001"/>
<path opacity="0.48" d="M6.0033 36.6357C6.27089 37.2128 6.54081 37.7875 6.83865 38.346C6.98292 38.6275 7.13417 38.9044 7.29705 39.172C7.45993 39.4373 7.6391 39.7026 7.84852 39.898L7.89971 39.9469L7.8904 40.0237C7.8555 40.2889 7.83223 40.5682 7.85085 40.8311C7.86481 41.0871 7.94392 41.3756 8.09051 41.4221C8.16032 41.4454 8.19988 41.4384 8.27201 41.35C8.33716 41.2639 8.38603 41.1429 8.42791 41.0219C8.50703 40.7729 8.55124 40.496 8.57916 40.2331L8.65362 39.556L8.89794 40.1889C9.00265 40.4611 9.1283 40.738 9.26792 40.9963C9.40753 41.2546 9.56576 41.5106 9.75656 41.7083C9.84964 41.8084 9.96133 41.8898 10.0614 41.9084C10.1731 41.9317 10.2685 41.9154 10.3104 41.8363C10.4151 41.6548 10.3755 41.3151 10.3104 41.0522L10.2243 40.7078L10.4942 40.9265C10.8851 41.243 11.3039 41.5292 11.7298 41.8037C12.1579 42.076 12.6047 42.318 13.0817 42.5018C12.5837 42.3808 12.1137 42.1644 11.6576 41.9294C11.2039 41.6874 10.7711 41.4128 10.3499 41.1103L10.5337 40.9847C10.5826 41.1406 10.6152 41.2942 10.6338 41.457C10.6454 41.6199 10.6524 41.7968 10.5547 41.9829C10.5035 42.0737 10.4081 42.1574 10.3034 42.1853C10.2499 42.204 10.201 42.2133 10.1521 42.2109C10.1033 42.2156 10.0544 42.2109 10.0055 42.1993C9.80543 42.1598 9.66349 42.0434 9.54481 41.9294C9.30515 41.6967 9.13761 41.4268 8.98869 41.1545C8.83744 40.88 8.70946 40.6007 8.59312 40.3076L8.9119 40.2633C8.88398 40.5589 8.83279 40.8404 8.73971 41.1266C8.69085 41.2686 8.635 41.4128 8.52797 41.5524C8.49539 41.5873 8.46514 41.6199 8.43024 41.6525C8.38603 41.6804 8.34647 41.713 8.29295 41.7316C8.18359 41.7712 8.06725 41.7619 7.97184 41.7223C7.77406 41.6432 7.674 41.4594 7.62514 41.3081C7.57627 41.1522 7.55999 41.001 7.55301 40.852C7.5437 40.5542 7.56697 40.268 7.62281 39.9795L7.6647 40.1028C7.42037 39.8492 7.26215 39.5699 7.10392 39.2884C6.95267 39.0045 6.81306 38.716 6.68043 38.4251C6.42912 37.8387 6.19643 37.2454 6.00098 36.6404L6.0033 36.6357Z" fill="#000001"/>
<path d="M62.1924 24.8192C54.6324 28.6957 52.4753 23.658 55.5119 22.9739C57.5479 22.5132 59.4537 21.4987 60.7102 20.8076C61.4385 22.0641 61.9341 23.4021 62.1924 24.8192Z" fill="#000001"/>
<path d="M62.5581 31.1228V31.153C62.5349 31.295 62.5209 31.4346 62.5046 31.5719C59.7635 32.4956 56.4477 32.9284 53.9184 31.6952C52.9644 31.2298 52.1756 30.2432 52.5572 29.2869C52.7131 28.9053 53.0458 28.5865 53.4391 28.3584C54.6025 27.6836 56.1662 27.6208 57.5297 27.5254C59.0794 27.4137 60.9409 26.818 62.4045 26.2363C62.607 27.9163 62.6628 29.5521 62.5604 31.1204L62.5581 31.1228Z" fill="#000001"/>
<path d="M4.30176 38.7476C5.4652 38.3939 6.64958 38.1379 7.83862 37.9052C9.02765 37.6842 10.2237 37.4864 11.436 37.3887C10.2725 37.7447 9.08815 38.0006 7.89911 38.231C6.71008 38.4521 5.51406 38.6498 4.30176 38.7476Z" fill="#000001"/>
<path d="M3.8252 35.7672C5.00027 35.6997 6.16836 35.7323 7.33413 35.7905C8.4999 35.858 9.66566 35.951 10.8268 36.1442C9.6517 36.2116 8.48361 36.1791 7.31784 36.1209C6.15208 36.0534 4.98631 35.9603 3.8252 35.7672Z" fill="#000001"/>
<path d="M4.86328 32.165C5.94761 32.6211 6.98307 33.1633 8.00457 33.7287C9.02374 34.3034 10.029 34.8968 10.9853 35.5832C9.90098 35.1295 8.86551 34.585 7.84401 34.0196C6.82717 33.4448 5.81963 32.8491 4.86328 32.165Z" fill="#000001"/>
<path d="M51.4127 11.8519C51.4127 11.8519 50.5727 11.7681 50.354 11.5657C50.1306 11.3633 51.429 11.3749 51.429 11.3749C50.7914 11.077 50.2865 10.2999 50.5075 10.2929C50.7332 10.2836 51.4709 10.8723 51.4709 10.8723C50.7216 9.69721 51.3382 7.97764 52.2062 8.11958C52.5785 8.18008 52.9554 9.02241 53.2626 9.96247C52.5692 13.0293 54.3492 15.3608 54.6773 15.6563C53.337 14.3579 51.6896 13.4225 50.34 12.8082C50.5773 12.1893 51.4104 11.8519 51.4104 11.8519H51.4127Z" fill="white"/>
<path d="M19.1062 9.50139C19.2505 8.80565 20.016 7.86326 20.0835 7.78182C20.0253 7.80044 19.4204 8.03778 19.1458 7.87257C18.8596 7.69805 19.8718 7.33506 19.8718 7.33506C19.8718 7.33506 19.1016 7.36996 19.0481 7.1396C18.9899 6.91157 19.7694 6.99766 19.7694 6.99766C19.2296 6.6463 18.2779 5.11522 18.9783 4.74292C19.4343 4.50092 20.0137 4.99422 20.3651 5.37117C20.8142 6.82315 21.5006 8.00986 23.3807 8.73584C23.3807 8.73584 21.0306 9.12908 19.1062 9.50139Z" fill="white"/>
<path d="M22.3099 29.5363C22.3099 29.5363 21.3326 28.0192 20.7253 28.2123C20.1179 28.4054 21.5862 30.7021 22.2145 30.9697C22.8427 31.2372 24.5157 29.1477 24.2132 28.68C23.9108 28.21 22.3099 29.5386 22.3099 29.5386V29.5363Z" fill="#000001"/>
<path opacity="0.48" d="M18.9778 30.9508C17.8656 31.0835 16.7487 31.6396 16.0111 32.6169C14.9407 34.034 14.5591 35.9187 15.562 37.4242C16.1856 38.3596 17.1419 38.9344 18.1262 39.3299C20.0086 40.0862 21.933 40.7028 23.9853 40.3701C24.7299 40.2491 25.4768 40.0164 26.1214 39.5603C27.1103 38.8599 27.8037 37.6336 27.9363 36.3446C28.069 35.0555 27.6408 33.7338 26.8148 32.8798C25.7956 31.8304 24.1551 31.3511 22.7823 31.2138C21.5607 31.0928 20.2041 30.8066 18.9802 30.9508H18.9778Z" fill="#000404"/>
<path opacity="0.48" d="M28.4463 46.3525C30.0891 46.4061 31.6853 46.548 33.2862 46.6294C34.0843 46.6736 34.8824 46.6992 35.6829 46.7155C36.4833 46.7155 37.2815 46.6992 38.1052 46.6643C36.5787 47.3135 34.8778 47.4206 33.2466 47.3484C32.4276 47.2949 31.6108 47.1995 30.8081 47.0366C30.0053 46.8761 29.2095 46.669 28.4463 46.3525Z" fill="#000001"/>
<path opacity="0.48" d="M38.9848 39.8677C36.6882 40.4029 35.3642 42.9717 37.3583 44.7053C39.2175 46.3201 42.0772 46.725 44.4064 46.0805C46.5774 45.4801 48.653 42.8158 46.3308 41.08C44.2249 39.5047 41.4839 39.286 38.9848 39.8677Z" fill="#000404"/>
<path opacity="0.48" d="M9.56334 39.0644C8.62793 38.9993 7.67158 38.7596 6.78272 38.3617C6.65241 38.1081 6.51745 37.8219 6.38017 37.5101C5.73097 36.0744 5.04221 34.0733 4.74902 31.637C5.28886 31.416 5.8985 31.3252 6.52909 31.3974C9.07702 31.6836 11.5831 32.8075 13.0444 34.9901C14.6546 37.4007 11.8088 39.2203 9.56101 39.0644H9.56334Z" fill="#000404"/>
<path d="M52.2248 42.0856C51.0543 42.2043 49.8862 42.2206 48.7181 42.2136C47.5501 42.1973 46.382 42.1531 45.2139 42.0112C46.3843 41.8925 47.5524 41.8762 48.7205 41.8832C49.8886 41.9018 51.0567 41.9437 52.2248 42.088V42.0856Z" fill="#000001"/>
<path d="M51.4193 38.4229C50.4211 39.0441 49.3787 39.5723 48.3246 40.0796C47.2682 40.5775 46.2001 41.0546 45.0879 41.4385C46.0861 40.8172 47.1286 40.289 48.1826 39.7817C49.239 39.2838 50.3071 38.8091 51.4193 38.4229Z" fill="#000001"/>
<path d="M23.8087 33.6309C23.5481 33.0678 23.2689 32.5117 22.8873 32.051C22.7011 31.823 22.4964 31.6112 22.266 31.4832C22.0333 31.3599 21.8029 31.332 21.5819 31.4157C21.0863 31.574 20.8978 32.0231 20.9816 32.5582C21.0514 33.0865 21.298 33.6542 21.5842 34.1335L21.7611 34.4314L21.4725 34.6268C21.0002 34.9456 20.5092 35.3528 20.2253 35.8019C20.081 36.0253 20.0043 36.2533 20.0485 36.4395C20.088 36.6256 20.2672 36.8257 20.465 36.9514C20.8861 37.1794 21.5098 37.0282 22.0449 36.7606C22.6011 36.507 23.1083 36.1347 23.6063 35.7484C23.22 36.2533 22.7523 36.6885 22.2218 37.0677C21.9472 37.2446 21.6563 37.4121 21.3189 37.5029C20.9862 37.5936 20.5906 37.6215 20.223 37.461C19.8763 37.2911 19.5645 37.0235 19.4365 36.6C19.3155 36.1696 19.4644 35.7554 19.6413 35.4482C20.0252 34.827 20.5301 34.4128 21.0863 34.0242L20.9746 34.5152C20.6465 33.9288 20.3812 33.3378 20.3068 32.6304C20.2788 32.2837 20.3114 31.8904 20.5115 31.5414C20.714 31.1831 21.0607 30.9643 21.4283 30.8806C21.8006 30.7782 22.2288 30.8759 22.515 31.0946C22.8012 31.311 23.0013 31.581 23.1711 31.8579C23.4806 32.4256 23.6947 33.019 23.8041 33.6356L23.8087 33.6309Z" fill="#000001"/>
<path d="M103.848 113.178C103.848 113.178 102.68 111.352 103.208 108.853L103.848 113.178Z" fill="#000001"/>
<path d="M21.5165 74.3683C21.5165 74.3683 15.7295 78.2007 12.921 84.2273C10.1148 90.2539 10.7244 98.505 14.5894 98.8075C20.353 99.2589 22.0912 91.7385 22.2262 88.7717C22.2262 88.7717 35.1892 88.8485 41.4834 82.2215C41.4834 82.2215 40.4922 84.8113 41.4834 84.6089C42.4747 84.4065 43.0774 81.6049 43.0774 81.6049C43.0774 81.6049 43.5497 84.0062 43.915 83.7014C44.2827 83.3989 44.4176 81.6049 44.4176 81.6049C44.4176 81.6049 51.7543 78.9569 53.8601 70.024C55.9659 61.0911 39.9803 66.315 39.9803 66.315C39.9803 66.315 25.6258 70.8431 21.5165 74.3706V74.3683Z" fill="#CEE8E3"/>
<path d="M17.2003 98.3904C16.8769 97.9273 16.7978 97.3596 16.714 96.8267C16.6396 96.2845 16.6396 95.7354 16.6768 95.1909C16.7769 94.1089 17.0654 93.0083 17.7123 92.1055C17.6076 93.1991 17.4726 94.2113 17.3935 95.2491C17.3423 95.7657 17.3144 96.2846 17.2725 96.8081C17.2515 97.327 17.1701 97.8668 17.2003 98.3904Z" fill="#000001"/>
<path d="M13.0277 98.1304C12.7997 97.644 12.6857 97.1228 12.6229 96.5993C12.5577 96.0734 12.567 95.5429 12.6205 95.0147C12.7438 93.9676 13.1045 92.9019 13.8282 92.1084C13.7374 92.6389 13.6188 93.1229 13.542 93.6209C13.4675 94.1142 13.3814 94.6028 13.3372 95.0984C13.2162 96.0874 13.1604 97.0786 13.0324 98.1327L13.0277 98.1304Z" fill="#000001"/>
<path d="M90.1275 81.7371C90.1275 81.7371 75.1447 98.9095 53.172 93.8276C47.0057 92.3989 40.6859 89.8649 34.8105 86.4397C37.4422 85.4787 39.9879 84.1268 41.9238 82.2164C41.9238 82.2164 41.2537 84.4177 41.9238 84.6015C42.5986 84.783 43.5224 81.5998 43.5224 81.5998C43.5224 81.5998 43.6062 83.7824 44.3601 83.6987C45.114 83.6149 44.8603 81.5998 44.8603 81.5998C44.8603 81.5998 47.0755 81.2089 49.3954 78.8006C52.5716 79.5033 59.8082 78.9984 64.4992 78.163C71.0982 76.9856 77.3971 69.9049 86.7465 67.457C85.2852 76.5202 90.1251 81.7371 90.1251 81.7371H90.1275Z" fill="#04170D"/>
<path opacity="0.2" d="M52.9058 72.877C52.2962 74.8385 51.3678 76.7303 50.0554 78.3544C49.3923 79.1595 48.629 79.8855 47.7774 80.5021C46.9141 81.1118 45.9973 81.6214 44.913 81.8936L45.155 81.5679C45.2085 81.9867 45.2248 82.3916 45.1876 82.8197C45.162 83.0338 45.1294 83.2548 45.0317 83.4898C44.9526 83.7109 44.6826 84.0343 44.2941 84.0134C44.1079 84.0181 43.9287 83.9087 43.8287 83.8063C43.717 83.7016 43.6495 83.5876 43.596 83.4829C43.4843 83.2688 43.4238 83.0594 43.3726 82.8523C43.2726 82.4358 43.226 82.0379 43.1981 81.6167L43.8403 81.6958C43.6937 82.1938 43.5332 82.6754 43.347 83.1594C43.1516 83.6434 42.9701 84.1181 42.6071 84.5951C42.5047 84.7115 42.3837 84.8511 42.1347 84.9395C41.795 85.0163 41.546 84.8162 41.4273 84.6207C41.2435 84.2438 41.2784 83.9622 41.2831 83.683C41.3226 83.1292 41.4343 82.6312 41.5832 82.1193L42.1743 82.4777C40.827 83.783 39.2471 84.8045 37.5857 85.6143C35.9219 86.424 34.1791 87.05 32.3967 87.4967C30.6167 87.9505 28.8087 88.2762 26.9914 88.4973C25.1718 88.6928 23.3428 88.8207 21.5186 88.7719C23.3405 88.6625 25.1531 88.4624 26.9448 88.1552C28.7389 87.8621 30.5166 87.4828 32.2548 86.9732C33.9883 86.4543 35.6939 85.8423 37.2995 85.0326C38.905 84.2275 40.4128 83.2223 41.674 81.9704L42.6187 81.0327L42.265 82.3287C42.1394 82.7848 42.023 83.2758 41.9881 83.7295C41.9672 83.9482 41.9881 84.1926 42.0323 84.274C42.0463 84.2903 42.037 84.2507 41.9555 84.2694C41.9555 84.2577 41.9602 84.2694 41.9858 84.2461C42.0137 84.2135 42.0416 84.1972 42.0719 84.1577C42.3278 83.8342 42.5349 83.3642 42.7164 82.9151C42.8979 82.459 43.0631 81.9844 43.2051 81.5167L43.7519 79.725L43.8473 81.5958C43.8659 81.9634 43.9078 82.3543 43.9916 82.708C44.0311 82.8849 44.0846 83.0594 44.1544 83.1967C44.2242 83.3433 44.308 83.4014 44.3173 83.3898C44.3406 83.3944 44.3964 83.3828 44.4593 83.2409C44.5151 83.1106 44.5523 82.9361 44.5733 82.7592C44.6105 82.4009 44.5989 82.01 44.5686 81.6446L44.5454 81.3747L44.8106 81.3189C45.7344 81.1211 46.6745 80.6627 47.5028 80.1112C48.3358 79.5504 49.1014 78.8756 49.7715 78.1171C51.1351 76.6093 52.1356 74.7873 52.9058 72.8839V72.877Z" fill="#000001"/>
<path opacity="0.2" d="M88.684 61.0586C88.0883 62.7805 87.5718 64.5187 87.2483 66.2894C86.9365 68.0602 86.776 69.8519 86.8621 71.6343C86.9272 73.419 87.2437 75.1874 87.7649 76.9C88.0464 77.7493 88.3536 78.5963 88.7608 79.3991C89.1447 80.2135 89.5938 81.0023 90.1267 81.7399C88.8329 80.4392 87.9208 78.7964 87.2413 77.0838C86.5782 75.3573 86.2268 73.5144 86.1431 71.6668C86.0732 69.817 86.2617 67.9601 86.7085 66.1754C86.9342 65.2819 87.2111 64.407 87.5345 63.5507C87.8789 62.7014 88.2442 61.8637 88.684 61.0632V61.0586Z" fill="#000001"/>
<path d="M28.8998 69.2043C27.1709 70.7052 25.1837 72.1222 23.5666 73.1996C23.5479 73.2135 23.527 73.2182 23.5154 73.2322C21.84 74.1862 20.6626 74.9983 20.4672 75.1425C20.4485 75.1565 20.4346 75.1611 20.4346 75.1611C17.1467 71.6848 14.3591 67.8524 12.2998 63.7455C20.8488 60.66 26.7753 66.5656 28.8998 69.202V69.2043Z" fill="#04170D"/>
<path opacity="0.2" d="M32.6158 64.7933C32.297 65.8032 31.6781 66.7014 31.0079 67.5158C30.3261 68.3302 29.5629 69.0678 28.7741 69.7659C27.976 70.4546 27.1476 71.1085 26.2913 71.7205C25.8678 72.0323 25.4304 72.3231 24.9929 72.614L24.3321 73.0421L23.997 73.2492L23.8295 73.3516C23.7806 73.3795 23.6969 73.44 23.7015 73.4191L23.6596 73.4517C22.6032 74.052 21.5282 74.6267 20.4346 75.1619C21.3956 74.4127 22.3729 73.6983 23.3688 73.0119L23.3292 73.0445L25.8795 71.155C26.7055 70.5268 27.5316 69.8985 28.3297 69.2377C29.1348 68.5838 29.9166 67.909 30.6542 67.1877C31.3895 66.464 32.0969 65.7055 32.6158 64.791V64.7933Z" fill="#000001"/>
<path opacity="0.48" d="M56.79 40.6564C57.5253 40.1351 58.1745 39.5302 58.7539 38.8786L59.5078 38.034L59.1658 39.1439C59.0634 39.4766 59.0076 39.956 59.1006 40.1189C59.1216 40.1491 59.1146 40.1305 59.1355 40.1398C59.1588 40.1421 59.2193 40.1421 59.2891 40.1235C59.4124 40.0909 59.5078 40.0211 59.6009 39.9071C59.7871 39.6767 59.8964 39.3068 59.9453 38.9415C59.9965 38.5785 60.0128 38.1713 59.9523 37.8478L59.6917 36.4866L60.5479 37.5314C60.7574 37.785 60.8179 37.9549 60.9342 38.141C61.0366 38.3179 61.1506 38.4831 61.2577 38.5738C61.3763 38.6459 61.3484 38.6622 61.488 38.5901C61.6067 38.5087 61.6742 38.39 61.716 38.1992C61.8021 37.8315 61.751 37.3941 61.7021 36.9706C61.6439 36.5424 61.5415 36.1166 61.4391 35.6885C61.6649 36.0701 61.8347 36.4796 61.986 36.9031C62.1326 37.3289 62.2419 37.771 62.2093 38.276C62.1931 38.518 62.079 38.8321 61.851 39.0252C61.744 39.1206 61.5857 39.223 61.3833 39.2346C61.1785 39.2463 61.0063 39.1579 60.8853 39.0718C60.6457 38.8903 60.5084 38.6878 60.3734 38.497C60.2478 38.3179 60.1175 38.0875 60.043 38.0061L60.6364 37.6919C60.7341 38.1736 60.7201 38.5971 60.662 39.0462C60.5852 39.4836 60.4735 39.9397 60.1384 40.3515C59.9755 40.5563 59.7079 40.7238 59.4264 40.7704C59.2984 40.7937 59.1472 40.8076 58.9703 40.7587C58.7935 40.7122 58.612 40.554 58.5492 40.3958C58.4142 40.0793 58.47 39.8396 58.5049 39.6116C58.5515 39.3836 58.6143 39.1835 58.7004 38.9694L59.1123 39.2346C58.7632 39.5348 58.4026 39.8187 58.0117 40.0537C57.6207 40.2864 57.2228 40.5098 56.7947 40.6587L56.79 40.6564Z" fill="#000001"/>
<path d="M75.1764 36.0374C74.7855 37.0123 73.4801 37.3311 72.4726 37.0193C71.3999 36.6936 70.5506 35.8489 69.9782 34.8879C69.5291 34.134 68.9962 33.0427 68.6914 31.9258C70.4715 31.1323 72.5191 30.3086 74.7785 29.5547C74.8367 29.685 74.8832 29.8153 74.9274 29.9503C75.2067 30.8275 75.2392 31.7629 75.2579 32.6797C75.2765 33.3824 75.2974 34.0828 75.316 34.7855C75.33 35.2067 75.3347 35.6441 75.1741 36.0397L75.1764 36.0374Z" fill="#000001"/>
<path d="M86.0462 27.3786C86.0276 29.0679 85.6041 30.7433 84.8246 32.2441C84.6105 32.6606 84.3638 33.0702 84.0125 33.3866C83.226 34.1149 81.9602 34.2499 81.0364 33.7124C79.9195 33.0562 79.4774 31.6787 79.2633 30.4059C79.1726 29.8591 79.0167 29.1121 78.9189 28.3466C81.1597 27.7742 83.5518 27.3065 86.0392 27.0156C86.0462 27.1389 86.0462 27.2553 86.0462 27.3786Z" fill="#000001"/>
<path d="M98.8387 27.3653C98.8201 27.47 98.7921 27.5677 98.7665 27.6701C98.2802 29.5735 97.3565 31.4443 95.7835 32.6264C95.1669 33.0871 94.4455 33.4385 93.673 33.5176C92.9075 33.5897 92.0884 33.3687 91.5416 32.8218C90.7225 32.0098 90.904 30.7044 90.7807 29.5549C90.683 28.6591 90.5666 27.6376 90.541 26.7091C93.2449 26.6579 96.0255 26.8511 98.8387 27.3653Z" fill="#000001"/>
<path d="M119.85 39.0783C119.038 39.553 118.18 39.9625 117.323 40.3441C115.082 41.3633 112.795 42.2871 110.468 43.1108C109.649 43.404 108.772 43.6902 107.927 43.4877C107.72 43.4365 107.511 43.3504 107.369 43.1945C107.006 42.792 107.232 42.1474 107.532 41.7007C108.22 40.6676 109.202 39.8625 110.189 39.1016C111.988 37.7171 113.879 36.4582 115.79 35.2227C117.309 36.4512 118.661 37.7427 119.85 39.076V39.0783Z" fill="#000001"/>
<path d="M110.559 31.6467C110.417 31.7887 110.266 31.9329 110.124 32.0679C107.87 34.2109 105.491 36.226 103.011 38.0968C102.276 38.6483 101.438 39.2067 100.535 39.0904C100.216 39.0508 99.8977 38.9159 99.7045 38.6553C99.5556 38.4598 99.4905 38.2132 99.4579 37.9665C99.2438 36.4517 100.049 34.9974 100.842 33.692C101.869 32.0097 102.934 30.346 104.046 28.7148C106.229 29.4501 108.407 30.4181 110.562 31.6444L110.559 31.6467Z" fill="#000001"/>
<path d="M125.587 48.7909C125.119 48.9863 124.579 49.1608 123.969 49.3237C122.32 49.7658 120.584 50.1544 118.908 50.4616C117.422 50.7338 115.725 51.1038 114.231 50.664C113.082 50.3336 112.212 49.2679 113.303 48.2533C114.72 46.934 116.896 46.3942 118.669 45.7519C120.253 45.1749 121.859 44.635 123.476 44.1348C124.353 45.6612 125.049 47.2132 125.587 48.7932V48.7909Z" fill="#000001"/>
<path d="M126.703 62.61C124.162 62.4355 121.686 61.7141 119.278 60.8695C118.564 60.6228 117.745 60.2459 117.603 59.499C117.493 58.901 117.907 58.3029 118.44 58.0051C118.966 57.7073 119.597 57.6468 120.206 57.5956C122.461 57.4071 124.832 57.4909 127.073 57.1465C127.124 58.9987 126.989 60.823 126.703 62.61Z" fill="#000001"/>
<path d="M124.67 69.7378C123.981 71.4132 123.15 73.0048 122.215 74.487C121.961 74.3753 121.721 74.252 121.479 74.124C119.173 72.8884 117.023 71.3573 115.113 69.5633C114.866 69.3353 114.613 69.0816 114.534 68.7512C114.417 68.2114 114.852 67.6716 115.371 67.4854C115.886 67.2969 116.463 67.3691 117.002 67.4598C119.641 67.8949 122.219 68.6628 124.67 69.7402V69.7378Z" fill="#000001"/>
<path d="M43.4103 33.7555C41.5883 34.9888 38.7402 35.3867 36.6833 34.5746C36.2435 34.4001 35.8363 34.1651 35.471 33.8579C33.8887 32.5153 33.0022 30.1698 33.0068 28.1105C33.0022 28.064 33.0045 28.0151 33.0045 27.9662C33.0464 25.8883 34.247 24.0129 36.0643 23.0286C38.1911 21.8768 41.351 21.4975 43.3056 23.1752C44.0758 23.8384 44.6831 24.7552 45.088 25.7883H45.0926C46.1793 28.5363 45.8512 32.1011 43.4126 33.7555H43.4103Z" fill="white"/>
<path d="M32.7529 28.1078C32.7878 29.3946 33.1136 30.6511 33.6907 31.775C33.9792 32.3404 34.3329 32.8686 34.761 33.3386C35.1822 33.8087 35.6871 34.2159 36.2642 34.4858C36.8343 34.7511 37.4556 34.9 38.0745 34.9791C38.1769 34.9907 38.2793 35.0024 38.3817 35.0093C38.8982 35.0466 39.4218 35.0326 39.9314 34.9744C40.4712 34.9093 41.0064 34.7999 41.5299 34.637C41.6672 34.6021 41.7998 34.5533 41.9325 34.4998C42.114 34.4393 42.2862 34.3671 42.456 34.2834C42.5049 34.2601 42.5514 34.2415 42.6003 34.2112C42.463 34.2764 42.3187 34.3369 42.1791 34.3974C41.9441 34.4881 41.7114 34.5719 41.4694 34.6324C40.9715 34.7883 40.4479 34.8837 39.9314 34.9326C39.4986 34.9675 39.0588 34.9744 38.626 34.9395C37.8325 34.879 37.046 34.6859 36.341 34.3252C35.8011 34.0437 35.3427 33.6342 34.9588 33.1641C34.5749 32.6941 34.2561 32.1729 34.0025 31.6261C33.4906 30.5254 33.2392 29.3062 33.2579 28.1101V28.0915C33.2509 28.0124 33.2579 27.917 33.2695 27.8216L33.2881 27.6052C33.3114 27.4377 33.3253 27.2632 33.3672 27.1003C33.4277 26.7699 33.5348 26.4441 33.6627 26.1323C33.7884 25.8135 33.9513 25.518 34.1258 25.2318C34.3119 24.9502 34.5167 24.678 34.7517 24.4313C35.6662 23.4331 36.9576 22.8258 38.2932 22.514C38.9657 22.3581 39.6521 22.286 40.3362 22.3209C41.0157 22.3581 41.6951 22.4954 42.3141 22.7839C42.933 23.0608 43.4612 23.5122 43.908 24.0474C44.3292 24.5454 44.6712 25.1224 44.9295 25.7297C44.9481 25.7646 44.9644 25.7949 44.9784 25.8321L45.0133 25.9229H45.0202C45.0086 25.8926 44.997 25.8624 44.983 25.8321L45.097 25.9112L45.0179 25.9229C45.2762 26.5604 45.4577 27.2329 45.5531 27.9193C45.6555 28.6337 45.6601 29.369 45.5531 30.0903C45.4507 30.8117 45.2343 31.5213 44.8736 32.1519C44.8318 32.231 44.7829 32.3078 44.7364 32.3869C44.641 32.5382 44.5386 32.6755 44.4362 32.8128C44.4246 32.8197 44.4246 32.8244 44.4176 32.8314C44.3152 32.957 44.2082 33.078 44.0918 33.192C44.0802 33.2037 44.0616 33.2223 44.0499 33.2409L44.2128 33.078C44.2244 33.0664 44.2314 33.0548 44.2431 33.0478C44.4897 32.7779 44.7108 32.4824 44.8923 32.1636C44.9272 32.0984 44.9714 32.0263 44.9946 31.9541C45.3018 31.3771 45.5066 30.7465 45.6206 30.102C45.7462 29.3806 45.7648 28.636 45.6997 27.9007C45.6276 27.1678 45.4647 26.4394 45.2064 25.7484C45.1948 25.7181 45.1831 25.6948 45.1715 25.6646C44.9248 25.0154 44.6014 24.3964 44.1733 23.838C43.7335 23.2539 43.175 22.7374 42.5072 22.3953C41.1669 21.7042 39.5986 21.6507 38.1722 21.9509C37.4509 22.1068 36.7528 22.3534 36.092 22.6839C35.4195 23.0073 34.8169 23.4773 34.3119 24.0311C33.2951 25.1248 32.725 26.593 32.7553 28.1125L32.7529 28.1078ZM43.0145 33.9925C42.8772 34.0716 42.7376 34.1437 42.6003 34.2089C42.7073 34.16 42.8097 34.1065 42.9121 34.053C42.947 34.0344 42.9842 34.0181 43.0145 33.9995C43.1518 33.9204 43.2797 33.8366 43.41 33.7528C43.2774 33.8366 43.1448 33.9157 43.0145 33.9925ZM43.6334 33.5899C43.5613 33.6504 43.4892 33.704 43.41 33.7528C43.5054 33.6877 43.6032 33.6202 43.6916 33.5481C43.7032 33.5411 43.7102 33.5364 43.7149 33.5248C43.6916 33.5481 43.6613 33.5737 43.6311 33.5899H43.6334ZM43.8428 33.4154L43.7172 33.5225C43.7661 33.4922 43.8079 33.4573 43.8428 33.4201C43.8731 33.3968 43.9033 33.3712 43.9336 33.3363C43.9033 33.3666 43.8731 33.3898 43.8428 33.4154Z" fill="#000001"/>
<path d="M39.143 33.2823C40.7974 33.3987 42.5775 32.6354 43.4571 31.1928C44.8602 28.8938 43.9364 25.5361 41.5304 24.3471C40.239 23.7095 38.5404 23.677 37.2466 24.3308C33.7935 26.076 34.4846 31.4906 37.8214 32.9659C38.2332 33.1474 38.68 33.2497 39.1407 33.2823H39.143Z" fill="#000001"/>
<path opacity="0.21" d="M45.085 25.7883C37.6251 22.9192 33.4995 27.5102 33.0039 28.1105C32.9992 28.064 33.0016 28.0151 33.0016 27.9662C33.0434 25.8883 34.2441 24.0129 36.0614 23.0286C38.1882 21.8768 41.3481 21.4975 43.3027 23.1752C44.0729 23.8384 44.6802 24.7552 45.085 25.7883Z" fill="#000001"/>
<path d="M17.8796 30.2506C16.6184 31.9167 14.2427 32.2704 12.3137 31.9167C12.0484 31.8655 11.7901 31.791 11.5458 31.6933C8.57672 30.5206 7.38303 26.0902 8.95368 23.3375C9.10958 23.0536 9.30271 22.786 9.52376 22.5417C11.4667 20.4079 15.6784 20.1124 17.8075 22.1345C18.3194 22.6278 18.5939 23.3328 18.7638 24.0099C18.8801 24.4707 18.9593 24.9803 18.9965 25.5108C19.1221 27.1699 18.8196 29.0127 17.8796 30.253V30.2506Z" fill="white"/>
<path d="M14.0826 31.977C14.1012 31.9956 14.1175 32.0119 14.1361 32.0259C14.7783 31.991 15.4159 31.863 16.0046 31.635C16.0232 31.6233 16.0348 31.6164 16.0535 31.6117L16.0465 31.5884C16.0349 31.6001 16.0162 31.607 15.9976 31.6117C15.3833 31.8467 14.7295 31.9607 14.0803 31.9794L14.0826 31.977ZM8.00013 26.6392C8.07925 27.4094 8.27005 28.1726 8.58418 28.8753C8.89133 29.5594 9.31249 30.1923 9.84768 30.7205C10.3875 31.2627 11.0623 31.6513 11.7767 31.8816C12.1443 31.9887 12.5166 32.0375 12.8819 32.0678C13.2542 32.098 13.6265 32.098 13.9942 32.0794C14.0547 32.0724 14.1152 32.0724 14.1733 32.0608C14.8039 32.0119 15.4229 31.8746 16.0069 31.635C16.0255 31.635 16.0372 31.628 16.0558 31.6164C16.086 31.6047 16.1163 31.5931 16.1465 31.5815C16.1954 31.5628 16.2419 31.5442 16.2838 31.5163C16.4514 31.4372 16.6096 31.3534 16.7655 31.258C16.8795 31.1859 16.9935 31.1068 17.1029 31.03C17.1634 30.9881 17.2169 30.9392 17.2704 30.8927C17.3309 30.8438 17.3914 30.7903 17.4519 30.7298C17.4868 30.6972 17.5124 30.66 17.545 30.6251C17.4682 30.7019 17.3937 30.7787 17.3123 30.8485C17.2402 30.909 17.168 30.9695 17.0959 31.023C16.7957 31.2324 16.477 31.4209 16.1396 31.5582C16.1093 31.5698 16.0791 31.5815 16.0488 31.5884C16.0372 31.6001 16.0186 31.607 15.9999 31.6117C15.3857 31.8467 14.7318 31.9607 14.0826 31.9794C14.0523 31.9863 14.0221 31.9863 13.9918 31.9863C13.6242 31.998 13.2589 31.9747 12.8982 31.9258C12.5375 31.877 12.1769 31.8118 11.8395 31.6908C11.167 31.4325 10.5597 31.023 10.085 30.4948C9.67549 30.0434 9.35205 29.5268 9.11704 28.973C8.78662 28.2214 8.60512 27.4047 8.57022 26.5996C8.52834 25.8969 8.60512 25.1872 8.80523 24.5194L8.97975 24.0331C9.0449 23.8772 9.131 23.7213 9.20313 23.57C9.25199 23.4746 9.30551 23.3839 9.36601 23.2931C9.49166 23.0953 9.63593 22.9092 9.79881 22.7393C10.2619 22.2414 10.8506 21.8504 11.4928 21.5782C12.1001 21.3129 12.7563 21.1524 13.4218 21.0849C13.4404 21.0779 13.4567 21.0779 13.4753 21.0779C13.4939 21.0779 13.5102 21.0709 13.5288 21.0709C14.9226 20.9453 16.4258 21.2268 17.538 22.1227C18.1034 22.5369 18.4222 23.2117 18.627 23.9028C18.7782 24.4077 18.8783 24.9243 18.9341 25.4548C18.9528 25.6526 18.969 25.8573 18.976 26.0621C19.0063 26.9207 18.9225 27.8166 18.6642 28.6519C18.6223 28.8078 18.5688 28.9637 18.5013 29.115C18.4059 29.3546 18.2919 29.5966 18.1639 29.8247C18.4525 29.3383 18.6572 28.8032 18.8015 28.2563C18.983 27.542 19.0668 26.802 19.0668 26.0621C19.0668 25.3221 19.0133 24.5775 18.8318 23.8492C18.748 23.4816 18.627 23.1209 18.4595 22.7789C18.2919 22.4415 18.0569 22.1064 17.7567 21.8714C17.1867 21.3548 16.4956 20.9942 15.7603 20.7708C15.0273 20.5544 14.2571 20.459 13.4939 20.5009C13.4404 20.5009 13.3915 20.5078 13.338 20.5125H13.2775C11.8279 20.6265 10.3549 21.1803 9.31017 22.2856C9.04025 22.5741 8.80523 22.9045 8.63072 23.2536C8.54695 23.4327 8.4562 23.6026 8.37941 23.7818L8.18628 24.3356C7.98152 25.0941 7.93265 25.8736 8.00013 26.6368V26.6392ZM17.8824 30.2458C17.7777 30.3831 17.6613 30.5018 17.5427 30.6228C17.6613 30.5018 17.7754 30.3785 17.8824 30.2458Z" fill="#000001"/>
<path d="M10.9876 28.9918C11.0947 29.1174 12.0138 30.7462 14.7176 30.3995C17.4215 30.0528 17.71 26.6951 17.5052 25.5457C17.3005 24.3962 16.3395 21.932 13.268 22.2252C10.1988 22.5184 9.1494 26.8254 10.9853 28.9918H10.9876Z" fill="#000001"/>
<path opacity="0.21" d="M18.9989 25.5085C15.8832 22.9186 11.3318 23.0443 8.95605 23.3375C9.11196 23.0536 9.30509 22.786 9.52614 22.5417C11.4691 20.4079 15.6807 20.1124 17.8098 22.1345C18.3217 22.6278 18.5963 23.3328 18.7662 24.0099C18.8825 24.4707 18.9616 24.9803 18.9989 25.5108V25.5085Z" fill="#000001"/>
</g>
<defs>
<clipPath id="clip0_1_825">
<rect width="150" height="113.196" fill="white" transform="translate(0 0.894531)"/>
</clipPath>
</defs>
</svg>
