<svg width="150" height="133" viewBox="0 0 150 133" fill="none" xmlns="http://www.w3.org/2000/svg">
<path d="M101.023 74.9421C131.546 52.28 153.291 29.8675 149.59 24.8852C145.889 19.9004 118.15 34.2333 87.6222 56.8929C57.0996 79.555 35.3519 101.965 39.0529 106.95C42.7514 111.935 70.4951 97.5992 101.023 74.9396V74.9421Z" fill="#000001"/>
<path d="M0.473533 129.087C-0.629389 129.887 -0.028258 130.608 4.67381 131.423C11.4187 132.594 20.4968 134.082 26.7908 130.727C31.9183 127.999 44.0402 115.589 40.5532 109.255C33.984 97.3136 12.6286 104.884 10.1528 116.468C9.55418 119.275 10.5552 122.462 8.45635 124.859C6.81597 126.726 2.00693 127.984 0.473533 129.089V129.087Z" fill="#B4D5CF"/>
<path d="M66.7552 73.5755L27.6494 102.607L39.8704 119.069L78.9762 90.0371L66.7552 73.5755Z" fill="#000001"/>
<path d="M47.9146 6.90519C28.2836 18.668 19.5723 40.7061 30.4309 60.5689C37.3745 73.269 45.5101 80.7883 63.3097 81.0379C68.5518 81.1143 75.0827 98.5293 75.7883 101.087C80.3375 96.7997 85.8878 96.2547 92.6989 92.1384C98.3867 88.6972 101.107 86.0889 106.191 84.1123C103.507 81.1219 96.3846 66.3917 98.8885 62.7569C109.347 47.6013 109.375 32.3717 101.512 17.9854C90.6586 -1.87743 67.5431 -4.84997 47.9146 6.90519Z" fill="#7A8320"/>
<path d="M92.0955 88.6639L90.7251 89.423C90.5111 88.9492 89.2376 86.695 88.5218 85.4443C87.8646 84.293 87.1693 83.0627 86.7311 82.2145C84.8259 78.5491 78.216 65.2606 73.2312 53.5385C72.3422 53.9766 71.4252 54.3027 70.5006 54.5141C70.2561 54.5701 70.0039 54.6185 69.7517 54.6644C70.4216 56.2716 71.0712 57.8967 71.7131 59.5116C72.7447 62.1148 73.7228 64.5703 74.7671 66.8602C75.3097 68.0472 75.9006 69.3335 76.5221 70.6835C79.2807 76.6566 83.481 84.2624 86.5044 91.7562L84.8131 92.691C81.7998 85.2176 78.3281 77.1329 75.5746 71.1674C74.9505 69.8149 74.357 68.5337 73.8119 67.3442C72.7549 65.0288 71.7767 62.5631 70.7375 59.9472C70.0549 58.238 69.3671 56.5136 68.6565 54.8147C62.1586 55.5075 53.7352 52.7769 50.5869 47.0815C47.7595 41.9769 49.759 39.7558 50.7906 39.0044C53.8421 36.7909 59.8789 38.4186 62.9788 42.2826C65.5311 45.4666 67.5306 49.4682 69.3187 53.6506C69.6524 53.5997 69.9861 53.536 70.3045 53.4647C71.1552 53.2685 71.9958 52.9654 72.816 52.563C69.7314 45.2297 67.3549 38.6478 67.2784 35.6192C67.1587 30.9222 69.1659 27.8045 72.6631 27.2773C76.624 26.6838 81.5961 29.7837 82.6888 35.3518C83.4326 39.1292 82.4443 43.49 79.9837 47.3082C78.4019 49.7585 76.3871 51.7326 74.1736 53.0291C78.7509 63.7934 84.7978 76.1803 87.6558 81.6771C88.0913 82.5176 88.7816 83.7326 89.4311 84.8763C90.1851 86.2034 91.8535 88.1469 92.0904 88.6588L92.0955 88.6639ZM73.7661 52.051C75.7911 50.8411 77.653 49.0148 79.1228 46.735C81.4254 43.1614 82.3551 39.1063 81.6674 35.6039C80.702 30.6879 76.2114 27.83 72.7829 28.3445C69.8511 28.7877 68.2311 31.4113 68.3304 35.553C68.4017 38.3778 70.7095 44.7788 73.7661 52.0484V52.051ZM51.3561 39.8959C49.7438 41.0829 49.7947 43.439 51.5064 46.5262C54.4076 51.7657 62.123 54.3205 68.2209 53.7856C66.4965 49.7891 64.5785 45.9964 62.1637 42.9831C59.181 39.2642 53.7403 38.1715 51.3816 39.8781C51.3714 39.8857 51.3638 39.8934 51.3587 39.8959H51.3561Z" fill="white"/>
<g style="mix-blend-mode:multiply" opacity="0.4">
<path d="M67.7623 19.5823C76.7461 27.3308 81.5221 37.5958 82.5791 49.2873C83.1701 55.8183 83.5445 62.5657 85.7351 68.8037C87.0902 72.6601 89.0158 76.3255 91.5859 79.5196C93.6007 82.0235 96.0689 84.0459 98.1601 86.4683C98.5422 86.9115 98.8886 87.3878 99.2376 87.8667C101.423 86.4148 103.468 85.1718 106.194 84.1147C103.509 81.1243 96.3873 66.3941 98.8912 62.7593C109.35 47.6036 109.378 32.3741 101.515 17.9878C90.6587 -1.87758 67.5432 -4.85012 47.9148 6.90504C44.3258 9.05485 41.1062 11.5536 38.3018 14.3122C48.3783 9.67636 59.54 12.4884 67.7623 19.5797V19.5823Z" fill="#7A8320"/>
</g>
<path d="M40.7645 22.8525C34.4195 25.9601 31.801 33.6092 34.9085 39.9542" stroke="white" stroke-miterlimit="10" stroke-linecap="round"/>
<path d="M87.8369 113.764C91.1992 117.577 97.1621 118.542 102.361 115.741C107.56 112.939 110.298 107.281 109.322 102.185L87.8369 113.764Z" fill="#000001"/>
<path d="M74.4512 98.4224L80.1084 109.709C82.1895 113.866 87.3169 115.328 91.5579 112.985L106.665 104.627C110.901 102.284 112.654 97.0112 110.573 92.8543L104.915 81.5703L74.4512 98.4173V98.4224Z" fill="#000001"/>
<g style="mix-blend-mode:multiply" opacity="0.66">
<path d="M110.575 92.8572L104.917 81.5732L96.843 86.0384C101.693 92.0548 103.443 102.926 96.8353 108.362C94.2041 110.527 91.1501 112.246 88.7939 114.699C92.253 117.71 97.6199 118.293 102.36 115.738C107.488 112.975 110.218 107.43 109.352 102.391C111.54 99.7218 112.139 95.9749 110.575 92.8546V92.8572Z" fill="#000001"/>
</g>
<path d="M79.1963 103.183L95.4319 94.1484" stroke="white" stroke-miterlimit="10" stroke-linecap="round"/>
<path d="M83.043 108.43L99.2786 99.3975" stroke="white" stroke-miterlimit="10" stroke-linecap="round"/>
</svg>
