<svg width="150" height="133" viewBox="0 0 150 133" fill="none" xmlns="http://www.w3.org/2000/svg">
<g clip-path="url(#clip0_1_967)">
<path d="M125.928 12.4877L125.452 10.1162L109.409 0.120323C98.4364 -0.624289 63.096 10.6216 58.6336 12.0567C54.0923 13.221 18.1995 22.558 9.31532 29.0406L1.06254 46.0561L1.92389 48.3148C1.92389 48.3148 -3.19689 60.2466 3.27455 77.6074C9.746 94.9681 21.2435 144.952 39.1223 130.17C39.1223 130.17 53.1475 117.965 44.915 92.3326C44.915 92.3326 42.6872 84.6157 55.6076 80.8814L76.6229 74.401L97.8569 68.6743C110.775 64.9422 113.003 72.6591 113.003 72.6591C119.693 98.7363 138.059 101.582 138.059 101.582C161.058 104.551 144.163 56.1287 140.39 37.9872C136.618 19.8458 125.928 12.4831 125.928 12.4831V12.4877Z" fill="#000001"/>
<path d="M22.5663 74.9014L21.0488 69.6462L24.3139 64.998L29.2543 67.4101L30.7357 72.5412L22.5663 74.9014Z" fill="#6C731B"/>
<path d="M24.3569 50.4355L25.8744 55.6907L22.6093 60.3389L17.6689 57.9268L16.1875 52.7957L24.3569 50.4355Z" fill="#6C731B"/>
<path d="M35.6856 63.5656L30.4341 65.0819L25.7891 61.8169L28.2018 56.8708L33.3271 55.3906L35.6856 63.5656Z" fill="#6C731B"/>
<path d="M11.2383 61.7744L16.4898 60.2559L21.1349 63.5231L18.7222 68.4669L13.5969 69.9471L11.2383 61.7744Z" fill="#6C731B"/>
<path d="M132.327 33.4579C133.064 36.0144 131.591 38.686 129.037 39.4238C126.482 40.1617 123.812 38.6883 123.075 36.1318C122.338 33.5753 123.81 30.9037 126.365 30.1658C128.919 29.428 131.589 30.9014 132.327 33.4579Z" fill="#000001"/>
<path d="M113.433 38.9159C114.17 41.4724 112.698 44.144 110.143 44.8819C107.588 45.6197 104.919 44.1463 104.181 41.5898C103.444 39.0333 104.916 36.3617 107.471 35.6238C110.026 34.886 112.696 36.3594 113.433 38.9159Z" fill="#000001"/>
<path d="M120.369 27.4833C121.106 30.0398 119.633 32.7114 117.079 33.4492C114.524 34.1871 111.854 32.7137 111.117 30.1572C110.38 27.6007 111.852 24.9291 114.407 24.1912C116.961 23.4534 119.631 24.9268 120.369 27.4833Z" fill="#7A8320"/>
<path d="M125.39 44.8896C126.127 47.4461 124.655 50.1176 122.1 50.8555C119.545 51.5933 116.876 50.1199 116.138 47.5634C115.401 45.0069 116.873 42.3353 119.428 41.5975C121.983 40.8596 124.653 42.3331 125.39 44.8896Z" fill="#7A8320"/>
<path d="M56.2545 40.7666L57.3369 44.5145L47.5508 45.4103L56.2545 40.7666Z" fill="#7A8320"/>
<path d="M76.4131 34.9425L77.4932 38.6904L86.251 34.2295L76.4131 34.9425Z" fill="#7A8320"/>
<path d="M63.4696 39.0809L66.1123 23.805C66.1123 23.805 63.0299 26.9595 63.0389 26.7564C63.048 26.5533 62.8946 16.3476 62.8946 16.3476L61.3546 18.3897L60.8562 13.209L58.3984 22.9047L60.7706 20.7544L60.2745 31.9484L63.2599 29.155L63.4629 39.0809H63.4696Z" fill="#7A8320"/>
<path d="M53.6185 36.0025L54.8993 32.3696C54.8993 32.3696 46.5112 30.7338 48.633 20.7988C48.633 20.7988 45.8596 21.3336 46.164 26.3044C46.4684 31.2753 49.1719 34.8878 53.6185 36.0002V36.0025Z" fill="#000001"/>
<path d="M75.6303 29.6421L72.6133 27.2525C72.6133 27.2525 78.839 21.3927 71.752 14.1225C71.752 14.1225 74.3834 13.0959 76.7735 17.4643C79.1637 21.8327 78.8006 26.3319 75.6303 29.6443V29.6421Z" fill="#000001"/>
<path d="M88.5125 44.9274L69.822 50.3292L69.5536 50.4059L50.8631 55.8077C50.8631 55.8077 39.5189 59.7158 43.4311 69.2807C45.0726 73.2948 47.3027 78.7079 49.3388 83.6427C50.8744 82.6205 52.906 81.6661 55.6073 80.8854L76.6226 74.405L97.8566 68.6782C100.558 67.8975 102.786 67.6222 104.63 67.6674C103.726 62.4077 102.729 56.6381 101.981 52.3645C100.195 42.1836 88.517 44.9274 88.517 44.9274H88.5125Z" fill="#6C731B"/>
<path d="M67.6911 63.5897C69.1274 68.5673 66.2593 73.7683 61.285 75.2056C56.3108 76.6429 51.1134 73.7728 49.677 68.7952C48.2407 63.8176 51.1089 58.6166 56.0831 57.1792C61.0573 55.7419 66.2548 58.6121 67.6911 63.5897Z" fill="#000001"/>
<path d="M64.0429 64.6432C64.8974 67.6036 63.1905 70.6971 60.2321 71.5523C57.2738 72.4075 54.1824 70.6994 53.3278 67.739C52.4732 64.7786 54.1801 61.685 57.1385 60.8299C60.0969 59.9747 63.1883 61.6828 64.0429 64.6432Z" fill="#000001"/>
<path d="M96.4224 60.4979C97.867 55.5221 95.0072 50.3164 90.0347 48.8708C85.0623 47.4252 79.8602 50.287 78.4155 55.2629C76.9709 60.2387 79.8308 65.4444 84.8032 66.89C89.7757 68.3356 94.9778 65.4738 96.4224 60.4979Z" fill="#000001"/>
<path d="M92.7831 56.3375C93.6377 59.2979 91.9308 62.3914 88.9724 63.2466C86.014 64.1018 82.9226 62.3937 82.068 59.4333C81.2134 56.4729 82.9203 53.3794 85.8787 52.5242C88.8371 51.669 91.9285 53.3771 92.7831 56.3375Z" fill="#000001"/>
<path d="M84.1943 12.3314C84.1943 12.3314 78.6947 11.5913 76.5977 6.64529C88.5574 3.27197 103.047 -0.306679 109.39 0.124293L125.436 10.1201L125.864 12.2524C125.158 12.3698 115.641 13.9041 109.762 12.5503C103.654 11.1446 84.1965 12.3292 84.1965 12.3292L84.1943 12.3314Z" fill="#6C731B"/>
<path d="M81.707 5.35449C81.707 5.35449 84.9134 10.2103 87.378 9.98237C89.8403 9.75222 108.7 8.76166 111.325 9.93047C113.949 11.0993 125.519 11.1309 125.519 11.1309" stroke="white" stroke-width="2.2" stroke-linecap="round" stroke-linejoin="round"/>
<path d="M36.7995 26.0252C36.7995 26.0252 41.0589 22.4646 40.1976 17.1621C28.2829 20.6866 14.1179 25.3889 8.97905 29.1368L0.728516 46.1523L1.50193 48.1854C2.16261 47.9078 11.031 44.1306 15.2836 39.8502C19.7032 35.4028 36.7972 26.0252 36.7972 26.0252H36.7995Z" fill="#6C731B"/>
<path d="M35.4175 18.7285C35.4175 18.7285 35.2912 24.5478 33.086 25.6669C30.8807 26.7861 14.3954 36.008 12.7967 38.3976C11.198 40.7871 1.42773 46.9832 1.42773 46.9832" stroke="white" stroke-width="2.2" stroke-linecap="round" stroke-linejoin="round"/>
<path d="M22.5559 105.848C25.0542 106.371 27.6338 106.27 30.1863 106.36C33.6791 106.482 37.2102 106.983 40.4053 108.4C43.0525 109.573 45.4472 111.439 47.0098 113.856C45.224 124.849 39.1133 130.172 39.1133 130.172C26.1479 140.892 16.5399 117.549 9.76855 97.2891C13.2591 101.231 17.4464 104.776 22.5581 105.845L22.5559 105.848Z" fill="#6C731B"/>
<path d="M33.3342 111.868C33.6002 112.788 33.0681 113.752 32.1481 114.018C31.2281 114.284 30.2653 113.752 29.9992 112.831C29.7331 111.911 30.2653 110.947 31.1853 110.681C32.1053 110.415 33.0681 110.947 33.3342 111.868Z" fill="white"/>
<path d="M27.4984 116.687C27.8343 117.854 27.1624 119.074 25.9966 119.411C24.8309 119.747 23.611 119.074 23.275 117.908C22.939 116.741 23.611 115.52 24.7768 115.184C25.9425 114.848 27.1624 115.52 27.4984 116.687Z" fill="white"/>
<path d="M36.536 125.885C36.6601 126.316 36.412 126.765 35.9836 126.889C35.5529 127.013 35.1042 126.765 34.9802 126.336C34.8562 125.907 35.1042 125.456 35.5326 125.332C35.9633 125.208 36.412 125.456 36.536 125.885Z" fill="white"/>
<path d="M139.202 72.1439C137.367 73.9197 135.13 75.2104 133.02 76.6477C130.131 78.6153 127.41 80.9213 125.461 83.823C123.847 86.2284 122.814 89.085 122.78 91.9619C130.147 100.311 138.152 101.556 138.152 101.556C154.831 103.711 150.529 78.8341 145.464 58.082C144.612 63.2785 142.957 68.5111 139.202 72.1439Z" fill="#6C731B"/>
<path d="M133.029 83.0627C133.295 83.9833 134.255 84.5158 135.177 84.2496C136.097 83.9833 136.63 83.0221 136.363 82.0992C136.097 81.1786 135.135 80.6461 134.215 80.9123C133.295 81.1786 132.762 82.1398 133.029 83.0627Z" fill="white"/>
<path d="M140.533 84.0288C140.869 85.1954 142.089 85.8678 143.254 85.5316C144.42 85.1954 145.092 83.9747 144.756 82.8081C144.42 81.6416 143.2 80.9691 142.035 81.3053C140.869 81.6416 140.197 82.8623 140.533 84.0288Z" fill="white"/>
<path d="M137.786 96.63C137.91 97.061 138.359 97.3069 138.789 97.1828C139.22 97.0587 139.466 96.6097 139.342 96.1787C139.218 95.7477 138.769 95.5018 138.338 95.6259C137.908 95.75 137.662 96.199 137.786 96.63Z" fill="white"/>
<path d="M3.52246 71.5615C3.52246 71.5615 12.0909 89.5699 26.3461 96.4158C43.1809 104.498 45.7379 103.945 45.7492 108.16C45.7492 108.16 38.1706 102.413 28.6551 103.395C27.6066 103.503 26.5468 103.332 25.5863 102.898C21.7304 101.163 12.7629 94.7799 3.52246 71.5615Z" fill="white"/>
<path d="M136.907 33.0225C136.907 33.0225 139.25 52.8291 130.835 66.2254C120.897 82.0427 118.44 82.9408 120.674 86.5127C120.674 86.5127 124.025 77.6067 132.598 73.3624C133.543 72.8953 134.348 72.1845 134.932 71.3068C137.268 67.7823 141.457 57.5992 136.907 33.0247V33.0225Z" fill="white"/>
<g style="mix-blend-mode:multiply">
<path d="M119.098 6.14657L109.429 0.124243C104.378 -0.21873 94.1593 1.98126 84.168 4.59417L86.3371 7.20031L119.098 6.14883V6.14657Z" fill="#6C731B"/>
<path d="M33.7173 19.1455C23.5614 22.3315 13.241 26.0569 9.0176 29.1368L4.51465 38.4242L33.0927 22.9002L33.7173 19.1455Z" fill="#6C731B"/>
</g>
<g style="mix-blend-mode:multiply">
<path d="M37.341 112.522C32.3127 109.548 25.9856 110.392 20.247 111.491C18.5739 111.811 16.8669 112.141 15.1758 111.974C19.7825 123.014 25.3317 132.189 31.9159 132.832C31.9384 132.832 31.961 132.837 31.9835 132.839C32.4593 132.882 32.9418 132.879 33.4289 132.83C33.474 132.825 33.5191 132.819 33.5642 132.814C33.7626 132.791 33.961 132.76 34.1617 132.719C34.2113 132.71 34.2609 132.701 34.3105 132.69C34.545 132.638 34.7818 132.579 35.0185 132.505C35.0636 132.491 35.111 132.473 35.1583 132.458C35.3455 132.397 35.5349 132.329 35.7243 132.252C35.8077 132.218 35.8889 132.184 35.9723 132.148C36.1415 132.076 36.3106 131.997 36.4797 131.911C36.5541 131.875 36.6285 131.842 36.7029 131.801C36.9239 131.686 37.1449 131.559 37.3681 131.422C37.4696 131.361 37.5733 131.291 37.6748 131.226C37.8101 131.138 37.9476 131.047 38.0851 130.95C38.2001 130.869 38.3151 130.788 38.4301 130.704C38.5677 130.603 38.7052 130.494 38.8405 130.386C38.933 130.312 39.0254 130.246 39.1201 130.17C39.1201 130.17 42.4934 127.225 44.9602 121.207C42.8452 117.832 40.7098 114.515 37.3388 112.52L37.341 112.522Z" fill="#6C731B"/>
<path d="M147.59 67.4329C147.5 69.6329 147.364 71.8487 146.704 73.9426C145.987 76.2216 144.562 78.381 142.428 79.455C140.377 80.4885 137.937 80.414 135.792 81.2376C130.981 83.0856 128.938 88.8552 128.744 94.0088C128.701 95.1551 128.737 96.3013 128.82 97.4453C133.901 100.929 138.061 101.581 138.061 101.581C139.646 101.787 141.035 101.739 142.257 101.482C142.313 101.471 142.37 101.457 142.426 101.446C142.561 101.414 142.699 101.385 142.83 101.349C152.07 98.8917 150.868 83.2932 147.592 67.4307L147.59 67.4329Z" fill="#6C731B"/>
</g>
</g>
<defs>
<clipPath id="clip0_1_967">
<rect width="150" height="132.787" fill="white" transform="translate(0 0.0839844)"/>
</clipPath>
</defs>
</svg>
