<svg width="150" height="151" viewBox="0 0 150 151" fill="none" xmlns="http://www.w3.org/2000/svg">
<g clip-path="url(#clip0_1_905)">
<path d="M20.9237 12.7299L24.3459 17.6658C24.3459 17.6658 27.3336 17.9855 27.2051 24.2245C27.0869 29.8985 32.0843 23.7157 32.0843 23.7157C32.0843 23.7157 29.43 15.011 29.3209 14.7905C29.2096 14.5669 26.6215 11.312 26.3207 11.0865C26.0199 10.8611 20.9237 12.7299 20.9237 12.7299Z" fill="#4F5C1B"/>
<path d="M148.499 31.3994L127.7 146.037C127.293 148.277 125.148 149.756 122.916 149.351L8.2736 128.55C6.04177 128.146 4.55303 126.007 4.9594 123.767L21.9807 29.9539C26.0067 29.0055 29.2874 25.7523 30.073 21.4225C30.8586 17.0928 28.9294 12.897 25.4937 10.5921L25.7595 9.12693C26.1659 6.88722 28.3111 5.40779 30.5429 5.81273L145.188 26.6138C146.202 26.7977 147.072 27.3406 147.668 28.1025L147.676 28.104C148.387 28.9978 148.725 30.1846 148.506 31.3951L148.499 31.3994Z" fill="#4F5C1B"/>
<path d="M2.52148 122.118L5.53071 126.415L6.18957 122.784L2.52148 122.118Z" fill="#4F5C1B"/>
<path d="M144.251 23.168L147.668 28.1029L143.493 27.3454L144.251 23.168Z" fill="#4F5C1B"/>
<path d="M145.041 26.4085L124.241 141.046C123.835 143.286 121.69 144.765 119.458 144.36L4.81509 123.56C2.58326 123.155 1.09452 121.016 1.50089 118.776L18.2769 26.3152C19.6632 26.5667 21.0356 26.3872 22.2427 25.8631C22.4236 25.7929 22.5985 25.7107 22.7689 25.6087C24.5732 24.6478 25.9285 22.903 26.3206 20.7421C26.7127 18.5812 26.0572 16.4688 24.7049 14.9379C24.5808 14.7852 24.4463 14.6442 24.3017 14.5149C23.3552 13.6028 22.1338 12.9499 20.7475 12.6984L22.3005 4.13865C22.7069 1.89894 24.8521 0.419513 27.084 0.824454L141.729 21.6255C142.772 21.8147 143.651 22.381 144.248 23.1675L144.255 23.1768L144.481 23.5025C145.004 24.3379 145.234 25.3613 145.043 26.4116L145.041 26.4085Z" fill="#BECB32"/>
<path d="M141.057 26.958L120.705 139.133C120.551 139.978 119.745 140.537 118.907 140.385L6.72721 120.031C6.3176 119.957 5.98217 119.728 5.74839 119.417C5.51053 119.084 5.40607 118.658 5.4842 118.227L21.4813 30.0592C21.6462 30.0322 21.813 29.9947 21.9803 29.9545C26.0063 29.0062 29.287 25.7529 30.0726 21.4231C30.8582 17.0934 28.929 12.8976 25.4933 10.5927C25.3512 10.4937 25.2078 10.4026 25.0628 10.3193L25.837 6.05256C25.9904 5.20709 26.7969 4.64828 27.6345 4.80025L139.814 25.154C140.245 25.2321 140.599 25.4781 140.826 25.8257C141.036 26.1486 141.133 26.5431 141.057 26.958Z" fill="#5D7F50"/>
<path d="M126.582 106.737L127.004 104.41L114.981 102.229L114.919 102.57L114.559 104.555L111.469 121.588L100.417 119.583L101.116 115.731L98.7899 115.309L98.091 119.161L97.8028 120.749L97.6689 121.487L123.07 126.096L123.492 123.77L113.795 122.01L116.886 104.977L126.582 106.737Z" fill="#4B7548"/>
<path d="M51.0037 128.064L53.3301 128.486L54.3867 122.663L52.0604 122.24L51.0037 128.064Z" fill="#4B7548"/>
<path d="M47.2764 105.963L44.9501 105.541L43.6157 112.895L36.544 116.803L38.7902 104.423L36.4639 104.001L32.7008 124.741L35.0271 125.163L35.9995 119.804L45.742 114.42L47.2764 105.963Z" fill="#4B7548"/>
<path d="M87.8431 113.323L87.067 117.601L66.3189 113.836L67.0949 109.559L64.7686 109.137L63.9925 113.414L63.7815 114.577L63.5704 115.74L88.9713 120.349L89.1823 119.186L89.3934 118.023L90.1694 113.745L87.8431 113.323Z" fill="#4B7548"/>
<path d="M84.5561 37.5109L85.3321 33.2337L64.584 29.4692L63.8079 33.7464L61.4815 33.3243L62.2576 29.0471L62.4686 27.8839L62.6797 26.7207L88.0806 31.3294L87.8695 32.4926L87.6585 33.6558L86.8824 37.933L84.5561 37.5109Z" fill="#4B7548"/>
<path d="M121.664 82.6472L124.713 65.8428L125.135 63.5165L122.808 63.0944L115.394 61.749L114.971 64.0754L122.386 65.4207L118.915 84.5541L120.493 84.8404L121.241 84.9762L130.234 86.6079L130.657 84.2789L121.664 82.6472Z" fill="#4B7548"/>
<path d="M124.047 49.5859L126.715 34.882L127.137 32.5557L124.811 32.1336L96.8788 27.0656L98.5829 17.6735L96.2539 17.251L94.5498 26.6431L94.1277 28.9694L96.4567 29.392L124.389 34.4599L121.721 49.1638L121.299 51.4901L123.625 51.9122L136.118 54.1789L136.54 51.8526L124.047 49.5859Z" fill="#4B7548"/>
<path d="M20.2004 37.117L19.7783 39.4434L41.6004 43.4027L42.0225 41.0764L20.2004 37.117Z" fill="#4B7548"/>
<path d="M42.1643 46.0787L41.1467 43.9441L26.5655 50.8994L25.3326 57.6947L27.6589 58.1168L28.6756 52.5136L42.1643 46.0787Z" fill="#4B7548"/>
<path d="M30.2185 63.279C29.7631 65.7892 27.3585 67.4575 24.8457 67.0016C22.3329 66.5456 20.6672 64.1415 21.1231 61.6287C21.579 59.116 23.9831 57.4503 26.4959 57.9062C29.0087 58.3621 30.6744 60.7662 30.2185 63.279Z" stroke="#4B7548" stroke-width="2.62" stroke-miterlimit="10"/>
<path d="M53.2265 122.453C55.7382 122.908 58.1436 121.242 58.5994 118.73C59.0551 116.219 57.3884 113.813 54.8768 113.357C52.3652 112.902 49.9597 114.568 49.504 117.08C49.0483 119.592 50.7149 121.997 53.2265 122.453Z" stroke="#4B7548" stroke-width="2.62" stroke-miterlimit="10"/>
<path d="M35.8521 75.0846L36.2742 72.7582L14.4521 68.7988L14.0301 71.1252L22.6134 72.6825L19.3525 90.6554L10.7691 89.098L10.347 91.4244L18.9304 92.9817L21.2567 93.4038L21.3145 93.4143L21.7366 91.0879L21.6788 91.0775L24.9398 73.1046L35.8521 75.0846Z" fill="#4B7548"/>
<path d="M36.0703 98.4159L22.6478 95.9806L21.7288 95.8138L20.3214 95.5585L18.645 104.798L8.263 102.915L7.84091 105.241L18.2229 107.125L18.8084 107.231L20.5492 107.547L22.2257 98.3069L35.6482 100.742L36.0703 98.4159Z" fill="#4B7548"/>
<path d="M49.6526 31.178L47.3263 30.7559L48.3134 25.3155C48.4301 24.6722 49.0443 24.2467 49.6876 24.3634C50.3309 24.4801 50.7564 25.0943 50.6397 25.7376L49.6526 31.178Z" fill="#4B7548"/>
<path d="M117.515 45.6043L46.4826 32.7162C46.0505 32.6378 45.6366 32.9245 45.5582 33.3567L32.6702 104.389C32.5918 104.822 32.8785 105.235 33.3106 105.314L104.343 118.202C104.775 118.28 105.189 117.994 105.268 117.561L118.156 46.5287C118.234 46.0965 117.947 45.6827 117.515 45.6043Z" fill="#000001"/>
<path d="M115.21 43.0734L117.416 46.2535L114.538 45.7314L115.21 43.0734Z" fill="#000001"/>
<path d="M31.4959 101.814L33.4324 104.698L34.0456 101.319L31.4959 101.814Z" fill="#000001"/>
<path d="M115.314 42.4275L44.2815 29.5394C43.8493 29.461 43.4355 29.7478 43.3571 30.1799L30.469 101.213C30.3906 101.645 30.6773 102.059 31.1095 102.137L102.142 115.025C102.574 115.104 102.988 114.817 103.067 114.385L115.955 43.3519C116.033 42.9198 115.746 42.5059 115.314 42.4275Z" fill="#0E0F0F"/>
<path d="M130.343 107.416L130.765 105.09L127.005 104.408L126.583 106.734L130.343 107.416Z" fill="#436040"/>
<path d="M99.2619 13.9201L96.9355 13.498L96.2548 17.2502L98.5811 17.6722L99.2619 13.9201Z" fill="#436040"/>
<path d="M35.0275 125.163L32.7012 124.741L32.0204 128.493L34.3468 128.915L35.0275 125.163Z" fill="#436040"/>
<path d="M53.3342 128.485L51.0078 128.062L50.327 131.815L52.6534 132.237L53.3342 128.485Z" fill="#436040"/>
<path d="M19.7791 39.4435L20.2012 37.1172L16.4412 36.435L16.0191 38.7613L19.7791 39.4435Z" fill="#436040"/>
<path d="M14.0301 71.1252L14.4521 68.7988L10.6922 68.1166L10.2701 70.443L14.0301 71.1252Z" fill="#436040"/>
<path d="M10.3474 91.424L10.7695 89.0977L7.00955 88.4155L6.58746 90.7418L10.3474 91.424Z" fill="#436040"/>
<path d="M7.8406 105.24L8.2627 102.914L4.50271 102.232L4.08062 104.558L7.8406 105.24Z" fill="#436040"/>
<path d="M133.995 87.2873L134.417 84.9609L130.657 84.2787L130.235 86.6051L133.995 87.2873Z" fill="#436040"/>
<path d="M133.994 87.2909L137.453 92.2822L137.874 89.9584L134.417 84.9619L133.994 87.2909Z" fill="#424514"/>
<path d="M130.343 107.419L133.801 112.41L134.222 110.087L130.765 105.093L130.343 107.419Z" fill="#424514"/>
<path d="M53.7858 136.806L50.3271 131.817L52.6483 132.239L56.1122 137.228L53.7858 136.806Z" fill="#424514"/>
<path d="M35.4792 133.485L32.0205 128.496L34.3416 128.917L37.8055 133.907L35.4792 133.485Z" fill="#424514"/>
<path d="M39.2899 14.5524C39.0607 15.8154 37.8509 16.6536 36.5879 16.4244C35.325 16.1953 34.4868 14.9855 34.7159 13.7225C34.9451 12.4596 36.1549 11.6213 37.4178 11.8505C38.6808 12.0796 39.519 13.2895 39.2899 14.5524Z" fill="#BECB32"/>
<path d="M48.661 16.2526C48.4318 17.5156 47.222 18.3538 45.959 18.1246C44.6961 17.8955 43.8579 16.6857 44.087 15.4227C44.3162 14.1598 45.526 13.3215 46.7889 13.5507C48.0519 13.7798 48.8901 14.9897 48.661 16.2526Z" fill="#BECB32"/>
<path d="M58.032 17.9528C57.8029 19.2158 56.5931 20.054 55.3301 19.8248C54.0672 19.5957 53.229 18.3859 53.4581 17.1229C53.6873 15.86 54.8971 15.0217 56.16 15.2509C57.423 15.48 58.2612 16.6898 58.032 17.9528Z" fill="#BECB32"/>
<path d="M67.4031 19.653C67.174 20.916 65.9642 21.7542 64.7012 21.525C63.4383 21.2959 62.6 20.0861 62.8292 18.8231C63.0583 17.5602 64.2682 16.7219 65.5311 16.9511C66.7941 17.1802 67.6323 18.39 67.4031 19.653Z" fill="#BECB32"/>
<path d="M76.7713 21.3532C76.5422 22.6161 75.3323 23.4544 74.0694 23.2252C72.8064 22.9961 71.9682 21.7863 72.1974 20.5233C72.4265 19.2603 73.6363 18.4221 74.8993 18.6513C76.1622 18.8804 77.0005 20.0902 76.7713 21.3532Z" fill="#BECB32"/>
<path d="M107.253 130.623C107.482 129.36 108.692 128.522 109.955 128.751C111.218 128.98 112.056 130.19 111.827 131.453C111.598 132.716 110.388 133.554 109.125 133.325C107.862 133.096 107.024 131.886 107.253 130.623Z" fill="#BECB32"/>
<path d="M97.8819 128.923C98.1111 127.66 99.3209 126.822 100.584 127.051C101.847 127.28 102.685 128.49 102.456 129.753C102.227 131.016 101.017 131.854 99.754 131.625C98.491 131.395 97.6528 130.186 97.8819 128.923Z" fill="#BECB32"/>
<path d="M88.5108 127.223C88.74 125.96 89.9498 125.121 91.2128 125.35C92.4757 125.58 93.3139 126.789 93.0848 128.052C92.8556 129.315 91.6458 130.154 90.3829 129.924C89.1199 129.695 88.2817 128.485 88.5108 127.223Z" fill="#BECB32"/>
<path d="M79.1427 125.522C79.3718 124.259 80.5816 123.421 81.8446 123.65C83.1075 123.879 83.9458 125.089 83.7166 126.352C83.4875 127.615 82.2777 128.453 81.0147 128.224C79.7517 127.995 78.9135 126.785 79.1427 125.522Z" fill="#BECB32"/>
<path d="M69.7716 123.822C70.0007 122.559 71.2105 121.721 72.4735 121.95C73.7364 122.179 74.5747 123.389 74.3455 124.652C74.1164 125.915 72.9066 126.753 71.6436 126.524C70.3806 126.295 69.5424 125.085 69.7716 123.822Z" fill="#BECB32"/>
<path d="M16.5535 119.658L8.52939 118.202C8.00163 118.106 7.65392 117.601 7.7492 117.076L9.20508 109.052L16.5535 119.658Z" fill="#BECB32"/>
<path d="M130.588 25.0039L138.612 26.4598C139.14 26.5555 139.487 27.0607 139.392 27.5858L137.936 35.6099L130.588 25.0039Z" fill="#BECB32"/>
<path d="M86.6993 75.7883L94.4634 77.197C94.5299 79.5062 96.2074 81.5463 98.5758 81.976C101.296 82.4696 103.908 80.6599 104.401 77.9397C104.895 75.2195 103.084 72.6128 100.364 72.1192C97.9984 71.69 95.71 73.0024 94.835 75.1489L75.8697 71.7079L86.6805 64.2176L88.3928 63.0312L96.7582 64.549C96.8233 66.8662 98.5013 68.9036 100.87 69.3334C103.59 69.8269 106.202 68.0172 106.695 65.297C107.189 62.5768 105.379 59.9648 102.659 59.4713C100.293 59.042 98.0034 60.3623 97.1298 62.501L89.3657 61.0923L90.7744 53.3281C93.0915 53.2631 95.1238 51.5841 95.5535 49.2158C96.047 46.4956 94.2373 43.8836 91.5224 43.391C88.8074 42.8984 86.1902 44.7072 85.6966 47.4274C85.2674 49.7931 86.5877 52.083 88.7264 52.9565L87.2085 61.322L85.4962 62.5084L74.6854 69.9986L78.1265 51.0333C80.4436 50.9682 82.4811 49.2903 82.9108 46.9219C83.4043 44.2017 81.5946 41.5897 78.8744 41.0962C76.1542 40.6026 73.5423 42.4123 73.0487 45.1325C72.6195 47.4983 73.9371 49.7877 76.0837 50.6627L72.6426 69.628L65.1524 58.8172L63.9595 57.0956L65.4759 48.738C67.793 48.673 69.8305 46.995 70.2602 44.6266C70.7538 41.9064 68.9441 39.2944 66.2239 38.8009C63.5037 38.3073 60.8917 40.117 60.3982 42.8372C59.9689 45.203 61.2866 47.4924 63.4331 48.3674L62.0244 56.1315L54.2603 54.7228C54.1859 52.4121 52.5163 50.3735 50.1427 49.9428C47.4277 49.4502 44.8157 51.2599 44.3222 53.9801C43.8286 56.7003 45.6383 59.3123 48.3533 59.8049C50.7269 60.2355 53.0085 58.9165 53.8887 56.7708L62.2541 58.2887L63.4362 59.9948L70.9329 70.8149L51.9676 67.3738C51.8946 65.0553 50.2236 63.0245 47.85 62.5938C45.135 62.1012 42.5231 63.9109 42.0305 66.6259C41.5379 69.3408 43.3466 71.9581 46.0616 72.4507C48.4352 72.8813 50.7172 71.5596 51.596 69.4219L70.5613 72.8629L59.7412 80.3596L58.0351 81.5417L49.6697 80.0239C49.5967 77.7054 47.9266 75.6693 45.553 75.2387C42.838 74.7461 40.2261 76.5558 39.7325 79.276C39.239 81.9962 41.0487 84.6081 43.7636 85.1007C46.1373 85.5314 48.4188 84.2123 49.299 82.0667L57.0632 83.4754L55.6545 91.2396C53.3359 91.3125 51.2984 92.9905 50.8692 95.3562C50.3756 98.0765 52.1853 100.688 54.9055 101.182C57.6258 101.676 60.2377 99.8658 60.7313 97.1456C61.1605 94.7799 59.8428 92.4904 57.6972 91.6102L59.2136 83.2527L60.926 82.0663L71.7461 74.5695L68.305 93.5349C65.9865 93.6078 63.949 95.2858 63.5197 97.6515C63.0262 100.372 64.8359 102.984 67.5561 103.477C70.2763 103.971 72.8883 102.161 73.3818 99.4409C73.8111 97.0752 72.4908 94.7852 70.3478 93.9055L73.7888 74.9402L81.2855 85.7603L82.4677 87.4664L80.9498 95.8319C78.6392 95.9062 76.5991 97.5837 76.1698 99.9495C75.6763 102.67 77.486 105.282 80.2062 105.775C82.9264 106.269 85.5331 104.458 86.0267 101.738C86.4559 99.3721 85.1435 97.0836 82.9979 96.2034L84.4066 88.4393L92.1707 89.848C92.2358 92.1651 93.9138 94.2026 96.2822 94.6323C99.0024 95.1259 101.614 93.3162 102.108 90.596C102.601 87.8758 100.792 85.2638 98.0715 84.7702C95.7058 84.341 93.4158 85.6613 92.5414 87.8052L84.176 86.2874L82.9895 84.5751L75.4993 73.7643L86.7005 75.7966L86.6993 75.7883ZM100.027 73.9756C101.726 74.2838 102.85 75.9088 102.543 77.5998C102.236 79.2907 100.61 80.4222 98.9135 80.1144C97.2174 79.8067 96.0911 78.1812 96.3989 76.485C96.7066 74.7888 98.3364 73.6688 100.027 73.9756ZM102.323 61.325C104.021 61.6332 105.145 63.2583 104.837 64.9545C104.53 66.6507 102.904 67.7769 101.208 67.4691C99.5117 67.1614 98.3864 65.5306 98.6932 63.8397C99 62.1487 100.632 61.0182 102.323 61.325ZM87.5566 47.7594C87.8634 46.0685 89.4898 44.937 91.186 45.2447C92.8822 45.5525 94.0022 47.1823 93.6954 48.8732C93.3886 50.5642 91.7622 51.6957 90.0712 51.3889C88.3803 51.0821 87.2498 49.4504 87.5566 47.7594ZM74.9034 45.4636C75.2102 43.7727 76.8419 42.6422 78.5328 42.949C80.2238 43.2558 81.3543 44.8875 81.0475 46.5784C80.7407 48.2694 79.109 49.3999 77.4181 49.0931C75.7271 48.7863 74.5966 47.1546 74.9034 45.4636ZM62.2502 43.1679C62.557 41.4769 64.1887 40.3464 65.8797 40.6532C67.5706 40.96 68.7011 42.5917 68.3943 44.2826C68.0875 45.9736 66.4611 47.1051 64.7649 46.7973C63.0687 46.4895 61.9434 44.8588 62.2502 43.1679ZM48.6837 57.9392C46.9927 57.6324 45.8674 56.0017 46.1742 54.3107C46.481 52.6198 48.1075 51.4883 49.7984 51.7951C51.4894 52.1019 52.6209 53.7283 52.3131 55.4245C52.0053 57.1207 50.3799 58.247 48.6837 57.9392ZM46.3888 70.5871C44.6979 70.2803 43.5717 68.6548 43.8794 66.9586C44.1872 65.2625 45.8117 64.1415 47.5027 64.4483C49.1936 64.7551 50.3251 66.3815 50.0183 68.0725C49.7115 69.7634 48.085 70.8949 46.3888 70.5871ZM44.0935 83.2377C42.4026 82.9309 41.2773 81.3002 41.5841 79.6092C41.8909 77.9183 43.5174 76.7868 45.2083 77.0936C46.8993 77.4004 48.0298 79.0321 47.723 80.723C47.4162 82.414 45.7897 83.5454 44.0935 83.2377ZM58.8675 96.8047C58.5607 98.4957 56.9343 99.6271 55.2381 99.3194C53.5419 99.0116 52.4166 97.3809 52.7234 95.69C53.0302 93.999 54.6619 92.8685 56.3528 93.1753C58.0438 93.4821 59.1753 95.1085 58.8675 96.8047ZM71.5207 99.1005C71.2139 100.791 69.5822 101.922 67.8912 101.615C66.2003 101.308 65.0698 99.6767 65.3766 97.9857C65.6834 96.2948 67.3151 95.1643 69.006 95.4711C70.697 95.7779 71.8284 97.4043 71.5207 99.1005ZM84.166 101.395C83.8592 103.086 82.2327 104.217 80.5418 103.91C78.8509 103.604 77.7203 101.972 78.0271 100.281C78.3339 98.5901 79.9604 97.4586 81.6566 97.7664C83.3528 98.0741 84.4738 99.6987 84.166 101.395ZM97.7325 86.6235C99.4314 86.9317 100.554 88.562 100.247 90.253C99.9404 91.9439 98.314 93.0754 96.6178 92.7676C94.9216 92.4599 93.7963 90.8291 94.1031 89.1382C94.4099 87.4472 96.0416 86.3167 97.7325 86.6235Z" fill="#BECB32"/>
</g>
<defs>
<clipPath id="clip0_1_905">
<rect width="129.038" height="129.03" fill="white" transform="translate(23.0352 0.0898438) rotate(10.2838)"/>
</clipPath>
</defs>
</svg>
