<svg width="50" height="50" viewBox="0 0 50 50" fill="none" xmlns="http://www.w3.org/2000/svg">
<g clip-path="url(#clip0_99_563)">
<path d="M8.85417 0.750004H41.1458C42.3089 0.748908 43.4607 0.977179 44.5355 1.42175C45.6102 1.86633 46.5867 2.51848 47.4091 3.34088C48.2315 4.16329 48.8837 5.1398 49.3283 6.21453C49.7728 7.28926 50.0011 8.44112 50 9.60417V40.6458C50.0011 41.8089 49.7728 42.9607 49.3283 44.0355C48.8837 45.1102 48.2315 46.0867 47.4091 46.9091C46.5867 47.7315 45.6102 48.3837 44.5355 48.8283C43.4607 49.2728 42.3089 49.5011 41.1458 49.5H8.85417C7.69112 49.5011 6.53926 49.2728 5.46453 48.8283C4.3898 48.3837 3.41329 47.7315 2.59088 46.9091C1.76848 46.0867 1.11633 45.1102 0.671755 44.0355C0.227179 42.9607 -0.00109226 41.8089 3.92932e-06 40.6458V9.60417C-0.00109226 8.44112 0.227179 7.28926 0.671755 6.21453C1.11633 5.1398 1.76848 4.16329 2.59088 3.34088C3.41329 2.51848 4.3898 1.86633 5.46453 1.42175C6.53926 0.977179 7.69112 0.748908 8.85417 0.750004Z" fill="#002B22"/>
<path d="M24.2294 30.0003H16.4794L14.896 34.8962C14.8783 34.9854 14.8279 35.0648 14.7547 35.1188C14.6814 35.1727 14.5907 35.1974 14.5002 35.1878H10.5835C10.3544 35.1878 10.2919 35.0628 10.3544 34.8128L17.0627 15.5003C17.1252 15.292 17.1877 15.0628 17.271 14.8128C17.3549 14.3663 17.3967 13.913 17.396 13.4587C17.3898 13.4065 17.4035 13.3539 17.4344 13.3114C17.4653 13.2689 17.5111 13.2396 17.5627 13.2295H22.9585C23.1252 13.2295 23.2085 13.292 23.2294 13.3962L30.8335 34.8545C30.896 35.0837 30.8335 35.1878 30.6252 35.1878H26.271C26.1974 35.1949 26.1236 35.1758 26.0626 35.1339C26.0017 35.092 25.9574 35.03 25.9377 34.9587L24.2294 30.0003ZM17.6877 25.7712H22.9794C22.8544 25.3337 22.6877 24.8128 22.5002 24.2712C22.3127 23.7295 22.1252 23.1045 21.9377 22.4795C21.7502 21.8545 21.5419 21.2087 21.3335 20.5628C21.1252 19.917 20.9377 19.3128 20.771 18.7087C20.6044 18.1045 20.4585 17.5837 20.3127 17.0837H20.271C20.0838 17.9917 19.8473 18.8888 19.5627 19.7712C19.2502 20.7712 18.9377 21.8128 18.6044 22.8545C18.3127 23.917 18.0002 24.8962 17.6877 25.7712Z" fill="#EFFF3D"/>
<path d="M35.3751 16.7917C35.0331 16.7992 34.6931 16.7386 34.3748 16.6134C34.0564 16.4883 33.7662 16.301 33.5209 16.0626C33.0436 15.5407 32.7894 14.8528 32.8126 14.1459C32.8003 13.8015 32.8607 13.4584 32.99 13.1389C33.1192 12.8194 33.3143 12.5307 33.5626 12.2917C34.0634 11.8184 34.7278 11.5572 35.4168 11.5626C36.2293 11.5626 36.8543 11.8126 37.3126 12.2917C37.7741 12.7969 38.0207 13.462 38.0001 14.1459C38.0128 14.4979 37.9548 14.8489 37.8296 15.1781C37.7043 15.5073 37.5144 15.808 37.2709 16.0626C37.0254 16.3126 36.7292 16.5071 36.4021 16.6329C36.0751 16.7587 35.7249 16.8129 35.3751 16.7917ZM33.0418 34.8751V18.8334C33.0418 18.6251 33.1251 18.5417 33.3126 18.5417H37.4376C37.6251 18.5417 37.7084 18.6459 37.7084 18.8334V34.8751C37.7084 35.1042 37.6251 35.2084 37.4376 35.2084H33.3543C33.3105 35.212 33.2664 35.2057 33.2255 35.1899C33.1845 35.1741 33.1476 35.1493 33.1175 35.1172C33.0875 35.0852 33.065 35.0467 33.0519 35.0048C33.0388 34.9629 33.0353 34.9185 33.0418 34.8751Z" fill="#EFFF3D"/>
</g>
<defs>
<clipPath id="clip0_99_563">
<rect width="50" height="48.75" fill="white" transform="translate(0 0.75)"/>
</clipPath>
</defs>
</svg>
