<svg width="50" height="49" viewBox="0 0 50 49" fill="none" xmlns="http://www.w3.org/2000/svg">
<g clip-path="url(#clip0_99_467)">
<path d="M8.85417 3.92932e-06H41.1458C42.3089 -0.00109226 43.4607 0.227179 44.5355 0.671755C45.6102 1.11633 46.5867 1.76848 47.4091 2.59088C48.2315 3.41329 48.8837 4.3898 49.3283 5.46453C49.7728 6.53926 50.0011 7.69112 50 8.85417V39.8958C50.0011 41.0589 49.7728 42.2107 49.3283 43.2855C48.8837 44.3602 48.2315 45.3367 47.4091 46.1591C46.5867 46.9815 45.6102 47.6337 44.5355 48.0783C43.4607 48.5228 42.3089 48.7511 41.1458 48.75H8.85417C7.69112 48.7511 6.53926 48.5228 5.46453 48.0783C4.3898 47.6337 3.41329 46.9815 2.59088 46.1591C1.76848 45.3367 1.11633 44.3602 0.671755 43.2855C0.227179 42.2107 -0.00109226 41.0589 3.92932e-06 39.8958V8.85417C-0.00109226 7.69112 0.227179 6.53926 0.671755 5.46453C1.11633 4.3898 1.76848 3.41329 2.59088 2.59088C3.41329 1.76848 4.3898 1.11633 5.46453 0.671755C6.53926 0.227179 7.69112 -0.00109226 8.85417 3.92932e-06Z" fill="#002B22"/>
<path d="M18.1668 12.7493V34.1243C18.1668 34.3535 18.0627 34.4576 17.8752 34.4576H13.7918C13.6043 34.4576 13.521 34.3535 13.521 34.1243V12.7493C13.521 12.5618 13.6252 12.4785 13.8127 12.4785H17.8752C17.9067 12.4735 17.939 12.475 17.97 12.4829C18.001 12.4908 18.03 12.5049 18.0554 12.5244C18.0807 12.5439 18.1018 12.5684 18.1174 12.5963C18.133 12.6242 18.1427 12.655 18.146 12.6868C18.1539 12.695 18.1598 12.7049 18.1634 12.7157C18.167 12.7265 18.1682 12.738 18.1668 12.7493Z" fill="#EFFF3D"/>
<path d="M30.1667 34.7914C28.6224 34.8167 27.092 34.4964 25.6875 33.8539C24.3808 33.2428 23.2856 32.2565 22.5417 31.0206C21.7708 29.7497 21.3958 28.1664 21.3958 26.2706C21.3747 24.7288 21.7706 23.21 22.5417 21.8747C23.3323 20.5176 24.4774 19.4014 25.8542 18.6456C27.3125 17.8331 29.0625 17.4372 31.125 17.4372C31.2711 17.4356 31.4172 17.4425 31.5625 17.4581C31.75 17.4789 31.9583 17.4789 32.2083 17.4997V10.9164C32.2083 10.7706 32.2708 10.6872 32.4167 10.6872H36.6458C36.6925 10.6809 36.7399 10.6924 36.7785 10.7194C36.8171 10.7465 36.8441 10.787 36.8542 10.8331V30.7081C36.8542 31.0831 36.875 31.4997 36.8958 31.9581C36.9167 32.4164 36.9583 32.8122 36.9792 33.1664C36.9836 33.2368 36.9659 33.3068 36.9285 33.3665C36.8912 33.4263 36.836 33.4729 36.7708 33.4997C35.6796 33.9584 34.5406 34.2938 33.375 34.4997C32.3163 34.6916 31.2426 34.7892 30.1667 34.7914ZM32.2083 30.6247V21.4581C32.0228 21.4133 31.8351 21.3785 31.6458 21.3539C31.4167 21.3331 31.1875 21.3122 30.9583 21.3122C30.1417 21.303 29.3346 21.4887 28.6042 21.8539C27.8922 22.2086 27.2827 22.7393 26.8333 23.3956C26.375 24.0622 26.1458 24.9581 26.1458 26.0414C26.1277 26.7726 26.2478 27.5007 26.5 28.1872C26.7015 28.7425 27.0214 29.2472 27.4375 29.6664C27.8391 30.0497 28.324 30.3349 28.8542 30.4997C29.4122 30.6825 29.9961 30.774 30.5833 30.7706C30.8958 30.7706 31.1875 30.7497 31.4583 30.7289C31.7129 30.7485 31.9687 30.713 32.2083 30.6247Z" fill="#EFFF3D"/>
</g>
<defs>
<clipPath id="clip0_99_467">
<rect width="50" height="48.75" fill="white"/>
</clipPath>
</defs>
</svg>
