<svg width="80" height="80" viewBox="0 0 80 80" fill="none" xmlns="http://www.w3.org/2000/svg">
<path d="M53.5245 40.0478C53.5245 38.9646 53.3652 37.7857 53.0466 36.5114H57.0609V55.8184C57.0609 56.3282 56.8857 56.7423 56.5352 57.0609C56.1848 57.3795 55.7547 57.5388 55.2449 57.5388H23.7993C23.2895 57.5388 22.8753 57.3795 22.5568 57.0609C22.2382 56.7423 22.0789 56.3282 22.0789 55.8184V36.5114H25.9976C25.679 37.7857 25.5197 38.9646 25.5197 40.0478C25.5197 41.9594 25.8861 43.7754 26.6189 45.4958C27.3517 47.2162 28.3552 48.6977 29.6296 49.9403C30.904 51.1828 32.4014 52.1705 34.1219 52.9032C35.8423 53.636 37.6583 54.0024 39.5699 54.0024C41.4815 54.0024 43.2975 53.636 45.0179 52.9032C46.7384 52.1705 48.2198 51.1828 49.4624 49.9403C50.7049 48.6977 51.6926 47.2162 52.4253 45.4958C53.1581 43.7754 53.5245 41.9594 53.5245 40.0478ZM39.5699 48.7455C38.3592 48.7455 37.2123 48.5225 36.129 48.0765C35.0458 47.6304 34.1059 47.0092 33.3094 46.2127C32.5129 45.4162 31.8917 44.4922 31.4456 43.4409C30.9996 42.3895 30.7766 41.2585 30.7766 40.0478C30.7766 38.8371 30.9996 37.6902 31.4456 36.6069C31.8917 35.5237 32.5129 34.5838 33.3094 33.7873C34.1059 32.9908 35.0458 32.3696 36.129 31.9235C37.2123 31.4775 38.3592 31.2545 39.5699 31.2545C40.7806 31.2545 41.9116 31.4775 42.963 31.9235C44.0143 32.3696 44.9383 32.9908 45.7348 33.7873C46.5313 34.5838 47.1525 35.5237 47.5986 36.6069C48.0446 37.6902 48.2676 38.8371 48.2676 40.0478C48.2676 41.2585 48.0446 42.3895 47.5986 43.4409C47.1525 44.4922 46.5313 45.4162 45.7348 46.2127C44.9383 47.0092 44.0143 47.6304 42.963 48.0765C41.9116 48.5225 40.7806 48.7455 39.5699 48.7455ZM55.2449 22.5568C55.7547 22.5568 56.1848 22.716 56.5352 23.0346C56.8857 23.3532 57.0609 23.7674 57.0609 24.2772V29.5341C57.0609 30.0438 56.8857 30.458 56.5352 30.7766C56.1848 31.0952 55.7547 31.2545 55.2449 31.2545H49.9881C49.4783 31.2545 49.0641 31.0952 48.7455 30.7766C48.4269 30.458 48.2676 30.0438 48.2676 29.5341V24.2772C48.2676 23.7674 48.4269 23.3532 48.7455 23.0346C49.0641 22.716 49.4783 22.5568 49.9881 22.5568H55.2449ZM59.9283 0C62.6683 0 65.2648 0.525687 67.718 1.57706C70.1712 2.62843 72.3059 4.06213 74.1219 5.87814C75.9379 7.69415 77.3716 9.81282 78.4229 12.2342C79.4743 14.6555 80 17.2362 80 19.9761V59.9283C80 62.6683 79.4743 65.2648 78.4229 67.718C77.3716 70.1712 75.9379 72.3059 74.1219 74.1219C72.3059 75.9379 70.1712 77.3716 67.718 78.4229C65.2648 79.4743 62.6683 80 59.9283 80H19.9761C17.2362 80 14.6555 79.4743 12.2342 78.4229C9.81282 77.3716 7.69415 75.9379 5.87814 74.1219C4.06213 72.3059 2.62843 70.1712 1.57706 67.718C0.525687 65.2648 0 62.6683 0 59.9283V19.9761C0 17.2362 0.525687 14.6555 1.57706 12.2342C2.62843 9.81282 4.06213 7.69415 5.87814 5.87814C7.69415 4.06213 9.81282 2.62843 12.2342 1.57706C14.6555 0.525687 17.2362 0 19.9761 0H59.9283ZM62.3178 22.5568C62.3178 21.0912 61.808 19.8487 60.7885 18.8292C59.769 17.8096 58.5265 17.2999 57.0609 17.2999H22.0789C20.6133 17.2999 19.3708 17.8096 18.3513 18.8292C17.3317 19.8487 16.822 21.0912 16.822 22.5568V57.5388C16.822 59.0044 17.3317 60.2469 18.3513 61.2664C19.3708 62.2859 20.6133 62.7957 22.0789 62.7957H57.0609C58.5265 62.7957 59.769 62.2859 60.7885 61.2664C61.808 60.2469 62.3178 59.0044 62.3178 57.5388V22.5568Z" fill="black"/>
</svg>
