<svg width="30" height="30" viewBox="0 0 30 30" fill="none" xmlns="http://www.w3.org/2000/svg">
<path d="M20.0717 15.0179C20.0717 14.6117 20.0119 14.1697 19.8925 13.6918H21.3979V20.9319C21.3979 21.1231 21.3321 21.2784 21.2007 21.3979C21.0693 21.5173 20.908 21.5771 20.7168 21.5771H8.92473C8.73357 21.5771 8.57826 21.5173 8.45878 21.3979C8.33931 21.2784 8.27957 21.1231 8.27957 20.9319V13.6918H9.7491C9.62963 14.1697 9.56989 14.6117 9.56989 15.0179C9.56989 15.7348 9.70729 16.4158 9.98208 17.0609C10.2569 17.7061 10.6332 18.2617 11.1111 18.7276C11.589 19.1936 12.1505 19.5639 12.7957 19.8387C13.4409 20.1135 14.1219 20.2509 14.8387 20.2509C15.5556 20.2509 16.2366 20.1135 16.8817 19.8387C17.5269 19.5639 18.0824 19.1936 18.5484 18.7276C19.0143 18.2617 19.3847 17.7061 19.6595 17.0609C19.9343 16.4158 20.0717 15.7348 20.0717 15.0179ZM14.8387 18.2796C14.3847 18.2796 13.9546 18.1959 13.5484 18.0287C13.1422 17.8614 12.7897 17.6284 12.491 17.3298C12.1924 17.0311 11.9594 16.6846 11.7921 16.2903C11.6249 15.8961 11.5412 15.4719 11.5412 15.0179C11.5412 14.5639 11.6249 14.1338 11.7921 13.7276C11.9594 13.3214 12.1924 12.9689 12.491 12.6703C12.7897 12.3716 13.1422 12.1386 13.5484 11.9713C13.9546 11.8041 14.3847 11.7204 14.8387 11.7204C15.2927 11.7204 15.7168 11.8041 16.1111 11.9713C16.5054 12.1386 16.8519 12.3716 17.1505 12.6703C17.4492 12.9689 17.6822 13.3214 17.8495 13.7276C18.0167 14.1338 18.1004 14.5639 18.1004 15.0179C18.1004 15.4719 18.0167 15.8961 17.8495 16.2903C17.6822 16.6846 17.4492 17.0311 17.1505 17.3298C16.8519 17.6284 16.5054 17.8614 16.1111 18.0287C15.7168 18.1959 15.2927 18.2796 14.8387 18.2796ZM20.7168 8.45878C20.908 8.45878 21.0693 8.51852 21.2007 8.63799C21.3321 8.75747 21.3979 8.91278 21.3979 9.10394V11.0753C21.3979 11.2664 21.3321 11.4217 21.2007 11.5412C21.0693 11.6607 20.908 11.7204 20.7168 11.7204H18.7455C18.5544 11.7204 18.399 11.6607 18.2796 11.5412C18.1601 11.4217 18.1004 11.2664 18.1004 11.0753V9.10394C18.1004 8.91278 18.1601 8.75747 18.2796 8.63799C18.399 8.51852 18.5544 8.45878 18.7455 8.45878H20.7168ZM22.4731 0C23.5006 0 24.4743 0.197133 25.3943 0.591398C26.3142 0.985663 27.1147 1.5233 27.7957 2.2043C28.4767 2.8853 29.0143 3.67981 29.4086 4.58781C29.8029 5.49582 30 6.46356 30 7.49104V22.4731C30 23.5006 29.8029 24.4743 29.4086 25.3943C29.0143 26.3142 28.4767 27.1147 27.7957 27.7957C27.1147 28.4767 26.3142 29.0143 25.3943 29.4086C24.4743 29.8029 23.5006 30 22.4731 30H7.49104C6.46356 30 5.49582 29.8029 4.58781 29.4086C3.67981 29.0143 2.8853 28.4767 2.2043 27.7957C1.5233 27.1147 0.985663 26.3142 0.591398 25.3943C0.197133 24.4743 0 23.5006 0 22.4731V7.49104C0 6.46356 0.197133 5.49582 0.591398 4.58781C0.985663 3.67981 1.5233 2.8853 2.2043 2.2043C2.8853 1.5233 3.67981 0.985663 4.58781 0.591398C5.49582 0.197133 6.46356 0 7.49104 0H22.4731ZM23.3692 8.45878C23.3692 7.9092 23.178 7.44325 22.7957 7.06093C22.4134 6.67861 21.9474 6.48746 21.3979 6.48746H8.27957C7.72999 6.48746 7.26404 6.67861 6.88172 7.06093C6.4994 7.44325 6.30824 7.9092 6.30824 8.45878V21.5771C6.30824 22.1266 6.4994 22.5926 6.88172 22.9749C7.26404 23.3572 7.72999 23.5484 8.27957 23.5484H21.3979C21.9474 23.5484 22.4134 23.3572 22.7957 22.9749C23.178 22.5926 23.3692 22.1266 23.3692 21.5771V8.45878Z" fill="#003C30"/>
</svg>
