<svg width="50" height="50" viewBox="0 0 50 50" fill="none" xmlns="http://www.w3.org/2000/svg">
<g clip-path="url(#clip0_99_551)">
<path d="M8.85417 0.750004H41.1458C42.3089 0.748908 43.4607 0.977179 44.5355 1.42175C45.6102 1.86633 46.5867 2.51848 47.4091 3.34088C48.2315 4.16329 48.8837 5.1398 49.3283 6.21453C49.7728 7.28926 50.0011 8.44112 50 9.60417V40.6458C50.0011 41.8089 49.7728 42.9607 49.3283 44.0355C48.8837 45.1102 48.2315 46.0867 47.4091 46.9091C46.5867 47.7315 45.6102 48.3837 44.5355 48.8283C43.4607 49.2728 42.3089 49.5011 41.1458 49.5H8.85417C7.69112 49.5011 6.53926 49.2728 5.46453 48.8283C4.3898 48.3837 3.41329 47.7315 2.59088 46.9091C1.76848 46.0867 1.11633 45.1102 0.671755 44.0355C0.227179 42.9607 -0.00109226 41.8089 3.92932e-06 40.6458V9.60417C-0.00109226 8.44112 0.227179 7.28926 0.671755 6.21453C1.11633 5.1398 1.76848 4.16329 2.59088 3.34088C3.41329 2.51848 4.3898 1.86633 5.46453 1.42175C6.53926 0.977179 7.69112 0.748908 8.85417 0.750004Z" fill="#002B22"/>
<path d="M26.2501 35.2086H13.0417C12.8126 35.2086 12.7084 35.0836 12.7084 34.8336V13.5419C12.7037 13.5076 12.706 13.4728 12.7151 13.4394C12.7242 13.406 12.7399 13.3748 12.7613 13.3476C12.7826 13.3204 12.8092 13.2977 12.8395 13.281C12.8698 13.2643 12.9032 13.2538 12.9376 13.2502H17.1042C17.1303 13.2455 17.157 13.2461 17.1829 13.252C17.2087 13.2579 17.2331 13.2689 17.2545 13.2845C17.2759 13.3001 17.2939 13.3199 17.3075 13.3426C17.3211 13.3654 17.3299 13.3906 17.3334 13.4169V30.9794H26.9584C27.1667 30.9794 27.2292 31.0836 27.1876 31.2711L26.5834 34.8961C26.5801 34.9439 26.5674 34.9907 26.546 35.0336C26.5245 35.0765 26.4947 35.1147 26.4584 35.1461C26.3973 35.1884 26.3244 35.2102 26.2501 35.2086Z" fill="#EFFF3D"/>
<path d="M29.5834 18.5417H33.2293C33.328 18.5441 33.4235 18.5776 33.502 18.6375C33.5806 18.6973 33.6383 18.7805 33.6668 18.8751C33.7529 19.0225 33.8095 19.1852 33.8334 19.3542C33.8751 19.5626 33.9168 19.7917 33.9376 20.0001C33.9584 20.2084 33.9793 20.4792 33.9793 20.7501C34.6048 20.0198 35.3607 19.4122 36.2084 18.9584C37.1602 18.4425 38.2302 18.1839 39.3126 18.2084C39.3469 18.2037 39.3817 18.206 39.4151 18.2151C39.4485 18.2242 39.4797 18.2399 39.5069 18.2613C39.5341 18.2826 39.5568 18.3092 39.5735 18.3395C39.5902 18.3698 39.6007 18.4032 39.6043 18.4376V22.5834C39.6043 22.7501 39.5001 22.8126 39.2709 22.8126C37.9207 22.7317 36.5708 22.9746 35.3334 23.5209C34.9114 23.7015 34.5292 23.9634 34.2084 24.2917V34.9167C34.2084 35.1251 34.1251 35.2084 33.9376 35.2084H29.8751C29.8367 35.2149 29.7973 35.2135 29.7595 35.2043C29.7216 35.1951 29.686 35.1783 29.6548 35.1549C29.6236 35.1315 29.5975 35.102 29.5781 35.0683C29.5587 35.0345 29.5463 34.9971 29.5418 34.9584V23.3334C29.5418 22.8334 29.5418 22.3126 29.5209 21.7709C29.5001 21.2292 29.5001 20.6876 29.4793 20.1459C29.4584 19.6876 29.4168 19.2292 29.3543 18.7709C29.3487 18.7463 29.3481 18.7208 29.3525 18.6959C29.3568 18.6711 29.366 18.6473 29.3796 18.626C29.3931 18.6047 29.4107 18.5863 29.4314 18.5719C29.4521 18.5574 29.4754 18.5472 29.5001 18.5417C29.5209 18.5209 29.5418 18.5209 29.5834 18.5417Z" fill="#EFFF3D"/>
</g>
<defs>
<clipPath id="clip0_99_551">
<rect width="50" height="48.75" fill="white" transform="translate(0 0.75)"/>
</clipPath>
</defs>
</svg>
