<svg width="30" height="30" viewBox="0 0 30 30" fill="none" xmlns="http://www.w3.org/2000/svg">
<path d="M22.509 0C23.5364 0 24.5042 0.197133 25.4122 0.591398C26.3202 0.985663 27.1147 1.5233 27.7957 2.2043C28.4767 2.8853 29.0143 3.67981 29.4086 4.58781C29.8029 5.49582 30 6.46356 30 7.49104V22.4731C30 23.5006 29.8029 24.4743 29.4086 25.3943C29.0143 26.3142 28.4767 27.1147 27.7957 27.7957C27.1147 28.4767 26.3202 29.0143 25.4122 29.4086C24.5042 29.8029 23.5364 30 22.509 30H7.49104C6.46356 30 5.49582 29.8029 4.58781 29.4086C3.67981 29.0143 2.8853 28.4767 2.2043 27.7957C1.5233 27.1147 0.985663 26.3142 0.591398 25.3943C0.197133 24.4743 0 23.5006 0 22.4731V7.49104C0 6.46356 0.197133 5.49582 0.591398 4.58781C0.985663 3.67981 1.5233 2.8853 2.2043 2.2043C2.8853 1.5233 3.67981 0.985663 4.58781 0.591398C5.49582 0.197133 6.46356 0 7.49104 0H22.509ZM10.3226 11.2545H6.55914V23.4409H10.3226V11.2545ZM8.45878 10.2867C8.96057 10.2867 9.39666 10.1075 9.76703 9.7491C10.1374 9.39068 10.3226 8.94863 10.3226 8.42294C10.3226 7.89725 10.1374 7.4552 9.76703 7.09677C9.39666 6.73835 8.96057 6.55914 8.45878 6.55914C7.93309 6.55914 7.48507 6.73835 7.1147 7.09677C6.74433 7.4552 6.55914 7.89725 6.55914 8.42294C6.55914 8.94863 6.74433 9.39068 7.1147 9.7491C7.48507 10.1075 7.93309 10.2867 8.45878 10.2867ZM23.4409 16.3799C23.4409 15.5197 23.2019 14.6774 22.724 13.853C22.2461 13.0287 21.6249 12.4014 20.8602 11.9713C20.1673 11.589 19.3608 11.3859 18.4409 11.362C17.5209 11.3381 16.6906 11.4934 15.9498 11.828V11.2545H12.1864V23.4409H15.9498V15.9857L17.491 15.233C17.6822 15.1374 17.945 15.0896 18.2796 15.0896C18.6141 15.0896 18.865 15.1493 19.0323 15.2688C19.1756 15.3405 19.319 15.4958 19.4624 15.7348C19.6057 15.9737 19.6774 16.1888 19.6774 16.3799V23.4409H23.4409V16.3799Z" fill="#F2F8F8"/>
</svg>
