<svg width="80" height="80" viewBox="0 0 80 80" fill="none" xmlns="http://www.w3.org/2000/svg">
<path d="M60.0239 0C62.7638 0 65.3445 0.525687 67.7658 1.57706C70.1872 2.62843 72.3059 4.06213 74.1219 5.87814C75.9379 7.69415 77.3716 9.81282 78.4229 12.2342C79.4743 14.6555 80 17.2362 80 19.9761V59.9283C80 62.6683 79.4743 65.2648 78.4229 67.718C77.3716 70.1712 75.9379 72.3059 74.1219 74.1219C72.3059 75.9379 70.1872 77.3716 67.7658 78.4229C65.3445 79.4743 62.7638 80 60.0239 80H19.9761C17.2362 80 14.6555 79.4743 12.2342 78.4229C9.81282 77.3716 7.69415 75.9379 5.87814 74.1219C4.06213 72.3059 2.62843 70.1712 1.57706 67.718C0.525687 65.2648 0 62.6683 0 59.9283V19.9761C0 17.2362 0.525687 14.6555 1.57706 12.2342C2.62843 9.81282 4.06213 7.69415 5.87814 5.87814C7.69415 4.06213 9.81282 2.62843 12.2342 1.57706C14.6555 0.525687 17.2362 0 19.9761 0H60.0239ZM27.5269 30.0119H17.491V62.509H27.5269V30.0119ZM22.5568 27.4313C23.8949 27.4313 25.0577 26.9534 26.0454 25.9976C27.0331 25.0418 27.5269 23.863 27.5269 22.4612C27.5269 21.0593 27.0331 19.8805 26.0454 18.9247C25.0577 17.9689 23.8949 17.491 22.5568 17.491C21.1549 17.491 19.9602 17.9689 18.9725 18.9247C17.9849 19.8805 17.491 21.0593 17.491 22.4612C17.491 23.863 17.9849 25.0418 18.9725 25.9976C19.9602 26.9534 21.1549 27.4313 22.5568 27.4313ZM62.509 43.6798C62.509 41.3859 61.8718 39.1398 60.5974 36.9415C59.323 34.7431 57.6663 33.0705 55.6272 31.9235C53.7794 30.904 51.6288 30.3624 49.1756 30.2987C46.7224 30.235 44.5082 30.6491 42.5329 31.5412V30.0119H32.497V62.509H42.5329V42.6284L46.6428 40.6213C47.1525 40.3664 47.8534 40.2389 48.7455 40.2389C49.6376 40.2389 50.3067 40.3982 50.7527 40.7168C51.135 40.908 51.5173 41.3222 51.8996 41.9594C52.282 42.5966 52.4731 43.1701 52.4731 43.6798V62.509H62.509V43.6798Z" fill="black"/>
</svg>
