<svg width="50" height="50" viewBox="0 0 50 50" fill="none" xmlns="http://www.w3.org/2000/svg">
<g clip-path="url(#clip0_99_539)">
<path d="M8.85417 0.750004H41.1458C42.3089 0.748908 43.4607 0.977179 44.5355 1.42175C45.6102 1.86633 46.5867 2.51848 47.4091 3.34088C48.2315 4.16329 48.8837 5.1398 49.3283 6.21453C49.7728 7.28926 50.0011 8.44112 50 9.60417V40.6458C50.0011 41.8089 49.7728 42.9607 49.3283 44.0355C48.8837 45.1102 48.2315 46.0867 47.4091 46.9091C46.5867 47.7315 45.6102 48.3837 44.5355 48.8283C43.4607 49.2728 42.3089 49.5011 41.1458 49.5H8.85417C7.69112 49.5011 6.53926 49.2728 5.46453 48.8283C4.3898 48.3837 3.41329 47.7315 2.59088 46.9091C1.76848 46.0867 1.11633 45.1102 0.671755 44.0355C0.227179 42.9607 -0.00109226 41.8089 3.92932e-06 40.6458V9.60417C-0.00109226 8.44112 0.227179 7.28926 0.671755 6.21453C1.11633 5.1398 1.76848 4.16329 2.59088 3.34088C3.41329 2.51848 4.3898 1.86633 5.46453 1.42175C6.53926 0.977179 7.69112 0.748908 8.85417 0.750004Z" fill="#002B22"/>
<path d="M11.25 34.9372V13.4997C11.25 13.3538 11.3125 13.2705 11.4583 13.2705C11.8125 13.2705 12.1458 13.2705 12.625 13.2497C13.1042 13.2288 13.6458 13.2288 14.2083 13.208C14.7708 13.1872 15.375 13.1872 16.0208 13.1663C16.6667 13.1455 17.2917 13.1455 17.9167 13.1455C19.625 13.1455 21.0417 13.3538 22.2083 13.7913C23.2542 14.1465 24.2078 14.7301 25 15.4997C25.6713 16.1732 26.19 16.9831 26.5208 17.8747C26.8362 18.7429 26.9983 19.6593 27 20.583C27 22.3747 26.5833 23.8538 25.75 25.0205C24.9128 26.1856 23.7439 27.0713 22.3958 27.5622C20.9792 28.083 19.4167 28.2705 17.7083 28.2705C17.2083 28.2705 16.875 28.2705 16.6667 28.2497C16.4583 28.2288 16.1667 28.2288 15.7708 28.2288V34.9163C15.7755 34.9506 15.7732 34.9855 15.7641 35.0189C15.755 35.0523 15.7394 35.0835 15.718 35.1107C15.6966 35.1379 15.67 35.1605 15.6397 35.1772C15.6094 35.1939 15.5761 35.2044 15.5417 35.208H11.5C11.3333 35.208 11.25 35.1247 11.25 34.9372ZM15.7917 17.2913V24.2913C16.0833 24.3122 16.3542 24.333 16.6042 24.333H17.7083C18.5216 24.334 19.3301 24.2074 20.1042 23.958C20.7683 23.7627 21.3617 23.3792 21.8125 22.8538C22.25 22.333 22.4583 21.6247 22.4583 20.708C22.4779 20.057 22.3117 19.4139 21.9792 18.8538C21.6318 18.3129 21.1209 17.8969 20.5208 17.6663C19.7387 17.36 18.9019 17.2182 18.0625 17.2497C17.5208 17.2497 17.0417 17.2497 16.6458 17.2705C16.3611 17.2519 16.0752 17.2589 15.7917 17.2913Z" fill="#EFFF3D"/>
<path d="M40 23.0208C39.371 22.6895 38.6973 22.4509 38 22.3125C37.2341 22.1391 36.4519 22.0483 35.6667 22.0417C35.245 22.0271 34.8236 22.0763 34.4167 22.1875C34.1572 22.2415 33.927 22.39 33.7708 22.6042C33.6656 22.7732 33.608 22.9676 33.6042 23.1667C33.6139 23.3649 33.6869 23.5547 33.8125 23.7083C34.01 23.9399 34.2505 24.131 34.5208 24.2708C35 24.5208 35.5 24.75 36 24.9583C37.1256 25.3373 38.2025 25.8477 39.2083 26.4792C39.8925 26.9094 40.4583 27.5038 40.8542 28.2083C41.189 28.873 41.3536 29.6103 41.3333 30.3542C41.3502 31.3389 41.0668 32.3054 40.5208 33.125C39.9397 33.9566 39.1289 34.601 38.1875 34.9792C37.1667 35.4167 35.9167 35.6458 34.4167 35.6458C33.4656 35.6497 32.5165 35.5589 31.5833 35.375C30.8486 35.248 30.134 35.0238 29.4583 34.7083C29.3857 34.6719 29.3253 34.615 29.2846 34.5447C29.2439 34.4743 29.2246 34.3936 29.2292 34.3125V30.6875C29.2274 30.6519 29.234 30.6164 29.2485 30.5838C29.2629 30.5512 29.2849 30.5225 29.3125 30.5C29.3419 30.4829 29.3759 30.4757 29.4097 30.4794C29.4435 30.4832 29.4751 30.4977 29.5 30.5208C30.3025 30.9939 31.1742 31.3384 32.0833 31.5417C32.886 31.7505 33.7122 31.8556 34.5417 31.8542C35.3333 31.8542 35.8958 31.75 36.2708 31.5625C36.4381 31.4852 36.5799 31.3619 36.6795 31.2069C36.7791 31.0519 36.8325 30.8717 36.8333 30.6875C36.8333 30.3958 36.6667 30.125 36.3333 29.8542C36 29.5833 35.3125 29.2708 34.2917 28.875C33.2444 28.506 32.2499 28.0017 31.3333 27.375C30.6805 26.9097 30.1396 26.3048 29.75 25.6042C29.4175 24.9462 29.2529 24.2162 29.2708 23.4792C29.2739 22.5902 29.5188 21.7188 29.9792 20.9583C30.5084 20.122 31.268 19.4564 32.1667 19.0417C33.1458 18.5417 34.375 18.3125 35.8542 18.3125C36.7187 18.3127 37.582 18.3754 38.4375 18.5C39.0526 18.5832 39.6546 18.7442 40.2292 18.9792C40.3207 19.0116 40.3956 19.079 40.4375 19.1667C40.4615 19.248 40.4755 19.3319 40.4792 19.4167V22.8125C40.4795 22.853 40.4702 22.893 40.4521 22.9292C40.434 22.9654 40.4076 22.9968 40.375 23.0208C40.2538 23.0644 40.1212 23.0644 40 23.0208Z" fill="#EFFF3D"/>
</g>
<defs>
<clipPath id="clip0_99_539">
<rect width="50" height="48.75" fill="white" transform="translate(0 0.75)"/>
</clipPath>
</defs>
</svg>
