<svg width="30" height="30" viewBox="0 0 30 30" fill="none" xmlns="http://www.w3.org/2000/svg">
<path d="M22.509 0C23.5364 0 24.5042 0.197133 25.4122 0.591398C26.3202 0.985663 27.1147 1.5233 27.7957 2.2043C28.4767 2.8853 29.0143 3.67981 29.4086 4.58781C29.8029 5.49582 30 6.46356 30 7.49104V22.4731C30 23.5006 29.8029 24.4743 29.4086 25.3943C29.0143 26.3142 28.4767 27.1147 27.7957 27.7957C27.1147 28.4767 26.3202 29.0143 25.4122 29.4086C24.5042 29.8029 23.5364 30 22.509 30H7.49104C6.46356 30 5.49582 29.8029 4.58781 29.4086C3.67981 29.0143 2.8853 28.4767 2.2043 27.7957C1.5233 27.1147 0.985663 26.3142 0.591398 25.3943C0.197133 24.4743 0 23.5006 0 22.4731V7.49104C0 6.46356 0.197133 5.49582 0.591398 4.58781C0.985663 3.67981 1.5233 2.8853 2.2043 2.2043C2.8853 1.5233 3.67981 0.985663 4.58781 0.591398C5.49582 0.197133 6.46356 0 7.49104 0H22.509ZM19.7491 18.2079C20.1792 17.8495 20.5436 17.4194 20.8423 16.9176C21.141 16.4158 21.3859 15.8662 21.5771 15.2688C21.7682 14.6714 21.8996 14.0681 21.9713 13.4588C22.043 12.8495 22.043 12.2581 21.9713 11.6846C21.8996 11.0633 21.7085 10.46 21.3979 9.87455C21.0872 9.28913 20.681 8.76941 20.1792 8.31541C19.6774 7.86141 19.1039 7.47909 18.4588 7.16846C17.8136 6.85783 17.1326 6.66667 16.4158 6.59498C15.3166 6.47551 14.2593 6.54719 13.2437 6.81004C12.2282 7.07288 11.3321 7.48507 10.5556 8.0466C9.77897 8.60812 9.15173 9.30705 8.67384 10.1434C8.19594 10.9797 7.95699 11.9235 7.95699 12.9749C7.95699 13.9785 8.1362 14.7909 8.49462 15.4122C8.85305 16.0335 9.48626 16.5114 10.3943 16.8459C10.7049 16.5591 10.8662 16.2903 10.8781 16.0394C10.8901 15.7885 10.8363 15.5376 10.7168 15.2867C10.5974 15.0358 10.454 14.773 10.2867 14.4982C10.1195 14.2234 10.0239 13.9188 10 13.5842C9.90442 12.7001 10.0777 11.8578 10.5197 11.0573C10.9618 10.2569 11.5532 9.60573 12.2939 9.10394C13.0346 8.60215 13.8829 8.30346 14.8387 8.20789C15.7945 8.11231 16.7503 8.33931 17.7061 8.88889C18.1601 9.15173 18.5185 9.52808 18.7814 10.0179C19.0442 10.5078 19.2294 11.0573 19.3369 11.6667C19.4444 12.276 19.4683 12.9092 19.4086 13.5663C19.3489 14.2234 19.2055 14.8268 18.9785 15.3763C18.7515 15.9259 18.4468 16.4038 18.0645 16.81C17.6822 17.2162 17.2282 17.4671 16.7025 17.5627C16.368 17.6344 16.0275 17.6284 15.681 17.5448C15.3345 17.4612 15.0896 17.3477 14.9462 17.2043C14.5639 16.8459 14.4086 16.4397 14.4803 15.9857C14.552 15.5317 14.6834 15.0418 14.8746 14.5161C15.0657 13.9904 15.2389 13.4528 15.3943 12.9032C15.5496 12.3536 15.5197 11.828 15.3047 11.3262C15.1135 10.8961 14.8447 10.6392 14.4982 10.5556C14.1517 10.4719 13.8112 10.5137 13.4767 10.681C13.1422 10.8483 12.8375 11.0992 12.5627 11.4337C12.2879 11.7682 12.1147 12.1266 12.043 12.509C11.9952 12.9152 12.0311 13.3154 12.1505 13.7097C12.27 14.1039 12.3298 14.4922 12.3298 14.8746C12.3298 15.3047 12.27 15.7646 12.1505 16.2545C12.0311 16.7443 11.8937 17.2461 11.7384 17.7599C11.583 18.2736 11.4277 18.7754 11.2724 19.2652C11.1171 19.7551 11.0036 20.2151 10.9319 20.6452C10.8841 20.9797 10.8423 21.4337 10.8065 22.0072C10.7706 22.5806 10.8005 23.0466 10.8961 23.405L10.8602 23.4409H12.043C12.4492 22.7479 12.7957 21.9355 13.0824 21.0036C13.3692 20.0717 13.6201 19.1756 13.8351 18.3154C13.9546 18.1959 14.0442 18.2198 14.1039 18.3871C14.1637 18.5544 14.2533 18.6738 14.3728 18.7455C14.7312 19.0323 15.1613 19.2055 15.6631 19.2652C16.1649 19.325 16.6667 19.319 17.1685 19.2473C17.6703 19.1756 18.1541 19.0442 18.6201 18.853C19.086 18.6619 19.4624 18.4468 19.7491 18.2079Z" fill="#F2F8F8"/>
</svg>
