<svg width="50" height="49" viewBox="0 0 50 49" fill="none" xmlns="http://www.w3.org/2000/svg">
<g clip-path="url(#clip0_99_502)">
<path d="M8.85417 3.92932e-06H41.1458C42.3089 -0.00109226 43.4607 0.227179 44.5355 0.671755C45.6102 1.11633 46.5867 1.76848 47.4091 2.59088C48.2315 3.41329 48.8837 4.3898 49.3283 5.46453C49.7728 6.53926 50.0011 7.69112 50 8.85417V39.8958C50.0011 41.0589 49.7728 42.2107 49.3283 43.2855C48.8837 44.3602 48.2315 45.3367 47.4091 46.1591C46.5867 46.9815 45.6102 47.6337 44.5355 48.0783C43.4607 48.5228 42.3089 48.7511 41.1458 48.75H8.85417C7.69112 48.7511 6.53926 48.5228 5.46453 48.0783C4.3898 47.6337 3.41329 46.9815 2.59088 46.1591C1.76848 45.3367 1.11633 44.3602 0.671755 43.2855C0.227179 42.2107 -0.00109226 41.0589 3.92932e-06 39.8958V8.85417C-0.00109226 7.69112 0.227179 6.53926 0.671755 5.46453C1.11633 4.3898 1.76848 3.41329 2.59088 2.59088C3.41329 1.76848 4.3898 1.11633 5.46453 0.671755C6.53926 0.227179 7.69112 -0.00109226 8.85417 3.92932e-06Z" fill="#002B22"/>
<path d="M11.875 34.1872V12.7497C11.875 12.6038 11.9375 12.5205 12.0833 12.5205C12.4375 12.5205 12.7708 12.5205 13.25 12.4997C13.7292 12.4788 14.2708 12.4788 14.8333 12.458C15.3958 12.4372 16 12.4372 16.6458 12.4163C17.2917 12.3955 17.9167 12.3955 18.5417 12.3955C20.25 12.3955 21.6667 12.6038 22.8333 13.0413C23.8792 13.3965 24.8328 13.9801 25.625 14.7497C26.2963 15.4232 26.815 16.2331 27.1458 17.1247C27.4612 17.9929 27.6233 18.9093 27.625 19.833C27.625 21.6247 27.2083 23.1038 26.375 24.2705C25.5378 25.4356 24.3689 26.3213 23.0208 26.8122C21.6042 27.333 20.0417 27.5205 18.3333 27.5205C17.8333 27.5205 17.5 27.5205 17.2917 27.4997C17.0833 27.4788 16.7917 27.4788 16.3958 27.4788V34.1663C16.4005 34.2006 16.3982 34.2355 16.3891 34.2689C16.38 34.3023 16.3644 34.3335 16.343 34.3607C16.3216 34.3879 16.295 34.4105 16.2647 34.4272C16.2344 34.4439 16.2011 34.4544 16.1667 34.458H12.125C11.9583 34.458 11.875 34.3747 11.875 34.1872ZM16.4167 16.5413V23.5413C16.7083 23.5622 16.9792 23.583 17.2292 23.583H18.3333C19.1466 23.584 19.9551 23.4574 20.7292 23.208C21.3933 23.0127 21.9867 22.6292 22.4375 22.1038C22.875 21.583 23.0833 20.8747 23.0833 19.958C23.1029 19.307 22.9367 18.6639 22.6042 18.1038C22.2568 17.5629 21.7459 17.1469 21.1458 16.9163C20.3637 16.61 19.5269 16.4682 18.6875 16.4997C18.1458 16.4997 17.6667 16.4997 17.2708 16.5205C16.9861 16.5019 16.7002 16.5089 16.4167 16.5413Z" fill="#EFFF3D"/>
<path d="M30.5416 17.7501H34.1874C34.2862 17.7524 34.3816 17.786 34.4602 17.8458C34.5388 17.9057 34.5964 17.9888 34.6249 18.0834C34.6885 18.251 34.7305 18.426 34.7499 18.6042C34.7916 18.8126 34.8333 19.0417 34.8541 19.2501C34.8749 19.4584 34.8958 19.7292 34.8958 20.0001C35.5213 19.2698 36.2772 18.6622 37.1249 18.2084C38.0933 17.6705 39.1838 17.3907 40.2916 17.3959C40.3259 17.3912 40.3607 17.3935 40.3941 17.4026C40.4275 17.4117 40.4587 17.4274 40.4859 17.4488C40.5131 17.4701 40.5358 17.4967 40.5525 17.527C40.5692 17.5573 40.5797 17.5907 40.5833 17.6251V21.7709C40.5833 21.9376 40.4791 22.0001 40.2499 22.0001C39.4942 21.9753 38.7383 22.0453 37.9999 22.2084C37.3981 22.3326 36.8114 22.5212 36.2499 22.7709C35.8469 22.9526 35.4853 23.215 35.1874 23.5417V34.1667C35.1874 34.3751 35.1041 34.4584 34.9166 34.4584H30.8124C30.774 34.4649 30.7347 34.4635 30.6968 34.4543C30.6589 34.4451 30.6233 34.4283 30.5921 34.4049C30.561 34.3815 30.5349 34.352 30.5154 34.3183C30.496 34.2845 30.4836 34.2471 30.4791 34.2084V22.5834C30.4791 22.0834 30.4791 21.5626 30.4583 21.0209C30.4374 20.4792 30.4374 19.9376 30.4166 19.3959C30.4166 18.9167 30.3749 18.4584 30.3333 17.9792C30.3277 17.9546 30.3271 17.9291 30.3315 17.9043C30.3358 17.8794 30.345 17.8556 30.3586 17.8344C30.3721 17.8131 30.3897 17.7947 30.4104 17.7802C30.4311 17.7657 30.4544 17.7555 30.4791 17.7501C30.4791 17.7292 30.5208 17.7292 30.5416 17.7501Z" fill="#EFFF3D"/>
</g>
<defs>
<clipPath id="clip0_99_502">
<rect width="50" height="48.75" fill="white"/>
</clipPath>
</defs>
</svg>
